%TF.GenerationSoftware,KiCad,Pcbnew,(5.1.2)-1*%
%TF.CreationDate,2019-07-30T19:12:15+02:00*%
%TF.ProjectId,F_rderband,46f67264-6572-4626-916e-642e6b696361,rev?*%
%TF.SameCoordinates,Original*%
%TF.FileFunction,Legend,Bot*%
%TF.FilePolarity,Positive*%
%FSLAX46Y46*%
G04 Gerber Fmt 4.6, Leading zero omitted, Abs format (unit mm)*
G04 Created by KiCad (PCBNEW (5.1.2)-1) date 2019-07-30 19:12:15*
%MOMM*%
%LPD*%
G04 APERTURE LIST*
%ADD10C,0.150000*%
%ADD11C,0.200000*%
%ADD12C,0.050000*%
%ADD13C,0.120000*%
G04 APERTURE END LIST*
D10*
X113064285Y-99182380D02*
X113635714Y-99182380D01*
X113350000Y-99182380D02*
X113350000Y-98182380D01*
X113445238Y-98325238D01*
X113540476Y-98420476D01*
X113635714Y-98468095D01*
X125954285Y-99022380D02*
X126525714Y-99022380D01*
X126240000Y-99022380D02*
X126240000Y-98022380D01*
X126335238Y-98165238D01*
X126430476Y-98260476D01*
X126525714Y-98308095D01*
X137534285Y-98952380D02*
X138105714Y-98952380D01*
X137820000Y-98952380D02*
X137820000Y-97952380D01*
X137915238Y-98095238D01*
X138010476Y-98190476D01*
X138105714Y-98238095D01*
X160024285Y-99022380D02*
X160595714Y-99022380D01*
X160310000Y-99022380D02*
X160310000Y-98022380D01*
X160405238Y-98165238D01*
X160500476Y-98260476D01*
X160595714Y-98308095D01*
X170554285Y-98992380D02*
X171125714Y-98992380D01*
X170840000Y-98992380D02*
X170840000Y-97992380D01*
X170935238Y-98135238D01*
X171030476Y-98230476D01*
X171125714Y-98278095D01*
D11*
X171166666Y-93228571D02*
X171023809Y-93314285D01*
X170785714Y-93314285D01*
X170690476Y-93228571D01*
X170642857Y-93142857D01*
X170595238Y-92971428D01*
X170595238Y-92800000D01*
X170642857Y-92628571D01*
X170690476Y-92542857D01*
X170785714Y-92457142D01*
X170976190Y-92371428D01*
X171071428Y-92285714D01*
X171119047Y-92200000D01*
X171166666Y-92028571D01*
X171166666Y-91857142D01*
X171119047Y-91685714D01*
X171071428Y-91600000D01*
X170976190Y-91514285D01*
X170738095Y-91514285D01*
X170595238Y-91600000D01*
X169642857Y-91600000D02*
X169738095Y-91514285D01*
X169880952Y-91514285D01*
X170023809Y-91600000D01*
X170119047Y-91771428D01*
X170166666Y-91942857D01*
X170214285Y-92285714D01*
X170214285Y-92542857D01*
X170166666Y-92885714D01*
X170119047Y-93057142D01*
X170023809Y-93228571D01*
X169880952Y-93314285D01*
X169785714Y-93314285D01*
X169642857Y-93228571D01*
X169595238Y-93142857D01*
X169595238Y-92542857D01*
X169785714Y-92542857D01*
X169119047Y-93314285D02*
X168928571Y-93314285D01*
X168833333Y-93228571D01*
X168785714Y-93142857D01*
X168690476Y-92885714D01*
X168642857Y-92542857D01*
X168642857Y-91857142D01*
X168690476Y-91685714D01*
X168738095Y-91600000D01*
X168833333Y-91514285D01*
X169023809Y-91514285D01*
X169119047Y-91600000D01*
X169166666Y-91685714D01*
X169214285Y-91857142D01*
X169214285Y-92285714D01*
X169166666Y-92457142D01*
X169119047Y-92542857D01*
X169023809Y-92628571D01*
X168833333Y-92628571D01*
X168738095Y-92542857D01*
X168690476Y-92457142D01*
X168642857Y-92285714D01*
X168023809Y-91514285D02*
X167928571Y-91514285D01*
X167833333Y-91600000D01*
X167785714Y-91685714D01*
X167738095Y-91857142D01*
X167690476Y-92200000D01*
X167690476Y-92628571D01*
X167738095Y-92971428D01*
X167785714Y-93142857D01*
X167833333Y-93228571D01*
X167928571Y-93314285D01*
X168023809Y-93314285D01*
X168119047Y-93228571D01*
X168166666Y-93142857D01*
X168214285Y-92971428D01*
X168261904Y-92628571D01*
X168261904Y-92200000D01*
X168214285Y-91857142D01*
X168166666Y-91685714D01*
X168119047Y-91600000D01*
X168023809Y-91514285D01*
X166547619Y-93228571D02*
X166404761Y-93314285D01*
X166166666Y-93314285D01*
X166071428Y-93228571D01*
X166023809Y-93142857D01*
X165976190Y-92971428D01*
X165976190Y-92800000D01*
X166023809Y-92628571D01*
X166071428Y-92542857D01*
X166166666Y-92457142D01*
X166357142Y-92371428D01*
X166452380Y-92285714D01*
X166500000Y-92200000D01*
X166547619Y-92028571D01*
X166547619Y-91857142D01*
X166500000Y-91685714D01*
X166452380Y-91600000D01*
X166357142Y-91514285D01*
X166119047Y-91514285D01*
X165976190Y-91600000D01*
X165166666Y-93228571D02*
X165261904Y-93314285D01*
X165452380Y-93314285D01*
X165547619Y-93228571D01*
X165595238Y-93057142D01*
X165595238Y-92371428D01*
X165547619Y-92200000D01*
X165452380Y-92114285D01*
X165261904Y-92114285D01*
X165166666Y-92200000D01*
X165119047Y-92371428D01*
X165119047Y-92542857D01*
X165595238Y-92714285D01*
X164690476Y-93314285D02*
X164690476Y-92114285D01*
X164690476Y-92457142D02*
X164642857Y-92285714D01*
X164595238Y-92200000D01*
X164500000Y-92114285D01*
X164404761Y-92114285D01*
X164166666Y-92114285D02*
X163928571Y-93314285D01*
X163690476Y-92114285D01*
X163166666Y-93314285D02*
X163261904Y-93228571D01*
X163309523Y-93142857D01*
X163357142Y-92971428D01*
X163357142Y-92457142D01*
X163309523Y-92285714D01*
X163261904Y-92200000D01*
X163166666Y-92114285D01*
X163023809Y-92114285D01*
X162928571Y-92200000D01*
X162880952Y-92285714D01*
X162833333Y-92457142D01*
X162833333Y-92971428D01*
X162880952Y-93142857D01*
X162928571Y-93228571D01*
X163023809Y-93314285D01*
X163166666Y-93314285D01*
X157308571Y-93314285D02*
X157641904Y-92457142D01*
X157880000Y-93314285D02*
X157880000Y-91514285D01*
X157499047Y-91514285D01*
X157403809Y-91600000D01*
X157356190Y-91685714D01*
X157308571Y-91857142D01*
X157308571Y-92114285D01*
X157356190Y-92285714D01*
X157403809Y-92371428D01*
X157499047Y-92457142D01*
X157880000Y-92457142D01*
X156308571Y-93142857D02*
X156356190Y-93228571D01*
X156499047Y-93314285D01*
X156594285Y-93314285D01*
X156737142Y-93228571D01*
X156832380Y-93057142D01*
X156880000Y-92885714D01*
X156927619Y-92542857D01*
X156927619Y-92285714D01*
X156880000Y-91942857D01*
X156832380Y-91771428D01*
X156737142Y-91600000D01*
X156594285Y-91514285D01*
X156499047Y-91514285D01*
X156356190Y-91600000D01*
X156308571Y-91685714D01*
X155403809Y-91514285D02*
X155880000Y-91514285D01*
X155927619Y-92371428D01*
X155880000Y-92285714D01*
X155784761Y-92200000D01*
X155546666Y-92200000D01*
X155451428Y-92285714D01*
X155403809Y-92371428D01*
X155356190Y-92542857D01*
X155356190Y-92971428D01*
X155403809Y-93142857D01*
X155451428Y-93228571D01*
X155546666Y-93314285D01*
X155784761Y-93314285D01*
X155880000Y-93228571D01*
X155927619Y-93142857D01*
X154975238Y-91685714D02*
X154927619Y-91600000D01*
X154832380Y-91514285D01*
X154594285Y-91514285D01*
X154499047Y-91600000D01*
X154451428Y-91685714D01*
X154403809Y-91857142D01*
X154403809Y-92028571D01*
X154451428Y-92285714D01*
X155022857Y-93314285D01*
X154403809Y-93314285D01*
X154022857Y-91685714D02*
X153975238Y-91600000D01*
X153880000Y-91514285D01*
X153641904Y-91514285D01*
X153546666Y-91600000D01*
X153499047Y-91685714D01*
X153451428Y-91857142D01*
X153451428Y-92028571D01*
X153499047Y-92285714D01*
X154070476Y-93314285D01*
X153451428Y-93314285D01*
X151689523Y-93314285D02*
X152022857Y-92457142D01*
X152260952Y-93314285D02*
X152260952Y-91514285D01*
X151880000Y-91514285D01*
X151784761Y-91600000D01*
X151737142Y-91685714D01*
X151689523Y-91857142D01*
X151689523Y-92114285D01*
X151737142Y-92285714D01*
X151784761Y-92371428D01*
X151880000Y-92457142D01*
X152260952Y-92457142D01*
X150927619Y-92371428D02*
X151260952Y-92371428D01*
X151260952Y-93314285D02*
X151260952Y-91514285D01*
X150784761Y-91514285D01*
X150403809Y-93314285D02*
X150403809Y-91514285D01*
X149927619Y-93314285D02*
X149927619Y-91514285D01*
X149689523Y-91514285D01*
X149546666Y-91600000D01*
X149451428Y-91771428D01*
X149403809Y-91942857D01*
X149356190Y-92285714D01*
X149356190Y-92542857D01*
X149403809Y-92885714D01*
X149451428Y-93057142D01*
X149546666Y-93228571D01*
X149689523Y-93314285D01*
X149927619Y-93314285D01*
X148165714Y-93314285D02*
X148165714Y-92114285D01*
X148165714Y-92457142D02*
X148118095Y-92285714D01*
X148070476Y-92200000D01*
X147975238Y-92114285D01*
X147880000Y-92114285D01*
X147165714Y-93228571D02*
X147260952Y-93314285D01*
X147451428Y-93314285D01*
X147546666Y-93228571D01*
X147594285Y-93057142D01*
X147594285Y-92371428D01*
X147546666Y-92200000D01*
X147451428Y-92114285D01*
X147260952Y-92114285D01*
X147165714Y-92200000D01*
X147118095Y-92371428D01*
X147118095Y-92542857D01*
X147594285Y-92714285D01*
X146260952Y-93314285D02*
X146260952Y-92371428D01*
X146308571Y-92200000D01*
X146403809Y-92114285D01*
X146594285Y-92114285D01*
X146689523Y-92200000D01*
X146260952Y-93228571D02*
X146356190Y-93314285D01*
X146594285Y-93314285D01*
X146689523Y-93228571D01*
X146737142Y-93057142D01*
X146737142Y-92885714D01*
X146689523Y-92714285D01*
X146594285Y-92628571D01*
X146356190Y-92628571D01*
X146260952Y-92542857D01*
X145356190Y-93314285D02*
X145356190Y-91514285D01*
X145356190Y-93228571D02*
X145451428Y-93314285D01*
X145641904Y-93314285D01*
X145737142Y-93228571D01*
X145784761Y-93142857D01*
X145832380Y-92971428D01*
X145832380Y-92457142D01*
X145784761Y-92285714D01*
X145737142Y-92200000D01*
X145641904Y-92114285D01*
X145451428Y-92114285D01*
X145356190Y-92200000D01*
X144499047Y-93228571D02*
X144594285Y-93314285D01*
X144784761Y-93314285D01*
X144880000Y-93228571D01*
X144927619Y-93057142D01*
X144927619Y-92371428D01*
X144880000Y-92200000D01*
X144784761Y-92114285D01*
X144594285Y-92114285D01*
X144499047Y-92200000D01*
X144451428Y-92371428D01*
X144451428Y-92542857D01*
X144927619Y-92714285D01*
X144022857Y-93314285D02*
X144022857Y-92114285D01*
X144022857Y-92457142D02*
X143975238Y-92285714D01*
X143927619Y-92200000D01*
X143832380Y-92114285D01*
X143737142Y-92114285D01*
X138870476Y-91514285D02*
X138299047Y-91514285D01*
X138584761Y-93314285D02*
X138584761Y-91514285D01*
X137394285Y-93142857D02*
X137441904Y-93228571D01*
X137584761Y-93314285D01*
X137680000Y-93314285D01*
X137822857Y-93228571D01*
X137918095Y-93057142D01*
X137965714Y-92885714D01*
X138013333Y-92542857D01*
X138013333Y-92285714D01*
X137965714Y-91942857D01*
X137918095Y-91771428D01*
X137822857Y-91600000D01*
X137680000Y-91514285D01*
X137584761Y-91514285D01*
X137441904Y-91600000D01*
X137394285Y-91685714D01*
X136394285Y-93314285D02*
X136727619Y-92457142D01*
X136965714Y-93314285D02*
X136965714Y-91514285D01*
X136584761Y-91514285D01*
X136489523Y-91600000D01*
X136441904Y-91685714D01*
X136394285Y-91857142D01*
X136394285Y-92114285D01*
X136441904Y-92285714D01*
X136489523Y-92371428D01*
X136584761Y-92457142D01*
X136965714Y-92457142D01*
X136108571Y-91514285D02*
X135537142Y-91514285D01*
X135822857Y-93314285D02*
X135822857Y-91514285D01*
X134727619Y-91514285D02*
X135203809Y-91514285D01*
X135251428Y-92371428D01*
X135203809Y-92285714D01*
X135108571Y-92200000D01*
X134870476Y-92200000D01*
X134775238Y-92285714D01*
X134727619Y-92371428D01*
X134680000Y-92542857D01*
X134680000Y-92971428D01*
X134727619Y-93142857D01*
X134775238Y-93228571D01*
X134870476Y-93314285D01*
X135108571Y-93314285D01*
X135203809Y-93228571D01*
X135251428Y-93142857D01*
X134060952Y-91514285D02*
X133965714Y-91514285D01*
X133870476Y-91600000D01*
X133822857Y-91685714D01*
X133775238Y-91857142D01*
X133727619Y-92200000D01*
X133727619Y-92628571D01*
X133775238Y-92971428D01*
X133822857Y-93142857D01*
X133870476Y-93228571D01*
X133965714Y-93314285D01*
X134060952Y-93314285D01*
X134156190Y-93228571D01*
X134203809Y-93142857D01*
X134251428Y-92971428D01*
X134299047Y-92628571D01*
X134299047Y-92200000D01*
X134251428Y-91857142D01*
X134203809Y-91685714D01*
X134156190Y-91600000D01*
X134060952Y-91514285D01*
X133108571Y-91514285D02*
X133013333Y-91514285D01*
X132918095Y-91600000D01*
X132870476Y-91685714D01*
X132822857Y-91857142D01*
X132775238Y-92200000D01*
X132775238Y-92628571D01*
X132822857Y-92971428D01*
X132870476Y-93142857D01*
X132918095Y-93228571D01*
X133013333Y-93314285D01*
X133108571Y-93314285D01*
X133203809Y-93228571D01*
X133251428Y-93142857D01*
X133299047Y-92971428D01*
X133346666Y-92628571D01*
X133346666Y-92200000D01*
X133299047Y-91857142D01*
X133251428Y-91685714D01*
X133203809Y-91600000D01*
X133108571Y-91514285D01*
X132156190Y-91514285D02*
X132060952Y-91514285D01*
X131965714Y-91600000D01*
X131918095Y-91685714D01*
X131870476Y-91857142D01*
X131822857Y-92200000D01*
X131822857Y-92628571D01*
X131870476Y-92971428D01*
X131918095Y-93142857D01*
X131965714Y-93228571D01*
X132060952Y-93314285D01*
X132156190Y-93314285D01*
X132251428Y-93228571D01*
X132299047Y-93142857D01*
X132346666Y-92971428D01*
X132394285Y-92628571D01*
X132394285Y-92200000D01*
X132346666Y-91857142D01*
X132299047Y-91685714D01*
X132251428Y-91600000D01*
X132156190Y-91514285D01*
X130632380Y-93314285D02*
X130632380Y-91514285D01*
X129584761Y-93314285D02*
X129918095Y-92457142D01*
X130156190Y-93314285D02*
X130156190Y-91514285D01*
X129775238Y-91514285D01*
X129680000Y-91600000D01*
X129632380Y-91685714D01*
X129584761Y-91857142D01*
X129584761Y-92114285D01*
X129632380Y-92285714D01*
X129680000Y-92371428D01*
X129775238Y-92457142D01*
X130156190Y-92457142D01*
X127130476Y-91514285D02*
X126559047Y-91514285D01*
X126844761Y-93314285D02*
X126844761Y-91514285D01*
X125654285Y-93142857D02*
X125701904Y-93228571D01*
X125844761Y-93314285D01*
X125940000Y-93314285D01*
X126082857Y-93228571D01*
X126178095Y-93057142D01*
X126225714Y-92885714D01*
X126273333Y-92542857D01*
X126273333Y-92285714D01*
X126225714Y-91942857D01*
X126178095Y-91771428D01*
X126082857Y-91600000D01*
X125940000Y-91514285D01*
X125844761Y-91514285D01*
X125701904Y-91600000D01*
X125654285Y-91685714D01*
X124654285Y-93314285D02*
X124987619Y-92457142D01*
X125225714Y-93314285D02*
X125225714Y-91514285D01*
X124844761Y-91514285D01*
X124749523Y-91600000D01*
X124701904Y-91685714D01*
X124654285Y-91857142D01*
X124654285Y-92114285D01*
X124701904Y-92285714D01*
X124749523Y-92371428D01*
X124844761Y-92457142D01*
X125225714Y-92457142D01*
X124368571Y-91514285D02*
X123797142Y-91514285D01*
X124082857Y-93314285D02*
X124082857Y-91514285D01*
X122987619Y-91514285D02*
X123463809Y-91514285D01*
X123511428Y-92371428D01*
X123463809Y-92285714D01*
X123368571Y-92200000D01*
X123130476Y-92200000D01*
X123035238Y-92285714D01*
X122987619Y-92371428D01*
X122940000Y-92542857D01*
X122940000Y-92971428D01*
X122987619Y-93142857D01*
X123035238Y-93228571D01*
X123130476Y-93314285D01*
X123368571Y-93314285D01*
X123463809Y-93228571D01*
X123511428Y-93142857D01*
X122320952Y-91514285D02*
X122225714Y-91514285D01*
X122130476Y-91600000D01*
X122082857Y-91685714D01*
X122035238Y-91857142D01*
X121987619Y-92200000D01*
X121987619Y-92628571D01*
X122035238Y-92971428D01*
X122082857Y-93142857D01*
X122130476Y-93228571D01*
X122225714Y-93314285D01*
X122320952Y-93314285D01*
X122416190Y-93228571D01*
X122463809Y-93142857D01*
X122511428Y-92971428D01*
X122559047Y-92628571D01*
X122559047Y-92200000D01*
X122511428Y-91857142D01*
X122463809Y-91685714D01*
X122416190Y-91600000D01*
X122320952Y-91514285D01*
X121368571Y-91514285D02*
X121273333Y-91514285D01*
X121178095Y-91600000D01*
X121130476Y-91685714D01*
X121082857Y-91857142D01*
X121035238Y-92200000D01*
X121035238Y-92628571D01*
X121082857Y-92971428D01*
X121130476Y-93142857D01*
X121178095Y-93228571D01*
X121273333Y-93314285D01*
X121368571Y-93314285D01*
X121463809Y-93228571D01*
X121511428Y-93142857D01*
X121559047Y-92971428D01*
X121606666Y-92628571D01*
X121606666Y-92200000D01*
X121559047Y-91857142D01*
X121511428Y-91685714D01*
X121463809Y-91600000D01*
X121368571Y-91514285D01*
X120416190Y-91514285D02*
X120320952Y-91514285D01*
X120225714Y-91600000D01*
X120178095Y-91685714D01*
X120130476Y-91857142D01*
X120082857Y-92200000D01*
X120082857Y-92628571D01*
X120130476Y-92971428D01*
X120178095Y-93142857D01*
X120225714Y-93228571D01*
X120320952Y-93314285D01*
X120416190Y-93314285D01*
X120511428Y-93228571D01*
X120559047Y-93142857D01*
X120606666Y-92971428D01*
X120654285Y-92628571D01*
X120654285Y-92200000D01*
X120606666Y-91857142D01*
X120559047Y-91685714D01*
X120511428Y-91600000D01*
X120416190Y-91514285D01*
X118892380Y-93314285D02*
X118892380Y-91514285D01*
X117844761Y-93314285D02*
X118178095Y-92457142D01*
X118416190Y-93314285D02*
X118416190Y-91514285D01*
X118035238Y-91514285D01*
X117940000Y-91600000D01*
X117892380Y-91685714D01*
X117844761Y-91857142D01*
X117844761Y-92114285D01*
X117892380Y-92285714D01*
X117940000Y-92371428D01*
X118035238Y-92457142D01*
X118416190Y-92457142D01*
X113673333Y-93314285D02*
X113673333Y-91514285D01*
X113340000Y-92800000D01*
X113006666Y-91514285D01*
X113006666Y-93314285D01*
X112387619Y-93314285D02*
X112482857Y-93228571D01*
X112530476Y-93142857D01*
X112578095Y-92971428D01*
X112578095Y-92457142D01*
X112530476Y-92285714D01*
X112482857Y-92200000D01*
X112387619Y-92114285D01*
X112244761Y-92114285D01*
X112149523Y-92200000D01*
X112101904Y-92285714D01*
X112054285Y-92457142D01*
X112054285Y-92971428D01*
X112101904Y-93142857D01*
X112149523Y-93228571D01*
X112244761Y-93314285D01*
X112387619Y-93314285D01*
X111768571Y-92114285D02*
X111387619Y-92114285D01*
X111625714Y-91514285D02*
X111625714Y-93057142D01*
X111578095Y-93228571D01*
X111482857Y-93314285D01*
X111387619Y-93314285D01*
X110911428Y-93314285D02*
X111006666Y-93228571D01*
X111054285Y-93142857D01*
X111101904Y-92971428D01*
X111101904Y-92457142D01*
X111054285Y-92285714D01*
X111006666Y-92200000D01*
X110911428Y-92114285D01*
X110768571Y-92114285D01*
X110673333Y-92200000D01*
X110625714Y-92285714D01*
X110578095Y-92457142D01*
X110578095Y-92971428D01*
X110625714Y-93142857D01*
X110673333Y-93228571D01*
X110768571Y-93314285D01*
X110911428Y-93314285D01*
X110149523Y-93314285D02*
X110149523Y-92114285D01*
X110149523Y-92457142D02*
X110101904Y-92285714D01*
X110054285Y-92200000D01*
X109959047Y-92114285D01*
X109863809Y-92114285D01*
D12*
X90000000Y-90000000D02*
X90000000Y-140000000D01*
X190000000Y-90000000D02*
X90000000Y-90000000D01*
X190000000Y-140000000D02*
X190000000Y-90000000D01*
X90000000Y-140000000D02*
X190000000Y-140000000D01*
D13*
X139320000Y-97330000D02*
X139320000Y-96000000D01*
X137990000Y-97330000D02*
X139320000Y-97330000D01*
X136720000Y-97330000D02*
X136720000Y-94670000D01*
X136720000Y-94670000D02*
X129040000Y-94670000D01*
X136720000Y-97330000D02*
X129040000Y-97330000D01*
X129040000Y-97330000D02*
X129040000Y-94670000D01*
X127270000Y-97330000D02*
X127270000Y-96000000D01*
X125940000Y-97330000D02*
X127270000Y-97330000D01*
X124670000Y-97330000D02*
X124670000Y-94670000D01*
X124670000Y-94670000D02*
X116990000Y-94670000D01*
X124670000Y-97330000D02*
X116990000Y-97330000D01*
X116990000Y-97330000D02*
X116990000Y-94670000D01*
X171060000Y-97330000D02*
X171060000Y-96000000D01*
X169730000Y-97330000D02*
X171060000Y-97330000D01*
X168460000Y-97330000D02*
X168460000Y-94670000D01*
X168460000Y-94670000D02*
X163320000Y-94670000D01*
X168460000Y-97330000D02*
X163320000Y-97330000D01*
X163320000Y-97330000D02*
X163320000Y-94670000D01*
X161470000Y-97330000D02*
X161470000Y-96000000D01*
X160140000Y-97330000D02*
X161470000Y-97330000D01*
X158870000Y-97330000D02*
X158870000Y-94670000D01*
X158870000Y-94670000D02*
X141030000Y-94670000D01*
X158870000Y-97330000D02*
X141030000Y-97330000D01*
X141030000Y-97330000D02*
X141030000Y-94670000D01*
X114620000Y-97330000D02*
X114620000Y-96000000D01*
X113290000Y-97330000D02*
X114620000Y-97330000D01*
X112020000Y-97330000D02*
X112020000Y-94670000D01*
X112020000Y-94670000D02*
X109420000Y-94670000D01*
X112020000Y-97330000D02*
X109420000Y-97330000D01*
X109420000Y-97330000D02*
X109420000Y-94670000D01*
D10*
X134593333Y-97992380D02*
X134593333Y-98706666D01*
X134640952Y-98849523D01*
X134736190Y-98944761D01*
X134879047Y-98992380D01*
X134974285Y-98992380D01*
X133688571Y-97992380D02*
X133879047Y-97992380D01*
X133974285Y-98040000D01*
X134021904Y-98087619D01*
X134117142Y-98230476D01*
X134164761Y-98420952D01*
X134164761Y-98801904D01*
X134117142Y-98897142D01*
X134069523Y-98944761D01*
X133974285Y-98992380D01*
X133783809Y-98992380D01*
X133688571Y-98944761D01*
X133640952Y-98897142D01*
X133593333Y-98801904D01*
X133593333Y-98563809D01*
X133640952Y-98468571D01*
X133688571Y-98420952D01*
X133783809Y-98373333D01*
X133974285Y-98373333D01*
X134069523Y-98420952D01*
X134117142Y-98468571D01*
X134164761Y-98563809D01*
X122353333Y-98052380D02*
X122353333Y-98766666D01*
X122400952Y-98909523D01*
X122496190Y-99004761D01*
X122639047Y-99052380D01*
X122734285Y-99052380D01*
X121448571Y-98385714D02*
X121448571Y-99052380D01*
X121686666Y-98004761D02*
X121924761Y-98719047D01*
X121305714Y-98719047D01*
X167613333Y-98092380D02*
X167613333Y-98806666D01*
X167660952Y-98949523D01*
X167756190Y-99044761D01*
X167899047Y-99092380D01*
X167994285Y-99092380D01*
X166660952Y-98092380D02*
X167137142Y-98092380D01*
X167184761Y-98568571D01*
X167137142Y-98520952D01*
X167041904Y-98473333D01*
X166803809Y-98473333D01*
X166708571Y-98520952D01*
X166660952Y-98568571D01*
X166613333Y-98663809D01*
X166613333Y-98901904D01*
X166660952Y-98997142D01*
X166708571Y-99044761D01*
X166803809Y-99092380D01*
X167041904Y-99092380D01*
X167137142Y-99044761D01*
X167184761Y-98997142D01*
X157783333Y-98092380D02*
X157783333Y-98806666D01*
X157830952Y-98949523D01*
X157926190Y-99044761D01*
X158069047Y-99092380D01*
X158164285Y-99092380D01*
X157402380Y-98092380D02*
X156783333Y-98092380D01*
X157116666Y-98473333D01*
X156973809Y-98473333D01*
X156878571Y-98520952D01*
X156830952Y-98568571D01*
X156783333Y-98663809D01*
X156783333Y-98901904D01*
X156830952Y-98997142D01*
X156878571Y-99044761D01*
X156973809Y-99092380D01*
X157259523Y-99092380D01*
X157354761Y-99044761D01*
X157402380Y-98997142D01*
X110793333Y-98092380D02*
X110793333Y-98806666D01*
X110840952Y-98949523D01*
X110936190Y-99044761D01*
X111079047Y-99092380D01*
X111174285Y-99092380D01*
X110364761Y-98187619D02*
X110317142Y-98140000D01*
X110221904Y-98092380D01*
X109983809Y-98092380D01*
X109888571Y-98140000D01*
X109840952Y-98187619D01*
X109793333Y-98282857D01*
X109793333Y-98378095D01*
X109840952Y-98520952D01*
X110412380Y-99092380D01*
X109793333Y-99092380D01*
M02*
