%TF.GenerationSoftware,KiCad,Pcbnew,(5.1.2)-1*%
%TF.CreationDate,2019-07-30T19:12:15+02:00*%
%TF.ProjectId,F_rderband,46f67264-6572-4626-916e-642e6b696361,rev?*%
%TF.SameCoordinates,Original*%
%TF.FileFunction,Legend,Top*%
%TF.FilePolarity,Positive*%
%FSLAX46Y46*%
G04 Gerber Fmt 4.6, Leading zero omitted, Abs format (unit mm)*
G04 Created by KiCad (PCBNEW (5.1.2)-1) date 2019-07-30 19:12:15*
%MOMM*%
%LPD*%
G04 APERTURE LIST*
%ADD10C,0.150000*%
%ADD11C,0.300000*%
%ADD12C,0.200000*%
%ADD13C,0.050000*%
%ADD14C,0.120000*%
G04 APERTURE END LIST*
D10*
X121125714Y-138852380D02*
X120554285Y-138852380D01*
X120840000Y-138852380D02*
X120840000Y-137852380D01*
X120744761Y-137995238D01*
X120649523Y-138090476D01*
X120554285Y-138138095D01*
X120775714Y-123642380D02*
X120204285Y-123642380D01*
X120490000Y-123642380D02*
X120490000Y-122642380D01*
X120394761Y-122785238D01*
X120299523Y-122880476D01*
X120204285Y-122928095D01*
X111675714Y-109352380D02*
X111104285Y-109352380D01*
X111390000Y-109352380D02*
X111390000Y-108352380D01*
X111294761Y-108495238D01*
X111199523Y-108590476D01*
X111104285Y-108638095D01*
D11*
X109334285Y-124228571D02*
X108620000Y-124228571D01*
X108548571Y-124942857D01*
X108620000Y-124871428D01*
X108762857Y-124800000D01*
X109120000Y-124800000D01*
X109262857Y-124871428D01*
X109334285Y-124942857D01*
X109405714Y-125085714D01*
X109405714Y-125442857D01*
X109334285Y-125585714D01*
X109262857Y-125657142D01*
X109120000Y-125728571D01*
X108762857Y-125728571D01*
X108620000Y-125657142D01*
X108548571Y-125585714D01*
X109834285Y-124228571D02*
X110334285Y-125728571D01*
X110834285Y-124228571D01*
X112644285Y-126972857D02*
X111501428Y-126972857D01*
X112072857Y-126401428D02*
X112072857Y-127544285D01*
X107358571Y-126972857D02*
X106215714Y-126972857D01*
D12*
X119244761Y-103494285D02*
X119244761Y-101694285D01*
X119482857Y-101694285D01*
X119625714Y-101780000D01*
X119720952Y-101951428D01*
X119768571Y-102122857D01*
X119816190Y-102465714D01*
X119816190Y-102722857D01*
X119768571Y-103065714D01*
X119720952Y-103237142D01*
X119625714Y-103408571D01*
X119482857Y-103494285D01*
X119244761Y-103494285D01*
X120816190Y-103494285D02*
X120482857Y-102637142D01*
X120244761Y-103494285D02*
X120244761Y-101694285D01*
X120625714Y-101694285D01*
X120720952Y-101780000D01*
X120768571Y-101865714D01*
X120816190Y-102037142D01*
X120816190Y-102294285D01*
X120768571Y-102465714D01*
X120720952Y-102551428D01*
X120625714Y-102637142D01*
X120244761Y-102637142D01*
X121101904Y-101694285D02*
X121435238Y-103494285D01*
X121768571Y-101694285D01*
X122244761Y-102465714D02*
X122149523Y-102380000D01*
X122101904Y-102294285D01*
X122054285Y-102122857D01*
X122054285Y-102037142D01*
X122101904Y-101865714D01*
X122149523Y-101780000D01*
X122244761Y-101694285D01*
X122435238Y-101694285D01*
X122530476Y-101780000D01*
X122578095Y-101865714D01*
X122625714Y-102037142D01*
X122625714Y-102122857D01*
X122578095Y-102294285D01*
X122530476Y-102380000D01*
X122435238Y-102465714D01*
X122244761Y-102465714D01*
X122149523Y-102551428D01*
X122101904Y-102637142D01*
X122054285Y-102808571D01*
X122054285Y-103151428D01*
X122101904Y-103322857D01*
X122149523Y-103408571D01*
X122244761Y-103494285D01*
X122435238Y-103494285D01*
X122530476Y-103408571D01*
X122578095Y-103322857D01*
X122625714Y-103151428D01*
X122625714Y-102808571D01*
X122578095Y-102637142D01*
X122530476Y-102551428D01*
X122435238Y-102465714D01*
X123197142Y-102465714D02*
X123101904Y-102380000D01*
X123054285Y-102294285D01*
X123006666Y-102122857D01*
X123006666Y-102037142D01*
X123054285Y-101865714D01*
X123101904Y-101780000D01*
X123197142Y-101694285D01*
X123387619Y-101694285D01*
X123482857Y-101780000D01*
X123530476Y-101865714D01*
X123578095Y-102037142D01*
X123578095Y-102122857D01*
X123530476Y-102294285D01*
X123482857Y-102380000D01*
X123387619Y-102465714D01*
X123197142Y-102465714D01*
X123101904Y-102551428D01*
X123054285Y-102637142D01*
X123006666Y-102808571D01*
X123006666Y-103151428D01*
X123054285Y-103322857D01*
X123101904Y-103408571D01*
X123197142Y-103494285D01*
X123387619Y-103494285D01*
X123482857Y-103408571D01*
X123530476Y-103322857D01*
X123578095Y-103151428D01*
X123578095Y-102808571D01*
X123530476Y-102637142D01*
X123482857Y-102551428D01*
X123387619Y-102465714D01*
X123911428Y-101694285D02*
X124530476Y-101694285D01*
X124197142Y-102380000D01*
X124340000Y-102380000D01*
X124435238Y-102465714D01*
X124482857Y-102551428D01*
X124530476Y-102722857D01*
X124530476Y-103151428D01*
X124482857Y-103322857D01*
X124435238Y-103408571D01*
X124340000Y-103494285D01*
X124054285Y-103494285D01*
X123959047Y-103408571D01*
X123911428Y-103322857D01*
X124863809Y-101694285D02*
X125482857Y-101694285D01*
X125149523Y-102380000D01*
X125292380Y-102380000D01*
X125387619Y-102465714D01*
X125435238Y-102551428D01*
X125482857Y-102722857D01*
X125482857Y-103151428D01*
X125435238Y-103322857D01*
X125387619Y-103408571D01*
X125292380Y-103494285D01*
X125006666Y-103494285D01*
X124911428Y-103408571D01*
X124863809Y-103322857D01*
X119728571Y-127644285D02*
X119395238Y-126787142D01*
X119157142Y-127644285D02*
X119157142Y-125844285D01*
X119538095Y-125844285D01*
X119633333Y-125930000D01*
X119680952Y-126015714D01*
X119728571Y-126187142D01*
X119728571Y-126444285D01*
X119680952Y-126615714D01*
X119633333Y-126701428D01*
X119538095Y-126787142D01*
X119157142Y-126787142D01*
X120157142Y-127644285D02*
X120157142Y-125844285D01*
X120538095Y-125844285D01*
X120633333Y-125930000D01*
X120680952Y-126015714D01*
X120728571Y-126187142D01*
X120728571Y-126444285D01*
X120680952Y-126615714D01*
X120633333Y-126701428D01*
X120538095Y-126787142D01*
X120157142Y-126787142D01*
X121157142Y-127644285D02*
X121157142Y-126444285D01*
X121157142Y-125844285D02*
X121109523Y-125930000D01*
X121157142Y-126015714D01*
X121204761Y-125930000D01*
X121157142Y-125844285D01*
X121157142Y-126015714D01*
X122919047Y-125930000D02*
X122823809Y-125844285D01*
X122680952Y-125844285D01*
X122538095Y-125930000D01*
X122442857Y-126101428D01*
X122395238Y-126272857D01*
X122347619Y-126615714D01*
X122347619Y-126872857D01*
X122395238Y-127215714D01*
X122442857Y-127387142D01*
X122538095Y-127558571D01*
X122680952Y-127644285D01*
X122776190Y-127644285D01*
X122919047Y-127558571D01*
X122966666Y-127472857D01*
X122966666Y-126872857D01*
X122776190Y-126872857D01*
X123395238Y-127644285D02*
X123395238Y-125844285D01*
X123776190Y-125844285D01*
X123871428Y-125930000D01*
X123919047Y-126015714D01*
X123966666Y-126187142D01*
X123966666Y-126444285D01*
X123919047Y-126615714D01*
X123871428Y-126701428D01*
X123776190Y-126787142D01*
X123395238Y-126787142D01*
X124395238Y-127644285D02*
X124395238Y-125844285D01*
X125061904Y-125844285D02*
X125252380Y-125844285D01*
X125347619Y-125930000D01*
X125442857Y-126101428D01*
X125490476Y-126444285D01*
X125490476Y-127044285D01*
X125442857Y-127387142D01*
X125347619Y-127558571D01*
X125252380Y-127644285D01*
X125061904Y-127644285D01*
X124966666Y-127558571D01*
X124871428Y-127387142D01*
X124823809Y-127044285D01*
X124823809Y-126444285D01*
X124871428Y-126101428D01*
X124966666Y-125930000D01*
X125061904Y-125844285D01*
X104420952Y-122784285D02*
X104420952Y-120984285D01*
X104659047Y-120984285D01*
X104801904Y-121070000D01*
X104897142Y-121241428D01*
X104944761Y-121412857D01*
X104992380Y-121755714D01*
X104992380Y-122012857D01*
X104944761Y-122355714D01*
X104897142Y-122527142D01*
X104801904Y-122698571D01*
X104659047Y-122784285D01*
X104420952Y-122784285D01*
X105420952Y-122784285D02*
X105420952Y-120984285D01*
X105420952Y-121841428D02*
X105992380Y-121841428D01*
X105992380Y-122784285D02*
X105992380Y-120984285D01*
X106325714Y-120984285D02*
X106897142Y-120984285D01*
X106611428Y-122784285D02*
X106611428Y-120984285D01*
X107182857Y-121155714D02*
X107230476Y-121070000D01*
X107325714Y-120984285D01*
X107563809Y-120984285D01*
X107659047Y-121070000D01*
X107706666Y-121155714D01*
X107754285Y-121327142D01*
X107754285Y-121498571D01*
X107706666Y-121755714D01*
X107135238Y-122784285D01*
X107754285Y-122784285D01*
X108135238Y-121155714D02*
X108182857Y-121070000D01*
X108278095Y-120984285D01*
X108516190Y-120984285D01*
X108611428Y-121070000D01*
X108659047Y-121155714D01*
X108706666Y-121327142D01*
X108706666Y-121498571D01*
X108659047Y-121755714D01*
X108087619Y-122784285D01*
X108706666Y-122784285D01*
D13*
X90000000Y-90000000D02*
X90000000Y-140000000D01*
X190000000Y-90000000D02*
X90000000Y-90000000D01*
X190000000Y-140000000D02*
X190000000Y-90000000D01*
X90000000Y-140000000D02*
X190000000Y-140000000D01*
D14*
X103320000Y-136950000D02*
X105320000Y-136950000D01*
X103320000Y-134710000D02*
X103320000Y-136950000D01*
X110060000Y-133626000D02*
X109966000Y-133719000D01*
X112310000Y-131375000D02*
X112251000Y-131434000D01*
X110230000Y-133866000D02*
X110171000Y-133924000D01*
X112515000Y-131581000D02*
X112421000Y-131674000D01*
X113840000Y-128590000D02*
X113840000Y-136710000D01*
X103560000Y-128590000D02*
X103560000Y-136710000D01*
X103560000Y-136710000D02*
X113840000Y-136710000D01*
X103560000Y-128590000D02*
X113840000Y-128590000D01*
X103560000Y-130650000D02*
X113840000Y-130650000D01*
X103560000Y-134650000D02*
X113840000Y-134650000D01*
X112920000Y-132650000D02*
G75*
G03X112920000Y-132650000I-1680000J0D01*
G01*
X106189383Y-134330450D02*
G75*
G02X105371000Y-134134000I-29383J1680450D01*
G01*
X104676047Y-133439088D02*
G75*
G02X104676000Y-131861000I1483953J789088D01*
G01*
X105370912Y-131166047D02*
G75*
G02X106949000Y-131166000I789088J-1483953D01*
G01*
X107643953Y-131860912D02*
G75*
G02X107644000Y-133439000I-1483953J-789088D01*
G01*
X106948712Y-134133352D02*
G75*
G02X106160000Y-134330000I-788712J1483352D01*
G01*
X115450000Y-108480000D02*
X115450000Y-109250000D01*
X115450000Y-116560000D02*
X115450000Y-115790000D01*
X114080000Y-109250000D02*
X114080000Y-115790000D01*
X116820000Y-109250000D02*
X114080000Y-109250000D01*
X116820000Y-115790000D02*
X116820000Y-109250000D01*
X114080000Y-115790000D02*
X116820000Y-115790000D01*
X119070000Y-104276500D02*
X134430000Y-104280000D01*
X119070000Y-122180000D02*
X119070000Y-104276500D01*
X120400000Y-122180000D02*
X119070000Y-122180000D01*
X121670000Y-122180000D02*
X134430000Y-122180000D01*
X134430000Y-122180000D02*
X134430000Y-104280000D01*
X104470000Y-105253500D02*
X112153500Y-105253500D01*
X112153500Y-105253500D02*
X112153500Y-120303000D01*
X104470000Y-105253500D02*
X104470000Y-120303000D01*
X104470000Y-120303000D02*
X112153500Y-120303000D01*
X172800000Y-106070000D02*
X172800000Y-104570000D01*
X171550000Y-102070000D02*
X167050000Y-102070000D01*
X165800000Y-104570000D02*
X165800000Y-106070000D01*
X167050000Y-108570000D02*
X171550000Y-108570000D01*
X141880000Y-116370000D02*
X142650000Y-116370000D01*
X149960000Y-116370000D02*
X149190000Y-116370000D01*
X142650000Y-117740000D02*
X149190000Y-117740000D01*
X142650000Y-115000000D02*
X142650000Y-117740000D01*
X149190000Y-115000000D02*
X142650000Y-115000000D01*
X149190000Y-117740000D02*
X149190000Y-115000000D01*
X141880000Y-125590000D02*
X142650000Y-125590000D01*
X149960000Y-125590000D02*
X149190000Y-125590000D01*
X142650000Y-126960000D02*
X149190000Y-126960000D01*
X142650000Y-124220000D02*
X142650000Y-126960000D01*
X149190000Y-124220000D02*
X142650000Y-124220000D01*
X149190000Y-126960000D02*
X149190000Y-124220000D01*
X141880000Y-122480000D02*
X142650000Y-122480000D01*
X149960000Y-122480000D02*
X149190000Y-122480000D01*
X142650000Y-123850000D02*
X149190000Y-123850000D01*
X142650000Y-121110000D02*
X142650000Y-123850000D01*
X149190000Y-121110000D02*
X142650000Y-121110000D01*
X149190000Y-123850000D02*
X149190000Y-121110000D01*
X141880000Y-119380000D02*
X142650000Y-119380000D01*
X149960000Y-119380000D02*
X149190000Y-119380000D01*
X142650000Y-120750000D02*
X149190000Y-120750000D01*
X142650000Y-118010000D02*
X142650000Y-120750000D01*
X149190000Y-118010000D02*
X142650000Y-118010000D01*
X149190000Y-120750000D02*
X149190000Y-118010000D01*
X156260000Y-103775000D02*
X156260000Y-106865000D01*
X161320000Y-105320000D02*
G75*
G03X161320000Y-105320000I-2500000J0D01*
G01*
X161810000Y-105319538D02*
G75*
G02X156260000Y-106864830I-2990000J-462D01*
G01*
X161810000Y-105320462D02*
G75*
G03X156260000Y-103775170I-2990000J462D01*
G01*
X148310000Y-103775000D02*
X148310000Y-106865000D01*
X153370000Y-105320000D02*
G75*
G03X153370000Y-105320000I-2500000J0D01*
G01*
X153860000Y-105319538D02*
G75*
G02X148310000Y-106864830I-2990000J-462D01*
G01*
X153860000Y-105320462D02*
G75*
G03X148310000Y-103775170I-2990000J462D01*
G01*
X140510000Y-103775000D02*
X140510000Y-106865000D01*
X145570000Y-105320000D02*
G75*
G03X145570000Y-105320000I-2500000J0D01*
G01*
X146060000Y-105319538D02*
G75*
G02X140510000Y-106864830I-2990000J-462D01*
G01*
X146060000Y-105320462D02*
G75*
G03X140510000Y-103775170I-2990000J462D01*
G01*
X115290000Y-137795000D02*
X115290000Y-135255000D01*
X115290000Y-137795000D02*
X117830000Y-137795000D01*
X115540000Y-137545000D02*
X115540000Y-128195000D01*
X174500000Y-137545000D02*
X115540000Y-137545000D01*
X174500000Y-128195000D02*
X174500000Y-137545000D01*
X115540000Y-128195000D02*
X174500000Y-128195000D01*
D10*
X101506666Y-128512380D02*
X101506666Y-129226666D01*
X101459047Y-129369523D01*
X101363809Y-129464761D01*
X101220952Y-129512380D01*
X101125714Y-129512380D01*
X101887619Y-128512380D02*
X102554285Y-128512380D01*
X102125714Y-129512380D01*
X115303333Y-105902380D02*
X114970000Y-105426190D01*
X114731904Y-105902380D02*
X114731904Y-104902380D01*
X115112857Y-104902380D01*
X115208095Y-104950000D01*
X115255714Y-104997619D01*
X115303333Y-105092857D01*
X115303333Y-105235714D01*
X115255714Y-105330952D01*
X115208095Y-105378571D01*
X115112857Y-105426190D01*
X114731904Y-105426190D01*
X116208095Y-104902380D02*
X115731904Y-104902380D01*
X115684285Y-105378571D01*
X115731904Y-105330952D01*
X115827142Y-105283333D01*
X116065238Y-105283333D01*
X116160476Y-105330952D01*
X116208095Y-105378571D01*
X116255714Y-105473809D01*
X116255714Y-105711904D01*
X116208095Y-105807142D01*
X116160476Y-105854761D01*
X116065238Y-105902380D01*
X115827142Y-105902380D01*
X115731904Y-105854761D01*
X115684285Y-105807142D01*
X117522380Y-121611904D02*
X118331904Y-121611904D01*
X118427142Y-121564285D01*
X118474761Y-121516666D01*
X118522380Y-121421428D01*
X118522380Y-121230952D01*
X118474761Y-121135714D01*
X118427142Y-121088095D01*
X118331904Y-121040476D01*
X117522380Y-121040476D01*
X117617619Y-120611904D02*
X117570000Y-120564285D01*
X117522380Y-120469047D01*
X117522380Y-120230952D01*
X117570000Y-120135714D01*
X117617619Y-120088095D01*
X117712857Y-120040476D01*
X117808095Y-120040476D01*
X117950952Y-120088095D01*
X118522380Y-120659523D01*
X118522380Y-120040476D01*
X110648095Y-103712380D02*
X110648095Y-104521904D01*
X110695714Y-104617142D01*
X110743333Y-104664761D01*
X110838571Y-104712380D01*
X111029047Y-104712380D01*
X111124285Y-104664761D01*
X111171904Y-104617142D01*
X111219523Y-104521904D01*
X111219523Y-103712380D01*
X112219523Y-104712380D02*
X111648095Y-104712380D01*
X111933809Y-104712380D02*
X111933809Y-103712380D01*
X111838571Y-103855238D01*
X111743333Y-103950476D01*
X111648095Y-103998095D01*
X167966666Y-101474761D02*
X168109523Y-101522380D01*
X168347619Y-101522380D01*
X168442857Y-101474761D01*
X168490476Y-101427142D01*
X168538095Y-101331904D01*
X168538095Y-101236666D01*
X168490476Y-101141428D01*
X168442857Y-101093809D01*
X168347619Y-101046190D01*
X168157142Y-100998571D01*
X168061904Y-100950952D01*
X168014285Y-100903333D01*
X167966666Y-100808095D01*
X167966666Y-100712857D01*
X168014285Y-100617619D01*
X168061904Y-100570000D01*
X168157142Y-100522380D01*
X168395238Y-100522380D01*
X168538095Y-100570000D01*
X168871428Y-100522380D02*
X169109523Y-101522380D01*
X169300000Y-100808095D01*
X169490476Y-101522380D01*
X169728571Y-100522380D01*
X170633333Y-101522380D02*
X170061904Y-101522380D01*
X170347619Y-101522380D02*
X170347619Y-100522380D01*
X170252380Y-100665238D01*
X170157142Y-100760476D01*
X170061904Y-100808095D01*
X153453333Y-116842380D02*
X153120000Y-116366190D01*
X152881904Y-116842380D02*
X152881904Y-115842380D01*
X153262857Y-115842380D01*
X153358095Y-115890000D01*
X153405714Y-115937619D01*
X153453333Y-116032857D01*
X153453333Y-116175714D01*
X153405714Y-116270952D01*
X153358095Y-116318571D01*
X153262857Y-116366190D01*
X152881904Y-116366190D01*
X154310476Y-116175714D02*
X154310476Y-116842380D01*
X154072380Y-115794761D02*
X153834285Y-116509047D01*
X154453333Y-116509047D01*
X153373333Y-126132380D02*
X153040000Y-125656190D01*
X152801904Y-126132380D02*
X152801904Y-125132380D01*
X153182857Y-125132380D01*
X153278095Y-125180000D01*
X153325714Y-125227619D01*
X153373333Y-125322857D01*
X153373333Y-125465714D01*
X153325714Y-125560952D01*
X153278095Y-125608571D01*
X153182857Y-125656190D01*
X152801904Y-125656190D01*
X153706666Y-125132380D02*
X154325714Y-125132380D01*
X153992380Y-125513333D01*
X154135238Y-125513333D01*
X154230476Y-125560952D01*
X154278095Y-125608571D01*
X154325714Y-125703809D01*
X154325714Y-125941904D01*
X154278095Y-126037142D01*
X154230476Y-126084761D01*
X154135238Y-126132380D01*
X153849523Y-126132380D01*
X153754285Y-126084761D01*
X153706666Y-126037142D01*
X153573333Y-123082380D02*
X153240000Y-122606190D01*
X153001904Y-123082380D02*
X153001904Y-122082380D01*
X153382857Y-122082380D01*
X153478095Y-122130000D01*
X153525714Y-122177619D01*
X153573333Y-122272857D01*
X153573333Y-122415714D01*
X153525714Y-122510952D01*
X153478095Y-122558571D01*
X153382857Y-122606190D01*
X153001904Y-122606190D01*
X153954285Y-122177619D02*
X154001904Y-122130000D01*
X154097142Y-122082380D01*
X154335238Y-122082380D01*
X154430476Y-122130000D01*
X154478095Y-122177619D01*
X154525714Y-122272857D01*
X154525714Y-122368095D01*
X154478095Y-122510952D01*
X153906666Y-123082380D01*
X154525714Y-123082380D01*
X153533333Y-119862380D02*
X153200000Y-119386190D01*
X152961904Y-119862380D02*
X152961904Y-118862380D01*
X153342857Y-118862380D01*
X153438095Y-118910000D01*
X153485714Y-118957619D01*
X153533333Y-119052857D01*
X153533333Y-119195714D01*
X153485714Y-119290952D01*
X153438095Y-119338571D01*
X153342857Y-119386190D01*
X152961904Y-119386190D01*
X154485714Y-119862380D02*
X153914285Y-119862380D01*
X154200000Y-119862380D02*
X154200000Y-118862380D01*
X154104761Y-119005238D01*
X154009523Y-119100476D01*
X153914285Y-119148095D01*
X158081904Y-101812380D02*
X158081904Y-100812380D01*
X158320000Y-100812380D01*
X158462857Y-100860000D01*
X158558095Y-100955238D01*
X158605714Y-101050476D01*
X158653333Y-101240952D01*
X158653333Y-101383809D01*
X158605714Y-101574285D01*
X158558095Y-101669523D01*
X158462857Y-101764761D01*
X158320000Y-101812380D01*
X158081904Y-101812380D01*
X158986666Y-100812380D02*
X159605714Y-100812380D01*
X159272380Y-101193333D01*
X159415238Y-101193333D01*
X159510476Y-101240952D01*
X159558095Y-101288571D01*
X159605714Y-101383809D01*
X159605714Y-101621904D01*
X159558095Y-101717142D01*
X159510476Y-101764761D01*
X159415238Y-101812380D01*
X159129523Y-101812380D01*
X159034285Y-101764761D01*
X158986666Y-101717142D01*
X150131904Y-101812380D02*
X150131904Y-100812380D01*
X150370000Y-100812380D01*
X150512857Y-100860000D01*
X150608095Y-100955238D01*
X150655714Y-101050476D01*
X150703333Y-101240952D01*
X150703333Y-101383809D01*
X150655714Y-101574285D01*
X150608095Y-101669523D01*
X150512857Y-101764761D01*
X150370000Y-101812380D01*
X150131904Y-101812380D01*
X151084285Y-100907619D02*
X151131904Y-100860000D01*
X151227142Y-100812380D01*
X151465238Y-100812380D01*
X151560476Y-100860000D01*
X151608095Y-100907619D01*
X151655714Y-101002857D01*
X151655714Y-101098095D01*
X151608095Y-101240952D01*
X151036666Y-101812380D01*
X151655714Y-101812380D01*
X142331904Y-101812380D02*
X142331904Y-100812380D01*
X142570000Y-100812380D01*
X142712857Y-100860000D01*
X142808095Y-100955238D01*
X142855714Y-101050476D01*
X142903333Y-101240952D01*
X142903333Y-101383809D01*
X142855714Y-101574285D01*
X142808095Y-101669523D01*
X142712857Y-101764761D01*
X142570000Y-101812380D01*
X142331904Y-101812380D01*
X143855714Y-101812380D02*
X143284285Y-101812380D01*
X143570000Y-101812380D02*
X143570000Y-100812380D01*
X143474761Y-100955238D01*
X143379523Y-101050476D01*
X143284285Y-101098095D01*
X116186666Y-126762380D02*
X116186666Y-127476666D01*
X116139047Y-127619523D01*
X116043809Y-127714761D01*
X115900952Y-127762380D01*
X115805714Y-127762380D01*
X117186666Y-127762380D02*
X116615238Y-127762380D01*
X116900952Y-127762380D02*
X116900952Y-126762380D01*
X116805714Y-126905238D01*
X116710476Y-127000476D01*
X116615238Y-127048095D01*
M02*
