M48
; DRILL file {KiCad (5.1.2)-1} date 30/07/2019 19:11:15
; FORMAT={-:-/ absolute / inch / decimal}
; #@! TF.CreationDate,2019-07-30T19:11:15+02:00
; #@! TF.GenerationSoftware,Kicad,Pcbnew,(5.1.2)-1
FMAT,2
INCH
T1C0.0157
T2C0.0315
T3C0.0354
T4C0.0394
T5C0.0400
T6C0.0433
T7C0.0512
T8C0.1260
%
G90
G05
T1
X5.6618Y-5.088
X5.976Y-5.0598
T2
X4.5453Y-4.2299
X4.5453Y-4.6299
X5.5449Y-4.822
X5.9449Y-4.822
X5.5449Y-4.5815
X5.9449Y-4.5815
X5.5449Y-4.7
X5.9449Y-4.7
X5.5449Y-4.9445
X5.9449Y-4.9445
T3
X5.8898Y-4.1465
X5.9898Y-4.1465
X6.2028Y-4.1465
X6.3028Y-4.1465
X5.5827Y-4.1465
X5.6827Y-4.1465
T4
X4.3602Y-3.7795
X4.4602Y-3.7795
X5.6047Y-3.7795
X5.7047Y-3.7795
X5.8047Y-3.7795
X5.9047Y-3.7795
X6.0047Y-3.7795
X6.1047Y-3.7795
X6.2047Y-3.7795
X6.3047Y-3.7795
X6.4823Y-3.7795
X6.5823Y-3.7795
X6.6823Y-3.7795
X4.7402Y-4.1579
X4.7402Y-4.7579
X4.8402Y-4.1579
X4.8402Y-4.7579
X4.9402Y-4.1579
X4.9402Y-4.7579
X5.0402Y-4.1579
X5.0402Y-4.7579
X5.1402Y-4.1579
X5.1402Y-4.7579
X5.2402Y-4.1579
X5.2402Y-4.7579
X4.313Y-4.2913
X4.313Y-4.3913
X4.313Y-4.4913
X4.313Y-4.5913
X4.6583Y-3.7795
X4.7583Y-3.7795
X4.8583Y-3.7795
X4.9583Y-3.7795
X5.1327Y-3.7795
X5.2327Y-3.7795
X5.3327Y-3.7795
X5.4327Y-3.7795
T5
X4.7594Y-5.1811
X4.7594Y-5.2811
X4.8594Y-5.1811
X4.8594Y-5.2811
X4.9594Y-5.1811
X4.9594Y-5.2811
X5.0594Y-5.1811
X5.0594Y-5.2811
X5.1594Y-5.1811
X5.1594Y-5.2811
X5.2594Y-5.1811
X5.2594Y-5.2811
X5.3594Y-5.1811
X5.3594Y-5.2811
X5.4594Y-5.1811
X5.4594Y-5.2811
X5.5594Y-5.1811
X5.5594Y-5.2811
X5.6594Y-5.1811
X5.6594Y-5.2811
X5.7594Y-5.1811
X5.7594Y-5.2811
X5.8594Y-5.1811
X5.8594Y-5.2811
X5.9594Y-5.1811
X5.9594Y-5.2811
X6.0594Y-5.1811
X6.0594Y-5.2811
X6.1594Y-5.1811
X6.1594Y-5.2811
X6.2594Y-5.1811
X6.2594Y-5.2811
X6.3594Y-5.1811
X6.3594Y-5.2811
X6.4594Y-5.1811
X6.4594Y-5.2811
X6.5594Y-5.1811
X6.5594Y-5.2811
X6.6594Y-5.1811
X6.6594Y-5.2811
T6
X6.5374Y-4.0579
X6.5374Y-4.235
X6.7933Y-4.0579
X6.7933Y-4.235
T7
X4.1795Y-5.2224
X4.3795Y-5.2224
T8
X3.7795Y-3.7795
X7.1654Y-3.7795
X7.2441Y-5.2756
X3.7795Y-5.2756
T0
M30
