%TF.GenerationSoftware,KiCad,Pcbnew,(5.1.2)-1*%
%TF.CreationDate,2019-07-30T19:12:15+02:00*%
%TF.ProjectId,F_rderband,46f67264-6572-4626-916e-642e6b696361,rev?*%
%TF.SameCoordinates,Original*%
%TF.FileFunction,Copper,L2,Bot*%
%TF.FilePolarity,Positive*%
%FSLAX46Y46*%
G04 Gerber Fmt 4.6, Leading zero omitted, Abs format (unit mm)*
G04 Created by KiCad (PCBNEW (5.1.2)-1) date 2019-07-30 19:12:15*
%MOMM*%
%LPD*%
G04 APERTURE LIST*
%ADD10C,0.050000*%
%ADD11C,2.500000*%
%ADD12R,2.500000X2.500000*%
%ADD13O,1.700000X1.700000*%
%ADD14R,1.700000X1.700000*%
%ADD15O,1.600000X1.600000*%
%ADD16C,1.600000*%
%ADD17C,1.700000*%
%ADD18C,2.000000*%
%ADD19C,1.800000*%
%ADD20R,1.800000X1.800000*%
%ADD21O,1.727200X1.727200*%
%ADD22R,1.727200X1.727200*%
%ADD23C,0.800000*%
%ADD24C,0.250000*%
%ADD25C,0.500000*%
%ADD26C,1.000000*%
%ADD27C,0.254000*%
G04 APERTURE END LIST*
D10*
X90000000Y-90000000D02*
X90000000Y-140000000D01*
X190000000Y-90000000D02*
X90000000Y-90000000D01*
X190000000Y-140000000D02*
X190000000Y-90000000D01*
X90000000Y-140000000D02*
X190000000Y-140000000D01*
D11*
X111240000Y-132650000D03*
D12*
X106160000Y-132650000D03*
D13*
X130370000Y-96000000D03*
X132910000Y-96000000D03*
X135450000Y-96000000D03*
D14*
X137990000Y-96000000D03*
D13*
X118320000Y-96000000D03*
X120860000Y-96000000D03*
X123400000Y-96000000D03*
D14*
X125940000Y-96000000D03*
D15*
X115450000Y-107440000D03*
D16*
X115450000Y-117600000D03*
D13*
X133100000Y-105610000D03*
X130560000Y-105610000D03*
X128020000Y-105610000D03*
X125480000Y-105610000D03*
X122940000Y-105610000D03*
D17*
X120400000Y-105610000D03*
D13*
X133100000Y-120850000D03*
X130560000Y-120850000D03*
X128020000Y-120850000D03*
X125480000Y-120850000D03*
X122940000Y-120850000D03*
D14*
X120400000Y-120850000D03*
D13*
X109550000Y-116620000D03*
X109550000Y-114080000D03*
X109550000Y-111540000D03*
D14*
X109550000Y-109000000D03*
D18*
X172550000Y-103070000D03*
X172550000Y-107570000D03*
X166050000Y-103070000D03*
X166050000Y-107570000D03*
D15*
X140840000Y-116370000D03*
D16*
X151000000Y-116370000D03*
D15*
X140840000Y-125590000D03*
D16*
X151000000Y-125590000D03*
D15*
X140840000Y-122480000D03*
D16*
X151000000Y-122480000D03*
D15*
X140840000Y-119380000D03*
D16*
X151000000Y-119380000D03*
D13*
X164650000Y-96000000D03*
X167190000Y-96000000D03*
D14*
X169730000Y-96000000D03*
D13*
X142360000Y-96000000D03*
X144900000Y-96000000D03*
X147440000Y-96000000D03*
X149980000Y-96000000D03*
X152520000Y-96000000D03*
X155060000Y-96000000D03*
X157600000Y-96000000D03*
D14*
X160140000Y-96000000D03*
D13*
X110750000Y-96000000D03*
D14*
X113290000Y-96000000D03*
D19*
X160090000Y-105320000D03*
D20*
X157550000Y-105320000D03*
D19*
X152140000Y-105320000D03*
D20*
X149600000Y-105320000D03*
D19*
X144340000Y-105320000D03*
D20*
X141800000Y-105320000D03*
D21*
X169150000Y-131600000D03*
X169150000Y-134140000D03*
X166610000Y-131600000D03*
X166610000Y-134140000D03*
X164070000Y-131600000D03*
X164070000Y-134140000D03*
X161530000Y-131600000D03*
X161530000Y-134140000D03*
X158990000Y-131600000D03*
X158990000Y-134140000D03*
X156450000Y-131600000D03*
X156450000Y-134140000D03*
X153910000Y-131600000D03*
X153910000Y-134140000D03*
X151370000Y-131600000D03*
X151370000Y-134140000D03*
X148830000Y-131600000D03*
X148830000Y-134140000D03*
X146290000Y-131600000D03*
X146290000Y-134140000D03*
X143750000Y-131600000D03*
X143750000Y-134140000D03*
X141210000Y-131600000D03*
X141210000Y-134140000D03*
X138670000Y-131600000D03*
X138670000Y-134140000D03*
X136130000Y-131600000D03*
X136130000Y-134140000D03*
X133590000Y-131600000D03*
X133590000Y-134140000D03*
X131050000Y-131600000D03*
X131050000Y-134140000D03*
X128510000Y-131600000D03*
X128510000Y-134140000D03*
X125970000Y-131600000D03*
X125970000Y-134140000D03*
X123430000Y-131600000D03*
X123430000Y-134140000D03*
X120890000Y-131600000D03*
D22*
X120890000Y-134140000D03*
D23*
X151790000Y-128520000D03*
X143810000Y-129236386D03*
D24*
X144340000Y-115880000D02*
X140840000Y-119380000D01*
X144340000Y-105320000D02*
X144340000Y-115880000D01*
X152140000Y-105320000D02*
X144919989Y-112540011D01*
X144919989Y-112540011D02*
X144919989Y-118400011D01*
X141639999Y-121680001D02*
X140840000Y-122480000D01*
X144919989Y-118400011D02*
X141639999Y-121680001D01*
X140840000Y-125590000D02*
X145370000Y-121060000D01*
X145370000Y-121060000D02*
X145370000Y-114530000D01*
X145370000Y-114530000D02*
X152160000Y-107740000D01*
X157670000Y-107740000D02*
X160090000Y-105320000D01*
X152160000Y-107740000D02*
X157670000Y-107740000D01*
X142150000Y-129530000D02*
X144650000Y-127030000D01*
X144650000Y-127030000D02*
X151225002Y-127030000D01*
D25*
X142150000Y-130000000D02*
X142150000Y-129910000D01*
X143750000Y-131600000D02*
X142150000Y-130000000D01*
D24*
X142150000Y-129910000D02*
X142150000Y-129530000D01*
X170860000Y-109260000D02*
X162070000Y-109260000D01*
X170860000Y-109260000D02*
X172550000Y-107570000D01*
X152952501Y-118377499D02*
X152952501Y-125302501D01*
X162070000Y-109260000D02*
X152952501Y-118377499D01*
X151225002Y-127030000D02*
X152952501Y-125302501D01*
X140021399Y-132951399D02*
X140021399Y-130048601D01*
X141210000Y-134140000D02*
X140021399Y-132951399D01*
X144480000Y-125590000D02*
X151000000Y-125590000D01*
X140021399Y-130048601D02*
X144480000Y-125590000D01*
D26*
X119026400Y-134140000D02*
X112350000Y-127463600D01*
X120890000Y-134140000D02*
X119026400Y-134140000D01*
X112350000Y-110540000D02*
X115450000Y-107440000D01*
X112350000Y-127463600D02*
X112350000Y-110540000D01*
X115450000Y-98870000D02*
X118320000Y-96000000D01*
X115450000Y-107440000D02*
X115450000Y-98870000D01*
X113890000Y-109000000D02*
X115450000Y-107440000D01*
X109550000Y-109000000D02*
X113890000Y-109000000D01*
D24*
X148830000Y-131480000D02*
X148830000Y-131600000D01*
X151790000Y-128520000D02*
X148830000Y-131480000D01*
X144938601Y-132951399D02*
X144938601Y-130364987D01*
X143750000Y-134140000D02*
X144938601Y-132951399D01*
X144209999Y-129636385D02*
X143810000Y-129236386D01*
X144938601Y-130364987D02*
X144209999Y-129636385D01*
X152750000Y-116370000D02*
X166050000Y-103070000D01*
X151000000Y-116370000D02*
X152750000Y-116370000D01*
X137481399Y-132951399D02*
X137481399Y-130968601D01*
X138670000Y-134140000D02*
X137481399Y-132951399D01*
X137481399Y-130968601D02*
X146190000Y-122260000D01*
X146190000Y-121180000D02*
X151000000Y-116370000D01*
X146190000Y-122260000D02*
X146190000Y-121180000D01*
X166050000Y-103070000D02*
X172550000Y-103070000D01*
D27*
G36*
X189340000Y-139340000D02*
G01*
X90660000Y-139340000D01*
X90660000Y-133779872D01*
X93765000Y-133779872D01*
X93765000Y-134220128D01*
X93850890Y-134651925D01*
X94019369Y-135058669D01*
X94263962Y-135424729D01*
X94575271Y-135736038D01*
X94941331Y-135980631D01*
X95348075Y-136149110D01*
X95779872Y-136235000D01*
X96220128Y-136235000D01*
X96651925Y-136149110D01*
X97058669Y-135980631D01*
X97424729Y-135736038D01*
X97736038Y-135424729D01*
X97980631Y-135058669D01*
X98149110Y-134651925D01*
X98235000Y-134220128D01*
X98235000Y-133900000D01*
X104271928Y-133900000D01*
X104284188Y-134024482D01*
X104320498Y-134144180D01*
X104379463Y-134254494D01*
X104458815Y-134351185D01*
X104555506Y-134430537D01*
X104665820Y-134489502D01*
X104785518Y-134525812D01*
X104910000Y-134538072D01*
X105874250Y-134535000D01*
X106033000Y-134376250D01*
X106033000Y-132777000D01*
X106287000Y-132777000D01*
X106287000Y-134376250D01*
X106445750Y-134535000D01*
X107410000Y-134538072D01*
X107534482Y-134525812D01*
X107654180Y-134489502D01*
X107764494Y-134430537D01*
X107861185Y-134351185D01*
X107940537Y-134254494D01*
X107999502Y-134144180D01*
X108035812Y-134024482D01*
X108048072Y-133900000D01*
X108045000Y-132935750D01*
X107886250Y-132777000D01*
X106287000Y-132777000D01*
X106033000Y-132777000D01*
X104433750Y-132777000D01*
X104275000Y-132935750D01*
X104271928Y-133900000D01*
X98235000Y-133900000D01*
X98235000Y-133779872D01*
X98149110Y-133348075D01*
X97980631Y-132941331D01*
X97736038Y-132575271D01*
X97424729Y-132263962D01*
X97058669Y-132019369D01*
X96651925Y-131850890D01*
X96220128Y-131765000D01*
X95779872Y-131765000D01*
X95348075Y-131850890D01*
X94941331Y-132019369D01*
X94575271Y-132263962D01*
X94263962Y-132575271D01*
X94019369Y-132941331D01*
X93850890Y-133348075D01*
X93765000Y-133779872D01*
X90660000Y-133779872D01*
X90660000Y-131400000D01*
X104271928Y-131400000D01*
X104275000Y-132364250D01*
X104433750Y-132523000D01*
X106033000Y-132523000D01*
X106033000Y-130923750D01*
X106287000Y-130923750D01*
X106287000Y-132523000D01*
X107886250Y-132523000D01*
X107944906Y-132464344D01*
X109355000Y-132464344D01*
X109355000Y-132835656D01*
X109427439Y-133199834D01*
X109569534Y-133542882D01*
X109775825Y-133851618D01*
X110038382Y-134114175D01*
X110347118Y-134320466D01*
X110690166Y-134462561D01*
X111054344Y-134535000D01*
X111425656Y-134535000D01*
X111789834Y-134462561D01*
X112132882Y-134320466D01*
X112441618Y-134114175D01*
X112704175Y-133851618D01*
X112910466Y-133542882D01*
X113052561Y-133199834D01*
X113125000Y-132835656D01*
X113125000Y-132464344D01*
X113052561Y-132100166D01*
X112910466Y-131757118D01*
X112704175Y-131448382D01*
X112441618Y-131185825D01*
X112132882Y-130979534D01*
X111789834Y-130837439D01*
X111425656Y-130765000D01*
X111054344Y-130765000D01*
X110690166Y-130837439D01*
X110347118Y-130979534D01*
X110038382Y-131185825D01*
X109775825Y-131448382D01*
X109569534Y-131757118D01*
X109427439Y-132100166D01*
X109355000Y-132464344D01*
X107944906Y-132464344D01*
X108045000Y-132364250D01*
X108048072Y-131400000D01*
X108035812Y-131275518D01*
X107999502Y-131155820D01*
X107940537Y-131045506D01*
X107861185Y-130948815D01*
X107764494Y-130869463D01*
X107654180Y-130810498D01*
X107534482Y-130774188D01*
X107410000Y-130761928D01*
X106445750Y-130765000D01*
X106287000Y-130923750D01*
X106033000Y-130923750D01*
X105874250Y-130765000D01*
X104910000Y-130761928D01*
X104785518Y-130774188D01*
X104665820Y-130810498D01*
X104555506Y-130869463D01*
X104458815Y-130948815D01*
X104379463Y-131045506D01*
X104320498Y-131155820D01*
X104284188Y-131275518D01*
X104271928Y-131400000D01*
X90660000Y-131400000D01*
X90660000Y-116976890D01*
X108108524Y-116976890D01*
X108153175Y-117124099D01*
X108278359Y-117386920D01*
X108452412Y-117620269D01*
X108668645Y-117815178D01*
X108918748Y-117964157D01*
X109193109Y-118061481D01*
X109423000Y-117940814D01*
X109423000Y-116747000D01*
X109677000Y-116747000D01*
X109677000Y-117940814D01*
X109906891Y-118061481D01*
X110181252Y-117964157D01*
X110431355Y-117815178D01*
X110647588Y-117620269D01*
X110821641Y-117386920D01*
X110946825Y-117124099D01*
X110991476Y-116976890D01*
X110870155Y-116747000D01*
X109677000Y-116747000D01*
X109423000Y-116747000D01*
X108229845Y-116747000D01*
X108108524Y-116976890D01*
X90660000Y-116976890D01*
X90660000Y-111540000D01*
X108057815Y-111540000D01*
X108086487Y-111831111D01*
X108171401Y-112111034D01*
X108309294Y-112369014D01*
X108494866Y-112595134D01*
X108720986Y-112780706D01*
X108775791Y-112810000D01*
X108720986Y-112839294D01*
X108494866Y-113024866D01*
X108309294Y-113250986D01*
X108171401Y-113508966D01*
X108086487Y-113788889D01*
X108057815Y-114080000D01*
X108086487Y-114371111D01*
X108171401Y-114651034D01*
X108309294Y-114909014D01*
X108494866Y-115135134D01*
X108720986Y-115320706D01*
X108785523Y-115355201D01*
X108668645Y-115424822D01*
X108452412Y-115619731D01*
X108278359Y-115853080D01*
X108153175Y-116115901D01*
X108108524Y-116263110D01*
X108229845Y-116493000D01*
X109423000Y-116493000D01*
X109423000Y-116473000D01*
X109677000Y-116473000D01*
X109677000Y-116493000D01*
X110870155Y-116493000D01*
X110991476Y-116263110D01*
X110946825Y-116115901D01*
X110821641Y-115853080D01*
X110647588Y-115619731D01*
X110431355Y-115424822D01*
X110314477Y-115355201D01*
X110379014Y-115320706D01*
X110605134Y-115135134D01*
X110790706Y-114909014D01*
X110928599Y-114651034D01*
X111013513Y-114371111D01*
X111042185Y-114080000D01*
X111013513Y-113788889D01*
X110928599Y-113508966D01*
X110790706Y-113250986D01*
X110605134Y-113024866D01*
X110379014Y-112839294D01*
X110324209Y-112810000D01*
X110379014Y-112780706D01*
X110605134Y-112595134D01*
X110790706Y-112369014D01*
X110928599Y-112111034D01*
X111013513Y-111831111D01*
X111042185Y-111540000D01*
X111013513Y-111248889D01*
X110928599Y-110968966D01*
X110790706Y-110710986D01*
X110605134Y-110484866D01*
X110575313Y-110460393D01*
X110644180Y-110439502D01*
X110754494Y-110380537D01*
X110851185Y-110301185D01*
X110930537Y-110204494D01*
X110967683Y-110135000D01*
X111286785Y-110135000D01*
X111231423Y-110317502D01*
X111209509Y-110540000D01*
X111215001Y-110595762D01*
X111215000Y-127407849D01*
X111209509Y-127463600D01*
X111215000Y-127519351D01*
X111231423Y-127686098D01*
X111296324Y-127900046D01*
X111401716Y-128097223D01*
X111543551Y-128270049D01*
X111586865Y-128305596D01*
X118184409Y-134903141D01*
X118219951Y-134946449D01*
X118392777Y-135088284D01*
X118589953Y-135193676D01*
X118803901Y-135258577D01*
X118970648Y-135275000D01*
X118970657Y-135275000D01*
X119026399Y-135280490D01*
X119082141Y-135275000D01*
X119451448Y-135275000D01*
X119495863Y-135358094D01*
X119575215Y-135454785D01*
X119671906Y-135534137D01*
X119782220Y-135593102D01*
X119901918Y-135629412D01*
X120026400Y-135641672D01*
X121753600Y-135641672D01*
X121878082Y-135629412D01*
X121997780Y-135593102D01*
X122108094Y-135534137D01*
X122204785Y-135454785D01*
X122284137Y-135358094D01*
X122343102Y-135247780D01*
X122358586Y-135196735D01*
X122365203Y-135204797D01*
X122593394Y-135392069D01*
X122853736Y-135531225D01*
X123136223Y-135616916D01*
X123356381Y-135638600D01*
X123503619Y-135638600D01*
X123723777Y-135616916D01*
X124006264Y-135531225D01*
X124266606Y-135392069D01*
X124494797Y-135204797D01*
X124682069Y-134976606D01*
X124700000Y-134943060D01*
X124717931Y-134976606D01*
X124905203Y-135204797D01*
X125133394Y-135392069D01*
X125393736Y-135531225D01*
X125676223Y-135616916D01*
X125896381Y-135638600D01*
X126043619Y-135638600D01*
X126263777Y-135616916D01*
X126546264Y-135531225D01*
X126806606Y-135392069D01*
X127034797Y-135204797D01*
X127222069Y-134976606D01*
X127240000Y-134943060D01*
X127257931Y-134976606D01*
X127445203Y-135204797D01*
X127673394Y-135392069D01*
X127933736Y-135531225D01*
X128216223Y-135616916D01*
X128436381Y-135638600D01*
X128583619Y-135638600D01*
X128803777Y-135616916D01*
X129086264Y-135531225D01*
X129346606Y-135392069D01*
X129574797Y-135204797D01*
X129762069Y-134976606D01*
X129785863Y-134932090D01*
X129843183Y-135028488D01*
X130039707Y-135246854D01*
X130275056Y-135422684D01*
X130540186Y-135549222D01*
X130690974Y-135594958D01*
X130923000Y-135473817D01*
X130923000Y-134267000D01*
X130903000Y-134267000D01*
X130903000Y-134013000D01*
X130923000Y-134013000D01*
X130923000Y-133993000D01*
X131177000Y-133993000D01*
X131177000Y-134013000D01*
X131197000Y-134013000D01*
X131197000Y-134267000D01*
X131177000Y-134267000D01*
X131177000Y-135473817D01*
X131409026Y-135594958D01*
X131559814Y-135549222D01*
X131824944Y-135422684D01*
X132060293Y-135246854D01*
X132256817Y-135028488D01*
X132314137Y-134932090D01*
X132337931Y-134976606D01*
X132525203Y-135204797D01*
X132753394Y-135392069D01*
X133013736Y-135531225D01*
X133296223Y-135616916D01*
X133516381Y-135638600D01*
X133663619Y-135638600D01*
X133883777Y-135616916D01*
X134166264Y-135531225D01*
X134426606Y-135392069D01*
X134654797Y-135204797D01*
X134842069Y-134976606D01*
X134860000Y-134943060D01*
X134877931Y-134976606D01*
X135065203Y-135204797D01*
X135293394Y-135392069D01*
X135553736Y-135531225D01*
X135836223Y-135616916D01*
X136056381Y-135638600D01*
X136203619Y-135638600D01*
X136423777Y-135616916D01*
X136706264Y-135531225D01*
X136966606Y-135392069D01*
X137194797Y-135204797D01*
X137382069Y-134976606D01*
X137400000Y-134943060D01*
X137417931Y-134976606D01*
X137605203Y-135204797D01*
X137833394Y-135392069D01*
X138093736Y-135531225D01*
X138376223Y-135616916D01*
X138596381Y-135638600D01*
X138743619Y-135638600D01*
X138963777Y-135616916D01*
X139246264Y-135531225D01*
X139506606Y-135392069D01*
X139734797Y-135204797D01*
X139922069Y-134976606D01*
X139940000Y-134943060D01*
X139957931Y-134976606D01*
X140145203Y-135204797D01*
X140373394Y-135392069D01*
X140633736Y-135531225D01*
X140916223Y-135616916D01*
X141136381Y-135638600D01*
X141283619Y-135638600D01*
X141503777Y-135616916D01*
X141786264Y-135531225D01*
X142046606Y-135392069D01*
X142274797Y-135204797D01*
X142462069Y-134976606D01*
X142480000Y-134943060D01*
X142497931Y-134976606D01*
X142685203Y-135204797D01*
X142913394Y-135392069D01*
X143173736Y-135531225D01*
X143456223Y-135616916D01*
X143676381Y-135638600D01*
X143823619Y-135638600D01*
X144043777Y-135616916D01*
X144326264Y-135531225D01*
X144586606Y-135392069D01*
X144814797Y-135204797D01*
X145002069Y-134976606D01*
X145020000Y-134943060D01*
X145037931Y-134976606D01*
X145225203Y-135204797D01*
X145453394Y-135392069D01*
X145713736Y-135531225D01*
X145996223Y-135616916D01*
X146216381Y-135638600D01*
X146363619Y-135638600D01*
X146583777Y-135616916D01*
X146866264Y-135531225D01*
X147126606Y-135392069D01*
X147354797Y-135204797D01*
X147542069Y-134976606D01*
X147560000Y-134943060D01*
X147577931Y-134976606D01*
X147765203Y-135204797D01*
X147993394Y-135392069D01*
X148253736Y-135531225D01*
X148536223Y-135616916D01*
X148756381Y-135638600D01*
X148903619Y-135638600D01*
X149123777Y-135616916D01*
X149406264Y-135531225D01*
X149666606Y-135392069D01*
X149894797Y-135204797D01*
X150082069Y-134976606D01*
X150105863Y-134932090D01*
X150163183Y-135028488D01*
X150359707Y-135246854D01*
X150595056Y-135422684D01*
X150860186Y-135549222D01*
X151010974Y-135594958D01*
X151243000Y-135473817D01*
X151243000Y-134267000D01*
X151223000Y-134267000D01*
X151223000Y-134013000D01*
X151243000Y-134013000D01*
X151243000Y-133993000D01*
X151497000Y-133993000D01*
X151497000Y-134013000D01*
X151517000Y-134013000D01*
X151517000Y-134267000D01*
X151497000Y-134267000D01*
X151497000Y-135473817D01*
X151729026Y-135594958D01*
X151879814Y-135549222D01*
X152144944Y-135422684D01*
X152380293Y-135246854D01*
X152576817Y-135028488D01*
X152634137Y-134932090D01*
X152657931Y-134976606D01*
X152845203Y-135204797D01*
X153073394Y-135392069D01*
X153333736Y-135531225D01*
X153616223Y-135616916D01*
X153836381Y-135638600D01*
X153983619Y-135638600D01*
X154203777Y-135616916D01*
X154486264Y-135531225D01*
X154746606Y-135392069D01*
X154974797Y-135204797D01*
X155162069Y-134976606D01*
X155180000Y-134943060D01*
X155197931Y-134976606D01*
X155385203Y-135204797D01*
X155613394Y-135392069D01*
X155873736Y-135531225D01*
X156156223Y-135616916D01*
X156376381Y-135638600D01*
X156523619Y-135638600D01*
X156743777Y-135616916D01*
X157026264Y-135531225D01*
X157286606Y-135392069D01*
X157514797Y-135204797D01*
X157702069Y-134976606D01*
X157720000Y-134943060D01*
X157737931Y-134976606D01*
X157925203Y-135204797D01*
X158153394Y-135392069D01*
X158413736Y-135531225D01*
X158696223Y-135616916D01*
X158916381Y-135638600D01*
X159063619Y-135638600D01*
X159283777Y-135616916D01*
X159566264Y-135531225D01*
X159826606Y-135392069D01*
X160054797Y-135204797D01*
X160242069Y-134976606D01*
X160260000Y-134943060D01*
X160277931Y-134976606D01*
X160465203Y-135204797D01*
X160693394Y-135392069D01*
X160953736Y-135531225D01*
X161236223Y-135616916D01*
X161456381Y-135638600D01*
X161603619Y-135638600D01*
X161823777Y-135616916D01*
X162106264Y-135531225D01*
X162366606Y-135392069D01*
X162594797Y-135204797D01*
X162782069Y-134976606D01*
X162800000Y-134943060D01*
X162817931Y-134976606D01*
X163005203Y-135204797D01*
X163233394Y-135392069D01*
X163493736Y-135531225D01*
X163776223Y-135616916D01*
X163996381Y-135638600D01*
X164143619Y-135638600D01*
X164363777Y-135616916D01*
X164646264Y-135531225D01*
X164906606Y-135392069D01*
X165134797Y-135204797D01*
X165322069Y-134976606D01*
X165340000Y-134943060D01*
X165357931Y-134976606D01*
X165545203Y-135204797D01*
X165773394Y-135392069D01*
X166033736Y-135531225D01*
X166316223Y-135616916D01*
X166536381Y-135638600D01*
X166683619Y-135638600D01*
X166903777Y-135616916D01*
X167186264Y-135531225D01*
X167446606Y-135392069D01*
X167674797Y-135204797D01*
X167862069Y-134976606D01*
X167885863Y-134932090D01*
X167943183Y-135028488D01*
X168139707Y-135246854D01*
X168375056Y-135422684D01*
X168640186Y-135549222D01*
X168790974Y-135594958D01*
X169023000Y-135473817D01*
X169023000Y-134267000D01*
X169277000Y-134267000D01*
X169277000Y-135473817D01*
X169509026Y-135594958D01*
X169659814Y-135549222D01*
X169924944Y-135422684D01*
X170160293Y-135246854D01*
X170356817Y-135028488D01*
X170506964Y-134775978D01*
X170604963Y-134499027D01*
X170484464Y-134267000D01*
X169277000Y-134267000D01*
X169023000Y-134267000D01*
X169003000Y-134267000D01*
X169003000Y-134013000D01*
X169023000Y-134013000D01*
X169023000Y-133993000D01*
X169277000Y-133993000D01*
X169277000Y-134013000D01*
X170484464Y-134013000D01*
X170604963Y-133780973D01*
X170604574Y-133779872D01*
X181765000Y-133779872D01*
X181765000Y-134220128D01*
X181850890Y-134651925D01*
X182019369Y-135058669D01*
X182263962Y-135424729D01*
X182575271Y-135736038D01*
X182941331Y-135980631D01*
X183348075Y-136149110D01*
X183779872Y-136235000D01*
X184220128Y-136235000D01*
X184651925Y-136149110D01*
X185058669Y-135980631D01*
X185424729Y-135736038D01*
X185736038Y-135424729D01*
X185980631Y-135058669D01*
X186149110Y-134651925D01*
X186235000Y-134220128D01*
X186235000Y-133779872D01*
X186149110Y-133348075D01*
X185980631Y-132941331D01*
X185736038Y-132575271D01*
X185424729Y-132263962D01*
X185058669Y-132019369D01*
X184651925Y-131850890D01*
X184220128Y-131765000D01*
X183779872Y-131765000D01*
X183348075Y-131850890D01*
X182941331Y-132019369D01*
X182575271Y-132263962D01*
X182263962Y-132575271D01*
X182019369Y-132941331D01*
X181850890Y-133348075D01*
X181765000Y-133779872D01*
X170604574Y-133779872D01*
X170506964Y-133504022D01*
X170356817Y-133251512D01*
X170160293Y-133033146D01*
X169946567Y-132873470D01*
X169986606Y-132852069D01*
X170214797Y-132664797D01*
X170402069Y-132436606D01*
X170541225Y-132176264D01*
X170626916Y-131893777D01*
X170655851Y-131600000D01*
X170626916Y-131306223D01*
X170541225Y-131023736D01*
X170402069Y-130763394D01*
X170214797Y-130535203D01*
X169986606Y-130347931D01*
X169726264Y-130208775D01*
X169443777Y-130123084D01*
X169223619Y-130101400D01*
X169076381Y-130101400D01*
X168856223Y-130123084D01*
X168573736Y-130208775D01*
X168313394Y-130347931D01*
X168085203Y-130535203D01*
X167897931Y-130763394D01*
X167880000Y-130796940D01*
X167862069Y-130763394D01*
X167674797Y-130535203D01*
X167446606Y-130347931D01*
X167186264Y-130208775D01*
X166903777Y-130123084D01*
X166683619Y-130101400D01*
X166536381Y-130101400D01*
X166316223Y-130123084D01*
X166033736Y-130208775D01*
X165773394Y-130347931D01*
X165545203Y-130535203D01*
X165357931Y-130763394D01*
X165340000Y-130796940D01*
X165322069Y-130763394D01*
X165134797Y-130535203D01*
X164906606Y-130347931D01*
X164646264Y-130208775D01*
X164363777Y-130123084D01*
X164143619Y-130101400D01*
X163996381Y-130101400D01*
X163776223Y-130123084D01*
X163493736Y-130208775D01*
X163233394Y-130347931D01*
X163005203Y-130535203D01*
X162817931Y-130763394D01*
X162794137Y-130807910D01*
X162736817Y-130711512D01*
X162540293Y-130493146D01*
X162304944Y-130317316D01*
X162039814Y-130190778D01*
X161889026Y-130145042D01*
X161657000Y-130266183D01*
X161657000Y-131473000D01*
X161677000Y-131473000D01*
X161677000Y-131727000D01*
X161657000Y-131727000D01*
X161657000Y-131747000D01*
X161403000Y-131747000D01*
X161403000Y-131727000D01*
X161383000Y-131727000D01*
X161383000Y-131473000D01*
X161403000Y-131473000D01*
X161403000Y-130266183D01*
X161170974Y-130145042D01*
X161020186Y-130190778D01*
X160755056Y-130317316D01*
X160519707Y-130493146D01*
X160323183Y-130711512D01*
X160265863Y-130807910D01*
X160242069Y-130763394D01*
X160054797Y-130535203D01*
X159826606Y-130347931D01*
X159566264Y-130208775D01*
X159283777Y-130123084D01*
X159063619Y-130101400D01*
X158916381Y-130101400D01*
X158696223Y-130123084D01*
X158413736Y-130208775D01*
X158153394Y-130347931D01*
X157925203Y-130535203D01*
X157737931Y-130763394D01*
X157714137Y-130807910D01*
X157656817Y-130711512D01*
X157460293Y-130493146D01*
X157224944Y-130317316D01*
X156959814Y-130190778D01*
X156809026Y-130145042D01*
X156577000Y-130266183D01*
X156577000Y-131473000D01*
X156597000Y-131473000D01*
X156597000Y-131727000D01*
X156577000Y-131727000D01*
X156577000Y-131747000D01*
X156323000Y-131747000D01*
X156323000Y-131727000D01*
X156303000Y-131727000D01*
X156303000Y-131473000D01*
X156323000Y-131473000D01*
X156323000Y-130266183D01*
X156090974Y-130145042D01*
X155940186Y-130190778D01*
X155675056Y-130317316D01*
X155439707Y-130493146D01*
X155243183Y-130711512D01*
X155185863Y-130807910D01*
X155162069Y-130763394D01*
X154974797Y-130535203D01*
X154746606Y-130347931D01*
X154486264Y-130208775D01*
X154203777Y-130123084D01*
X153983619Y-130101400D01*
X153836381Y-130101400D01*
X153616223Y-130123084D01*
X153333736Y-130208775D01*
X153073394Y-130347931D01*
X152845203Y-130535203D01*
X152657931Y-130763394D01*
X152640000Y-130796940D01*
X152622069Y-130763394D01*
X152434797Y-130535203D01*
X152206606Y-130347931D01*
X151946264Y-130208775D01*
X151663777Y-130123084D01*
X151443619Y-130101400D01*
X151296381Y-130101400D01*
X151281984Y-130102818D01*
X151829802Y-129555000D01*
X151891939Y-129555000D01*
X152091898Y-129515226D01*
X152280256Y-129437205D01*
X152449774Y-129323937D01*
X152593937Y-129179774D01*
X152707205Y-129010256D01*
X152785226Y-128821898D01*
X152825000Y-128621939D01*
X152825000Y-128418061D01*
X152785226Y-128218102D01*
X152707205Y-128029744D01*
X152593937Y-127860226D01*
X152449774Y-127716063D01*
X152280256Y-127602795D01*
X152091898Y-127524774D01*
X151891939Y-127485000D01*
X151688061Y-127485000D01*
X151488102Y-127524774D01*
X151299744Y-127602795D01*
X151130226Y-127716063D01*
X150986063Y-127860226D01*
X150872795Y-128029744D01*
X150794774Y-128218102D01*
X150755000Y-128418061D01*
X150755000Y-128480198D01*
X149113160Y-130122038D01*
X148903619Y-130101400D01*
X148756381Y-130101400D01*
X148536223Y-130123084D01*
X148253736Y-130208775D01*
X147993394Y-130347931D01*
X147765203Y-130535203D01*
X147577931Y-130763394D01*
X147560000Y-130796940D01*
X147542069Y-130763394D01*
X147354797Y-130535203D01*
X147126606Y-130347931D01*
X146866264Y-130208775D01*
X146583777Y-130123084D01*
X146363619Y-130101400D01*
X146216381Y-130101400D01*
X145996223Y-130123084D01*
X145713736Y-130208775D01*
X145688235Y-130222406D01*
X145687604Y-130216001D01*
X145644147Y-130072740D01*
X145573575Y-129940711D01*
X145478602Y-129824986D01*
X145449603Y-129801188D01*
X144845000Y-129196585D01*
X144845000Y-129134447D01*
X144805226Y-128934488D01*
X144727205Y-128746130D01*
X144613937Y-128576612D01*
X144469774Y-128432449D01*
X144300256Y-128319181D01*
X144111898Y-128241160D01*
X143911939Y-128201386D01*
X143708061Y-128201386D01*
X143508102Y-128241160D01*
X143319744Y-128319181D01*
X143150226Y-128432449D01*
X143006063Y-128576612D01*
X142892795Y-128746130D01*
X142814774Y-128934488D01*
X142775000Y-129134447D01*
X142775000Y-129338325D01*
X142814774Y-129538284D01*
X142892795Y-129726642D01*
X143006063Y-129896160D01*
X143150226Y-130040323D01*
X143319744Y-130153591D01*
X143337940Y-130161128D01*
X143240186Y-130190778D01*
X142975056Y-130317316D01*
X142739707Y-130493146D01*
X142543183Y-130711512D01*
X142485863Y-130807910D01*
X142462069Y-130763394D01*
X142274797Y-130535203D01*
X142046606Y-130347931D01*
X141786264Y-130208775D01*
X141503777Y-130123084D01*
X141283619Y-130101400D01*
X141136381Y-130101400D01*
X141033243Y-130111558D01*
X144794802Y-126350000D01*
X149781957Y-126350000D01*
X149885363Y-126504759D01*
X150085241Y-126704637D01*
X150320273Y-126861680D01*
X150581426Y-126969853D01*
X150858665Y-127025000D01*
X151141335Y-127025000D01*
X151418574Y-126969853D01*
X151679727Y-126861680D01*
X151914759Y-126704637D01*
X152114637Y-126504759D01*
X152271680Y-126269727D01*
X152379853Y-126008574D01*
X152435000Y-125731335D01*
X152435000Y-125448665D01*
X152379853Y-125171426D01*
X152271680Y-124910273D01*
X152114637Y-124675241D01*
X151914759Y-124475363D01*
X151679727Y-124318320D01*
X151418574Y-124210147D01*
X151141335Y-124155000D01*
X150858665Y-124155000D01*
X150581426Y-124210147D01*
X150320273Y-124318320D01*
X150085241Y-124475363D01*
X149885363Y-124675241D01*
X149781957Y-124830000D01*
X144694802Y-124830000D01*
X146701004Y-122823798D01*
X146730001Y-122800001D01*
X146824974Y-122684276D01*
X146895546Y-122552247D01*
X146939003Y-122408986D01*
X146945929Y-122338665D01*
X149565000Y-122338665D01*
X149565000Y-122621335D01*
X149620147Y-122898574D01*
X149728320Y-123159727D01*
X149885363Y-123394759D01*
X150085241Y-123594637D01*
X150320273Y-123751680D01*
X150581426Y-123859853D01*
X150858665Y-123915000D01*
X151141335Y-123915000D01*
X151418574Y-123859853D01*
X151679727Y-123751680D01*
X151914759Y-123594637D01*
X152114637Y-123394759D01*
X152271680Y-123159727D01*
X152379853Y-122898574D01*
X152435000Y-122621335D01*
X152435000Y-122338665D01*
X152379853Y-122061426D01*
X152271680Y-121800273D01*
X152114637Y-121565241D01*
X151914759Y-121365363D01*
X151679727Y-121208320D01*
X151418574Y-121100147D01*
X151141335Y-121045000D01*
X150858665Y-121045000D01*
X150581426Y-121100147D01*
X150320273Y-121208320D01*
X150085241Y-121365363D01*
X149885363Y-121565241D01*
X149728320Y-121800273D01*
X149620147Y-122061426D01*
X149565000Y-122338665D01*
X146945929Y-122338665D01*
X146950000Y-122297333D01*
X146950000Y-122297325D01*
X146953676Y-122260000D01*
X146950000Y-122222675D01*
X146950000Y-121494801D01*
X149716859Y-118727943D01*
X149620147Y-118961426D01*
X149565000Y-119238665D01*
X149565000Y-119521335D01*
X149620147Y-119798574D01*
X149728320Y-120059727D01*
X149885363Y-120294759D01*
X150085241Y-120494637D01*
X150320273Y-120651680D01*
X150581426Y-120759853D01*
X150858665Y-120815000D01*
X151141335Y-120815000D01*
X151418574Y-120759853D01*
X151679727Y-120651680D01*
X151914759Y-120494637D01*
X152114637Y-120294759D01*
X152271680Y-120059727D01*
X152379853Y-119798574D01*
X152435000Y-119521335D01*
X152435000Y-119238665D01*
X152379853Y-118961426D01*
X152271680Y-118700273D01*
X152114637Y-118465241D01*
X151914759Y-118265363D01*
X151679727Y-118108320D01*
X151418574Y-118000147D01*
X151141335Y-117945000D01*
X150858665Y-117945000D01*
X150581426Y-118000147D01*
X150347943Y-118096859D01*
X150676114Y-117768688D01*
X150858665Y-117805000D01*
X151141335Y-117805000D01*
X151418574Y-117749853D01*
X151679727Y-117641680D01*
X151914759Y-117484637D01*
X152114637Y-117284759D01*
X152218043Y-117130000D01*
X152712678Y-117130000D01*
X152750000Y-117133676D01*
X152787322Y-117130000D01*
X152787333Y-117130000D01*
X152898986Y-117119003D01*
X153042247Y-117075546D01*
X153174276Y-117004974D01*
X153290001Y-116910001D01*
X153313804Y-116880997D01*
X161489388Y-108705413D01*
X165094192Y-108705413D01*
X165189956Y-108969814D01*
X165479571Y-109110704D01*
X165791108Y-109192384D01*
X166112595Y-109211718D01*
X166431675Y-109167961D01*
X166736088Y-109062795D01*
X166910044Y-108969814D01*
X167005808Y-108705413D01*
X171594192Y-108705413D01*
X171689956Y-108969814D01*
X171979571Y-109110704D01*
X172291108Y-109192384D01*
X172612595Y-109211718D01*
X172931675Y-109167961D01*
X173236088Y-109062795D01*
X173410044Y-108969814D01*
X173505808Y-108705413D01*
X172550000Y-107749605D01*
X171594192Y-108705413D01*
X167005808Y-108705413D01*
X166050000Y-107749605D01*
X165094192Y-108705413D01*
X161489388Y-108705413D01*
X162562206Y-107632595D01*
X164408282Y-107632595D01*
X164452039Y-107951675D01*
X164557205Y-108256088D01*
X164650186Y-108430044D01*
X164914587Y-108525808D01*
X165870395Y-107570000D01*
X166229605Y-107570000D01*
X167185413Y-108525808D01*
X167449814Y-108430044D01*
X167590704Y-108140429D01*
X167672384Y-107828892D01*
X167684189Y-107632595D01*
X170908282Y-107632595D01*
X170952039Y-107951675D01*
X171057205Y-108256088D01*
X171150186Y-108430044D01*
X171414587Y-108525808D01*
X172370395Y-107570000D01*
X172729605Y-107570000D01*
X173685413Y-108525808D01*
X173949814Y-108430044D01*
X174090704Y-108140429D01*
X174172384Y-107828892D01*
X174191718Y-107507405D01*
X174147961Y-107188325D01*
X174042795Y-106883912D01*
X173949814Y-106709956D01*
X173685413Y-106614192D01*
X172729605Y-107570000D01*
X172370395Y-107570000D01*
X171414587Y-106614192D01*
X171150186Y-106709956D01*
X171009296Y-106999571D01*
X170927616Y-107311108D01*
X170908282Y-107632595D01*
X167684189Y-107632595D01*
X167691718Y-107507405D01*
X167647961Y-107188325D01*
X167542795Y-106883912D01*
X167449814Y-106709956D01*
X167185413Y-106614192D01*
X166229605Y-107570000D01*
X165870395Y-107570000D01*
X164914587Y-106614192D01*
X164650186Y-106709956D01*
X164509296Y-106999571D01*
X164427616Y-107311108D01*
X164408282Y-107632595D01*
X162562206Y-107632595D01*
X163760214Y-106434587D01*
X165094192Y-106434587D01*
X166050000Y-107390395D01*
X167005808Y-106434587D01*
X171594192Y-106434587D01*
X172550000Y-107390395D01*
X173505808Y-106434587D01*
X173410044Y-106170186D01*
X173120429Y-106029296D01*
X172808892Y-105947616D01*
X172487405Y-105928282D01*
X172168325Y-105972039D01*
X171863912Y-106077205D01*
X171689956Y-106170186D01*
X171594192Y-106434587D01*
X167005808Y-106434587D01*
X166910044Y-106170186D01*
X166620429Y-106029296D01*
X166308892Y-105947616D01*
X165987405Y-105928282D01*
X165668325Y-105972039D01*
X165363912Y-106077205D01*
X165189956Y-106170186D01*
X165094192Y-106434587D01*
X163760214Y-106434587D01*
X165558625Y-104636177D01*
X165573088Y-104642168D01*
X165888967Y-104705000D01*
X166211033Y-104705000D01*
X166526912Y-104642168D01*
X166824463Y-104518918D01*
X167092252Y-104339987D01*
X167319987Y-104112252D01*
X167498918Y-103844463D01*
X167504909Y-103830000D01*
X171095091Y-103830000D01*
X171101082Y-103844463D01*
X171280013Y-104112252D01*
X171507748Y-104339987D01*
X171775537Y-104518918D01*
X172073088Y-104642168D01*
X172388967Y-104705000D01*
X172711033Y-104705000D01*
X173026912Y-104642168D01*
X173324463Y-104518918D01*
X173592252Y-104339987D01*
X173819987Y-104112252D01*
X173998918Y-103844463D01*
X174122168Y-103546912D01*
X174185000Y-103231033D01*
X174185000Y-102908967D01*
X174122168Y-102593088D01*
X173998918Y-102295537D01*
X173819987Y-102027748D01*
X173592252Y-101800013D01*
X173324463Y-101621082D01*
X173026912Y-101497832D01*
X172711033Y-101435000D01*
X172388967Y-101435000D01*
X172073088Y-101497832D01*
X171775537Y-101621082D01*
X171507748Y-101800013D01*
X171280013Y-102027748D01*
X171101082Y-102295537D01*
X171095091Y-102310000D01*
X167504909Y-102310000D01*
X167498918Y-102295537D01*
X167319987Y-102027748D01*
X167092252Y-101800013D01*
X166824463Y-101621082D01*
X166526912Y-101497832D01*
X166211033Y-101435000D01*
X165888967Y-101435000D01*
X165573088Y-101497832D01*
X165275537Y-101621082D01*
X165007748Y-101800013D01*
X164780013Y-102027748D01*
X164601082Y-102295537D01*
X164477832Y-102593088D01*
X164415000Y-102908967D01*
X164415000Y-103231033D01*
X164477832Y-103546912D01*
X164483823Y-103561375D01*
X152435199Y-115610000D01*
X152218043Y-115610000D01*
X152114637Y-115455241D01*
X151914759Y-115255363D01*
X151679727Y-115098320D01*
X151418574Y-114990147D01*
X151141335Y-114935000D01*
X150858665Y-114935000D01*
X150581426Y-114990147D01*
X150320273Y-115098320D01*
X150085241Y-115255363D01*
X149885363Y-115455241D01*
X149728320Y-115690273D01*
X149620147Y-115951426D01*
X149565000Y-116228665D01*
X149565000Y-116511335D01*
X149601312Y-116693886D01*
X146130000Y-120165199D01*
X146130000Y-114844801D01*
X152474802Y-108500000D01*
X157632678Y-108500000D01*
X157670000Y-108503676D01*
X157707322Y-108500000D01*
X157707333Y-108500000D01*
X157818986Y-108489003D01*
X157962247Y-108445546D01*
X158094276Y-108374974D01*
X158210001Y-108280001D01*
X158233804Y-108250997D01*
X159681070Y-106803731D01*
X159938816Y-106855000D01*
X160241184Y-106855000D01*
X160537743Y-106796011D01*
X160817095Y-106680299D01*
X161068505Y-106512312D01*
X161282312Y-106298505D01*
X161450299Y-106047095D01*
X161566011Y-105767743D01*
X161625000Y-105471184D01*
X161625000Y-105168816D01*
X161566011Y-104872257D01*
X161450299Y-104592905D01*
X161282312Y-104341495D01*
X161068505Y-104127688D01*
X160817095Y-103959701D01*
X160537743Y-103843989D01*
X160241184Y-103785000D01*
X159938816Y-103785000D01*
X159642257Y-103843989D01*
X159362905Y-103959701D01*
X159111495Y-104127688D01*
X159045056Y-104194127D01*
X159039502Y-104175820D01*
X158980537Y-104065506D01*
X158901185Y-103968815D01*
X158804494Y-103889463D01*
X158694180Y-103830498D01*
X158574482Y-103794188D01*
X158450000Y-103781928D01*
X156650000Y-103781928D01*
X156525518Y-103794188D01*
X156405820Y-103830498D01*
X156295506Y-103889463D01*
X156198815Y-103968815D01*
X156119463Y-104065506D01*
X156060498Y-104175820D01*
X156024188Y-104295518D01*
X156011928Y-104420000D01*
X156011928Y-106220000D01*
X156024188Y-106344482D01*
X156060498Y-106464180D01*
X156119463Y-106574494D01*
X156198815Y-106671185D01*
X156295506Y-106750537D01*
X156405820Y-106809502D01*
X156525518Y-106845812D01*
X156650000Y-106858072D01*
X157477127Y-106858072D01*
X157355199Y-106980000D01*
X152197322Y-106980000D01*
X152159999Y-106976324D01*
X152122676Y-106980000D01*
X152122667Y-106980000D01*
X152011014Y-106990997D01*
X151867753Y-107034454D01*
X151735723Y-107105026D01*
X151670333Y-107158691D01*
X151619999Y-107199999D01*
X151596201Y-107228997D01*
X145679989Y-113145210D01*
X145679989Y-112854812D01*
X151731071Y-106803732D01*
X151988816Y-106855000D01*
X152291184Y-106855000D01*
X152587743Y-106796011D01*
X152867095Y-106680299D01*
X153118505Y-106512312D01*
X153332312Y-106298505D01*
X153500299Y-106047095D01*
X153616011Y-105767743D01*
X153675000Y-105471184D01*
X153675000Y-105168816D01*
X153616011Y-104872257D01*
X153500299Y-104592905D01*
X153332312Y-104341495D01*
X153118505Y-104127688D01*
X152867095Y-103959701D01*
X152587743Y-103843989D01*
X152291184Y-103785000D01*
X151988816Y-103785000D01*
X151692257Y-103843989D01*
X151412905Y-103959701D01*
X151161495Y-104127688D01*
X151095056Y-104194127D01*
X151089502Y-104175820D01*
X151030537Y-104065506D01*
X150951185Y-103968815D01*
X150854494Y-103889463D01*
X150744180Y-103830498D01*
X150624482Y-103794188D01*
X150500000Y-103781928D01*
X148700000Y-103781928D01*
X148575518Y-103794188D01*
X148455820Y-103830498D01*
X148345506Y-103889463D01*
X148248815Y-103968815D01*
X148169463Y-104065506D01*
X148110498Y-104175820D01*
X148074188Y-104295518D01*
X148061928Y-104420000D01*
X148061928Y-106220000D01*
X148074188Y-106344482D01*
X148110498Y-106464180D01*
X148169463Y-106574494D01*
X148248815Y-106671185D01*
X148345506Y-106750537D01*
X148455820Y-106809502D01*
X148575518Y-106845812D01*
X148700000Y-106858072D01*
X149527126Y-106858072D01*
X145100000Y-111285199D01*
X145100000Y-106658313D01*
X145318505Y-106512312D01*
X145532312Y-106298505D01*
X145700299Y-106047095D01*
X145816011Y-105767743D01*
X145875000Y-105471184D01*
X145875000Y-105168816D01*
X145816011Y-104872257D01*
X145700299Y-104592905D01*
X145532312Y-104341495D01*
X145318505Y-104127688D01*
X145067095Y-103959701D01*
X144787743Y-103843989D01*
X144491184Y-103785000D01*
X144188816Y-103785000D01*
X143892257Y-103843989D01*
X143612905Y-103959701D01*
X143361495Y-104127688D01*
X143295056Y-104194127D01*
X143289502Y-104175820D01*
X143230537Y-104065506D01*
X143151185Y-103968815D01*
X143054494Y-103889463D01*
X142944180Y-103830498D01*
X142824482Y-103794188D01*
X142700000Y-103781928D01*
X140900000Y-103781928D01*
X140775518Y-103794188D01*
X140655820Y-103830498D01*
X140545506Y-103889463D01*
X140448815Y-103968815D01*
X140369463Y-104065506D01*
X140310498Y-104175820D01*
X140274188Y-104295518D01*
X140261928Y-104420000D01*
X140261928Y-106220000D01*
X140274188Y-106344482D01*
X140310498Y-106464180D01*
X140369463Y-106574494D01*
X140448815Y-106671185D01*
X140545506Y-106750537D01*
X140655820Y-106809502D01*
X140775518Y-106845812D01*
X140900000Y-106858072D01*
X142700000Y-106858072D01*
X142824482Y-106845812D01*
X142944180Y-106809502D01*
X143054494Y-106750537D01*
X143151185Y-106671185D01*
X143230537Y-106574494D01*
X143289502Y-106464180D01*
X143295056Y-106445873D01*
X143361495Y-106512312D01*
X143580000Y-106658313D01*
X143580001Y-115565196D01*
X142113381Y-117031817D01*
X142172182Y-116921808D01*
X142254236Y-116651309D01*
X142281943Y-116370000D01*
X142254236Y-116088691D01*
X142172182Y-115818192D01*
X142038932Y-115568899D01*
X141859608Y-115350392D01*
X141641101Y-115171068D01*
X141391808Y-115037818D01*
X141121309Y-114955764D01*
X140910492Y-114935000D01*
X140769508Y-114935000D01*
X140558691Y-114955764D01*
X140288192Y-115037818D01*
X140038899Y-115171068D01*
X139820392Y-115350392D01*
X139641068Y-115568899D01*
X139507818Y-115818192D01*
X139425764Y-116088691D01*
X139398057Y-116370000D01*
X139425764Y-116651309D01*
X139507818Y-116921808D01*
X139641068Y-117171101D01*
X139820392Y-117389608D01*
X140038899Y-117568932D01*
X140288192Y-117702182D01*
X140558691Y-117784236D01*
X140769508Y-117805000D01*
X140910492Y-117805000D01*
X141121309Y-117784236D01*
X141391808Y-117702182D01*
X141501818Y-117643380D01*
X141165906Y-117979292D01*
X141121309Y-117965764D01*
X140910492Y-117945000D01*
X140769508Y-117945000D01*
X140558691Y-117965764D01*
X140288192Y-118047818D01*
X140038899Y-118181068D01*
X139820392Y-118360392D01*
X139641068Y-118578899D01*
X139507818Y-118828192D01*
X139425764Y-119098691D01*
X139398057Y-119380000D01*
X139425764Y-119661309D01*
X139507818Y-119931808D01*
X139641068Y-120181101D01*
X139820392Y-120399608D01*
X140038899Y-120578932D01*
X140288192Y-120712182D01*
X140558691Y-120794236D01*
X140769508Y-120815000D01*
X140910492Y-120815000D01*
X141121309Y-120794236D01*
X141391808Y-120712182D01*
X141641101Y-120578932D01*
X141781440Y-120463759D01*
X141165907Y-121079292D01*
X141121309Y-121065764D01*
X140910492Y-121045000D01*
X140769508Y-121045000D01*
X140558691Y-121065764D01*
X140288192Y-121147818D01*
X140038899Y-121281068D01*
X139820392Y-121460392D01*
X139641068Y-121678899D01*
X139507818Y-121928192D01*
X139425764Y-122198691D01*
X139398057Y-122480000D01*
X139425764Y-122761309D01*
X139507818Y-123031808D01*
X139641068Y-123281101D01*
X139820392Y-123499608D01*
X140038899Y-123678932D01*
X140288192Y-123812182D01*
X140558691Y-123894236D01*
X140769508Y-123915000D01*
X140910492Y-123915000D01*
X141121309Y-123894236D01*
X141391808Y-123812182D01*
X141641101Y-123678932D01*
X141837203Y-123517995D01*
X141165906Y-124189292D01*
X141121309Y-124175764D01*
X140910492Y-124155000D01*
X140769508Y-124155000D01*
X140558691Y-124175764D01*
X140288192Y-124257818D01*
X140038899Y-124391068D01*
X139820392Y-124570392D01*
X139641068Y-124788899D01*
X139507818Y-125038192D01*
X139425764Y-125308691D01*
X139398057Y-125590000D01*
X139425764Y-125871309D01*
X139507818Y-126141808D01*
X139641068Y-126391101D01*
X139820392Y-126609608D01*
X140038899Y-126788932D01*
X140288192Y-126922182D01*
X140414655Y-126960544D01*
X136992483Y-130382716D01*
X136904944Y-130317316D01*
X136639814Y-130190778D01*
X136489026Y-130145042D01*
X136257000Y-130266183D01*
X136257000Y-131473000D01*
X136277000Y-131473000D01*
X136277000Y-131727000D01*
X136257000Y-131727000D01*
X136257000Y-131747000D01*
X136003000Y-131747000D01*
X136003000Y-131727000D01*
X135983000Y-131727000D01*
X135983000Y-131473000D01*
X136003000Y-131473000D01*
X136003000Y-130266183D01*
X135770974Y-130145042D01*
X135620186Y-130190778D01*
X135355056Y-130317316D01*
X135119707Y-130493146D01*
X134923183Y-130711512D01*
X134865863Y-130807910D01*
X134842069Y-130763394D01*
X134654797Y-130535203D01*
X134426606Y-130347931D01*
X134166264Y-130208775D01*
X133883777Y-130123084D01*
X133663619Y-130101400D01*
X133516381Y-130101400D01*
X133296223Y-130123084D01*
X133013736Y-130208775D01*
X132753394Y-130347931D01*
X132525203Y-130535203D01*
X132337931Y-130763394D01*
X132320000Y-130796940D01*
X132302069Y-130763394D01*
X132114797Y-130535203D01*
X131886606Y-130347931D01*
X131626264Y-130208775D01*
X131343777Y-130123084D01*
X131123619Y-130101400D01*
X130976381Y-130101400D01*
X130756223Y-130123084D01*
X130473736Y-130208775D01*
X130213394Y-130347931D01*
X129985203Y-130535203D01*
X129797931Y-130763394D01*
X129780000Y-130796940D01*
X129762069Y-130763394D01*
X129574797Y-130535203D01*
X129346606Y-130347931D01*
X129086264Y-130208775D01*
X128803777Y-130123084D01*
X128583619Y-130101400D01*
X128436381Y-130101400D01*
X128216223Y-130123084D01*
X127933736Y-130208775D01*
X127673394Y-130347931D01*
X127445203Y-130535203D01*
X127257931Y-130763394D01*
X127234137Y-130807910D01*
X127176817Y-130711512D01*
X126980293Y-130493146D01*
X126744944Y-130317316D01*
X126479814Y-130190778D01*
X126329026Y-130145042D01*
X126097000Y-130266183D01*
X126097000Y-131473000D01*
X126117000Y-131473000D01*
X126117000Y-131727000D01*
X126097000Y-131727000D01*
X126097000Y-131747000D01*
X125843000Y-131747000D01*
X125843000Y-131727000D01*
X125823000Y-131727000D01*
X125823000Y-131473000D01*
X125843000Y-131473000D01*
X125843000Y-130266183D01*
X125610974Y-130145042D01*
X125460186Y-130190778D01*
X125195056Y-130317316D01*
X124959707Y-130493146D01*
X124763183Y-130711512D01*
X124705863Y-130807910D01*
X124682069Y-130763394D01*
X124494797Y-130535203D01*
X124266606Y-130347931D01*
X124006264Y-130208775D01*
X123723777Y-130123084D01*
X123503619Y-130101400D01*
X123356381Y-130101400D01*
X123136223Y-130123084D01*
X122853736Y-130208775D01*
X122593394Y-130347931D01*
X122365203Y-130535203D01*
X122177931Y-130763394D01*
X122160000Y-130796940D01*
X122142069Y-130763394D01*
X121954797Y-130535203D01*
X121726606Y-130347931D01*
X121466264Y-130208775D01*
X121183777Y-130123084D01*
X120963619Y-130101400D01*
X120816381Y-130101400D01*
X120596223Y-130123084D01*
X120313736Y-130208775D01*
X120053394Y-130347931D01*
X119825203Y-130535203D01*
X119637931Y-130763394D01*
X119498775Y-131023736D01*
X119413084Y-131306223D01*
X119384149Y-131600000D01*
X119413084Y-131893777D01*
X119498775Y-132176264D01*
X119637931Y-132436606D01*
X119825203Y-132664797D01*
X119833265Y-132671414D01*
X119782220Y-132686898D01*
X119671906Y-132745863D01*
X119575215Y-132825215D01*
X119495863Y-132921906D01*
X119467152Y-132975620D01*
X113485000Y-126993469D01*
X113485000Y-120000000D01*
X118911928Y-120000000D01*
X118911928Y-121700000D01*
X118924188Y-121824482D01*
X118960498Y-121944180D01*
X119019463Y-122054494D01*
X119098815Y-122151185D01*
X119195506Y-122230537D01*
X119305820Y-122289502D01*
X119425518Y-122325812D01*
X119550000Y-122338072D01*
X121250000Y-122338072D01*
X121374482Y-122325812D01*
X121494180Y-122289502D01*
X121604494Y-122230537D01*
X121701185Y-122151185D01*
X121780537Y-122054494D01*
X121839502Y-121944180D01*
X121860393Y-121875313D01*
X121884866Y-121905134D01*
X122110986Y-122090706D01*
X122368966Y-122228599D01*
X122648889Y-122313513D01*
X122867050Y-122335000D01*
X123012950Y-122335000D01*
X123231111Y-122313513D01*
X123511034Y-122228599D01*
X123769014Y-122090706D01*
X123995134Y-121905134D01*
X124180706Y-121679014D01*
X124215201Y-121614477D01*
X124284822Y-121731355D01*
X124479731Y-121947588D01*
X124713080Y-122121641D01*
X124975901Y-122246825D01*
X125123110Y-122291476D01*
X125353000Y-122170155D01*
X125353000Y-120977000D01*
X125333000Y-120977000D01*
X125333000Y-120723000D01*
X125353000Y-120723000D01*
X125353000Y-119529845D01*
X125607000Y-119529845D01*
X125607000Y-120723000D01*
X125627000Y-120723000D01*
X125627000Y-120977000D01*
X125607000Y-120977000D01*
X125607000Y-122170155D01*
X125836890Y-122291476D01*
X125984099Y-122246825D01*
X126246920Y-122121641D01*
X126480269Y-121947588D01*
X126675178Y-121731355D01*
X126744799Y-121614477D01*
X126779294Y-121679014D01*
X126964866Y-121905134D01*
X127190986Y-122090706D01*
X127448966Y-122228599D01*
X127728889Y-122313513D01*
X127947050Y-122335000D01*
X128092950Y-122335000D01*
X128311111Y-122313513D01*
X128591034Y-122228599D01*
X128849014Y-122090706D01*
X129075134Y-121905134D01*
X129260706Y-121679014D01*
X129295201Y-121614477D01*
X129364822Y-121731355D01*
X129559731Y-121947588D01*
X129793080Y-122121641D01*
X130055901Y-122246825D01*
X130203110Y-122291476D01*
X130433000Y-122170155D01*
X130433000Y-120977000D01*
X130413000Y-120977000D01*
X130413000Y-120723000D01*
X130433000Y-120723000D01*
X130433000Y-119529845D01*
X130687000Y-119529845D01*
X130687000Y-120723000D01*
X130707000Y-120723000D01*
X130707000Y-120977000D01*
X130687000Y-120977000D01*
X130687000Y-122170155D01*
X130916890Y-122291476D01*
X131064099Y-122246825D01*
X131326920Y-122121641D01*
X131560269Y-121947588D01*
X131755178Y-121731355D01*
X131824799Y-121614477D01*
X131859294Y-121679014D01*
X132044866Y-121905134D01*
X132270986Y-122090706D01*
X132528966Y-122228599D01*
X132808889Y-122313513D01*
X133027050Y-122335000D01*
X133172950Y-122335000D01*
X133391111Y-122313513D01*
X133671034Y-122228599D01*
X133929014Y-122090706D01*
X134155134Y-121905134D01*
X134340706Y-121679014D01*
X134478599Y-121421034D01*
X134563513Y-121141111D01*
X134592185Y-120850000D01*
X134563513Y-120558889D01*
X134478599Y-120278966D01*
X134340706Y-120020986D01*
X134155134Y-119794866D01*
X133929014Y-119609294D01*
X133671034Y-119471401D01*
X133391111Y-119386487D01*
X133172950Y-119365000D01*
X133027050Y-119365000D01*
X132808889Y-119386487D01*
X132528966Y-119471401D01*
X132270986Y-119609294D01*
X132044866Y-119794866D01*
X131859294Y-120020986D01*
X131824799Y-120085523D01*
X131755178Y-119968645D01*
X131560269Y-119752412D01*
X131326920Y-119578359D01*
X131064099Y-119453175D01*
X130916890Y-119408524D01*
X130687000Y-119529845D01*
X130433000Y-119529845D01*
X130203110Y-119408524D01*
X130055901Y-119453175D01*
X129793080Y-119578359D01*
X129559731Y-119752412D01*
X129364822Y-119968645D01*
X129295201Y-120085523D01*
X129260706Y-120020986D01*
X129075134Y-119794866D01*
X128849014Y-119609294D01*
X128591034Y-119471401D01*
X128311111Y-119386487D01*
X128092950Y-119365000D01*
X127947050Y-119365000D01*
X127728889Y-119386487D01*
X127448966Y-119471401D01*
X127190986Y-119609294D01*
X126964866Y-119794866D01*
X126779294Y-120020986D01*
X126744799Y-120085523D01*
X126675178Y-119968645D01*
X126480269Y-119752412D01*
X126246920Y-119578359D01*
X125984099Y-119453175D01*
X125836890Y-119408524D01*
X125607000Y-119529845D01*
X125353000Y-119529845D01*
X125123110Y-119408524D01*
X124975901Y-119453175D01*
X124713080Y-119578359D01*
X124479731Y-119752412D01*
X124284822Y-119968645D01*
X124215201Y-120085523D01*
X124180706Y-120020986D01*
X123995134Y-119794866D01*
X123769014Y-119609294D01*
X123511034Y-119471401D01*
X123231111Y-119386487D01*
X123012950Y-119365000D01*
X122867050Y-119365000D01*
X122648889Y-119386487D01*
X122368966Y-119471401D01*
X122110986Y-119609294D01*
X121884866Y-119794866D01*
X121860393Y-119824687D01*
X121839502Y-119755820D01*
X121780537Y-119645506D01*
X121701185Y-119548815D01*
X121604494Y-119469463D01*
X121494180Y-119410498D01*
X121374482Y-119374188D01*
X121250000Y-119361928D01*
X119550000Y-119361928D01*
X119425518Y-119374188D01*
X119305820Y-119410498D01*
X119195506Y-119469463D01*
X119098815Y-119548815D01*
X119019463Y-119645506D01*
X118960498Y-119755820D01*
X118924188Y-119875518D01*
X118911928Y-120000000D01*
X113485000Y-120000000D01*
X113485000Y-117458665D01*
X114015000Y-117458665D01*
X114015000Y-117741335D01*
X114070147Y-118018574D01*
X114178320Y-118279727D01*
X114335363Y-118514759D01*
X114535241Y-118714637D01*
X114770273Y-118871680D01*
X115031426Y-118979853D01*
X115308665Y-119035000D01*
X115591335Y-119035000D01*
X115868574Y-118979853D01*
X116129727Y-118871680D01*
X116364759Y-118714637D01*
X116564637Y-118514759D01*
X116721680Y-118279727D01*
X116829853Y-118018574D01*
X116885000Y-117741335D01*
X116885000Y-117458665D01*
X116829853Y-117181426D01*
X116721680Y-116920273D01*
X116564637Y-116685241D01*
X116364759Y-116485363D01*
X116129727Y-116328320D01*
X115868574Y-116220147D01*
X115591335Y-116165000D01*
X115308665Y-116165000D01*
X115031426Y-116220147D01*
X114770273Y-116328320D01*
X114535241Y-116485363D01*
X114335363Y-116685241D01*
X114178320Y-116920273D01*
X114070147Y-117181426D01*
X114015000Y-117458665D01*
X113485000Y-117458665D01*
X113485000Y-111010131D01*
X114653138Y-109841994D01*
X114696449Y-109806449D01*
X114731994Y-109763138D01*
X115631018Y-108864114D01*
X115731309Y-108854236D01*
X116001808Y-108772182D01*
X116251101Y-108638932D01*
X116469608Y-108459608D01*
X116648932Y-108241101D01*
X116782182Y-107991808D01*
X116864236Y-107721309D01*
X116891943Y-107440000D01*
X116864236Y-107158691D01*
X116782182Y-106888192D01*
X116648932Y-106638899D01*
X116585000Y-106560998D01*
X116585000Y-105463740D01*
X118915000Y-105463740D01*
X118915000Y-105756260D01*
X118972068Y-106043158D01*
X119084010Y-106313411D01*
X119246525Y-106556632D01*
X119453368Y-106763475D01*
X119696589Y-106925990D01*
X119966842Y-107037932D01*
X120253740Y-107095000D01*
X120546260Y-107095000D01*
X120833158Y-107037932D01*
X121103411Y-106925990D01*
X121346632Y-106763475D01*
X121553475Y-106556632D01*
X121669415Y-106383115D01*
X121699294Y-106439014D01*
X121884866Y-106665134D01*
X122110986Y-106850706D01*
X122368966Y-106988599D01*
X122648889Y-107073513D01*
X122867050Y-107095000D01*
X123012950Y-107095000D01*
X123231111Y-107073513D01*
X123511034Y-106988599D01*
X123769014Y-106850706D01*
X123995134Y-106665134D01*
X124180706Y-106439014D01*
X124210000Y-106384209D01*
X124239294Y-106439014D01*
X124424866Y-106665134D01*
X124650986Y-106850706D01*
X124908966Y-106988599D01*
X125188889Y-107073513D01*
X125407050Y-107095000D01*
X125552950Y-107095000D01*
X125771111Y-107073513D01*
X126051034Y-106988599D01*
X126309014Y-106850706D01*
X126535134Y-106665134D01*
X126720706Y-106439014D01*
X126750000Y-106384209D01*
X126779294Y-106439014D01*
X126964866Y-106665134D01*
X127190986Y-106850706D01*
X127448966Y-106988599D01*
X127728889Y-107073513D01*
X127947050Y-107095000D01*
X128092950Y-107095000D01*
X128311111Y-107073513D01*
X128591034Y-106988599D01*
X128849014Y-106850706D01*
X129075134Y-106665134D01*
X129260706Y-106439014D01*
X129290000Y-106384209D01*
X129319294Y-106439014D01*
X129504866Y-106665134D01*
X129730986Y-106850706D01*
X129988966Y-106988599D01*
X130268889Y-107073513D01*
X130487050Y-107095000D01*
X130632950Y-107095000D01*
X130851111Y-107073513D01*
X131131034Y-106988599D01*
X131389014Y-106850706D01*
X131615134Y-106665134D01*
X131800706Y-106439014D01*
X131830000Y-106384209D01*
X131859294Y-106439014D01*
X132044866Y-106665134D01*
X132270986Y-106850706D01*
X132528966Y-106988599D01*
X132808889Y-107073513D01*
X133027050Y-107095000D01*
X133172950Y-107095000D01*
X133391111Y-107073513D01*
X133671034Y-106988599D01*
X133929014Y-106850706D01*
X134155134Y-106665134D01*
X134340706Y-106439014D01*
X134478599Y-106181034D01*
X134563513Y-105901111D01*
X134592185Y-105610000D01*
X134563513Y-105318889D01*
X134478599Y-105038966D01*
X134340706Y-104780986D01*
X134155134Y-104554866D01*
X133929014Y-104369294D01*
X133671034Y-104231401D01*
X133391111Y-104146487D01*
X133172950Y-104125000D01*
X133027050Y-104125000D01*
X132808889Y-104146487D01*
X132528966Y-104231401D01*
X132270986Y-104369294D01*
X132044866Y-104554866D01*
X131859294Y-104780986D01*
X131830000Y-104835791D01*
X131800706Y-104780986D01*
X131615134Y-104554866D01*
X131389014Y-104369294D01*
X131131034Y-104231401D01*
X130851111Y-104146487D01*
X130632950Y-104125000D01*
X130487050Y-104125000D01*
X130268889Y-104146487D01*
X129988966Y-104231401D01*
X129730986Y-104369294D01*
X129504866Y-104554866D01*
X129319294Y-104780986D01*
X129290000Y-104835791D01*
X129260706Y-104780986D01*
X129075134Y-104554866D01*
X128849014Y-104369294D01*
X128591034Y-104231401D01*
X128311111Y-104146487D01*
X128092950Y-104125000D01*
X127947050Y-104125000D01*
X127728889Y-104146487D01*
X127448966Y-104231401D01*
X127190986Y-104369294D01*
X126964866Y-104554866D01*
X126779294Y-104780986D01*
X126750000Y-104835791D01*
X126720706Y-104780986D01*
X126535134Y-104554866D01*
X126309014Y-104369294D01*
X126051034Y-104231401D01*
X125771111Y-104146487D01*
X125552950Y-104125000D01*
X125407050Y-104125000D01*
X125188889Y-104146487D01*
X124908966Y-104231401D01*
X124650986Y-104369294D01*
X124424866Y-104554866D01*
X124239294Y-104780986D01*
X124210000Y-104835791D01*
X124180706Y-104780986D01*
X123995134Y-104554866D01*
X123769014Y-104369294D01*
X123511034Y-104231401D01*
X123231111Y-104146487D01*
X123012950Y-104125000D01*
X122867050Y-104125000D01*
X122648889Y-104146487D01*
X122368966Y-104231401D01*
X122110986Y-104369294D01*
X121884866Y-104554866D01*
X121699294Y-104780986D01*
X121669415Y-104836885D01*
X121553475Y-104663368D01*
X121346632Y-104456525D01*
X121103411Y-104294010D01*
X120833158Y-104182068D01*
X120546260Y-104125000D01*
X120253740Y-104125000D01*
X119966842Y-104182068D01*
X119696589Y-104294010D01*
X119453368Y-104456525D01*
X119246525Y-104663368D01*
X119084010Y-104906589D01*
X118972068Y-105176842D01*
X118915000Y-105463740D01*
X116585000Y-105463740D01*
X116585000Y-99340131D01*
X118445286Y-97479845D01*
X118611111Y-97463513D01*
X118891034Y-97378599D01*
X119149014Y-97240706D01*
X119375134Y-97055134D01*
X119560706Y-96829014D01*
X119595201Y-96764477D01*
X119664822Y-96881355D01*
X119859731Y-97097588D01*
X120093080Y-97271641D01*
X120355901Y-97396825D01*
X120503110Y-97441476D01*
X120733000Y-97320155D01*
X120733000Y-96127000D01*
X120713000Y-96127000D01*
X120713000Y-95873000D01*
X120733000Y-95873000D01*
X120733000Y-94679845D01*
X120987000Y-94679845D01*
X120987000Y-95873000D01*
X121007000Y-95873000D01*
X121007000Y-96127000D01*
X120987000Y-96127000D01*
X120987000Y-97320155D01*
X121216890Y-97441476D01*
X121364099Y-97396825D01*
X121626920Y-97271641D01*
X121860269Y-97097588D01*
X122055178Y-96881355D01*
X122124799Y-96764477D01*
X122159294Y-96829014D01*
X122344866Y-97055134D01*
X122570986Y-97240706D01*
X122828966Y-97378599D01*
X123108889Y-97463513D01*
X123327050Y-97485000D01*
X123472950Y-97485000D01*
X123691111Y-97463513D01*
X123971034Y-97378599D01*
X124229014Y-97240706D01*
X124455134Y-97055134D01*
X124479607Y-97025313D01*
X124500498Y-97094180D01*
X124559463Y-97204494D01*
X124638815Y-97301185D01*
X124735506Y-97380537D01*
X124845820Y-97439502D01*
X124965518Y-97475812D01*
X125090000Y-97488072D01*
X126790000Y-97488072D01*
X126914482Y-97475812D01*
X127034180Y-97439502D01*
X127144494Y-97380537D01*
X127241185Y-97301185D01*
X127320537Y-97204494D01*
X127379502Y-97094180D01*
X127415812Y-96974482D01*
X127428072Y-96850000D01*
X127428072Y-96000000D01*
X128877815Y-96000000D01*
X128906487Y-96291111D01*
X128991401Y-96571034D01*
X129129294Y-96829014D01*
X129314866Y-97055134D01*
X129540986Y-97240706D01*
X129798966Y-97378599D01*
X130078889Y-97463513D01*
X130297050Y-97485000D01*
X130442950Y-97485000D01*
X130661111Y-97463513D01*
X130941034Y-97378599D01*
X131199014Y-97240706D01*
X131425134Y-97055134D01*
X131610706Y-96829014D01*
X131645201Y-96764477D01*
X131714822Y-96881355D01*
X131909731Y-97097588D01*
X132143080Y-97271641D01*
X132405901Y-97396825D01*
X132553110Y-97441476D01*
X132783000Y-97320155D01*
X132783000Y-96127000D01*
X132763000Y-96127000D01*
X132763000Y-95873000D01*
X132783000Y-95873000D01*
X132783000Y-94679845D01*
X133037000Y-94679845D01*
X133037000Y-95873000D01*
X133057000Y-95873000D01*
X133057000Y-96127000D01*
X133037000Y-96127000D01*
X133037000Y-97320155D01*
X133266890Y-97441476D01*
X133414099Y-97396825D01*
X133676920Y-97271641D01*
X133910269Y-97097588D01*
X134105178Y-96881355D01*
X134174799Y-96764477D01*
X134209294Y-96829014D01*
X134394866Y-97055134D01*
X134620986Y-97240706D01*
X134878966Y-97378599D01*
X135158889Y-97463513D01*
X135377050Y-97485000D01*
X135522950Y-97485000D01*
X135741111Y-97463513D01*
X136021034Y-97378599D01*
X136279014Y-97240706D01*
X136505134Y-97055134D01*
X136529607Y-97025313D01*
X136550498Y-97094180D01*
X136609463Y-97204494D01*
X136688815Y-97301185D01*
X136785506Y-97380537D01*
X136895820Y-97439502D01*
X137015518Y-97475812D01*
X137140000Y-97488072D01*
X138840000Y-97488072D01*
X138964482Y-97475812D01*
X139084180Y-97439502D01*
X139194494Y-97380537D01*
X139291185Y-97301185D01*
X139370537Y-97204494D01*
X139429502Y-97094180D01*
X139465812Y-96974482D01*
X139478072Y-96850000D01*
X139478072Y-96000000D01*
X140867815Y-96000000D01*
X140896487Y-96291111D01*
X140981401Y-96571034D01*
X141119294Y-96829014D01*
X141304866Y-97055134D01*
X141530986Y-97240706D01*
X141788966Y-97378599D01*
X142068889Y-97463513D01*
X142287050Y-97485000D01*
X142432950Y-97485000D01*
X142651111Y-97463513D01*
X142931034Y-97378599D01*
X143189014Y-97240706D01*
X143415134Y-97055134D01*
X143600706Y-96829014D01*
X143630000Y-96774209D01*
X143659294Y-96829014D01*
X143844866Y-97055134D01*
X144070986Y-97240706D01*
X144328966Y-97378599D01*
X144608889Y-97463513D01*
X144827050Y-97485000D01*
X144972950Y-97485000D01*
X145191111Y-97463513D01*
X145471034Y-97378599D01*
X145729014Y-97240706D01*
X145955134Y-97055134D01*
X146140706Y-96829014D01*
X146175201Y-96764477D01*
X146244822Y-96881355D01*
X146439731Y-97097588D01*
X146673080Y-97271641D01*
X146935901Y-97396825D01*
X147083110Y-97441476D01*
X147313000Y-97320155D01*
X147313000Y-96127000D01*
X147293000Y-96127000D01*
X147293000Y-95873000D01*
X147313000Y-95873000D01*
X147313000Y-94679845D01*
X147567000Y-94679845D01*
X147567000Y-95873000D01*
X147587000Y-95873000D01*
X147587000Y-96127000D01*
X147567000Y-96127000D01*
X147567000Y-97320155D01*
X147796890Y-97441476D01*
X147944099Y-97396825D01*
X148206920Y-97271641D01*
X148440269Y-97097588D01*
X148635178Y-96881355D01*
X148704799Y-96764477D01*
X148739294Y-96829014D01*
X148924866Y-97055134D01*
X149150986Y-97240706D01*
X149408966Y-97378599D01*
X149688889Y-97463513D01*
X149907050Y-97485000D01*
X150052950Y-97485000D01*
X150271111Y-97463513D01*
X150551034Y-97378599D01*
X150809014Y-97240706D01*
X151035134Y-97055134D01*
X151220706Y-96829014D01*
X151250000Y-96774209D01*
X151279294Y-96829014D01*
X151464866Y-97055134D01*
X151690986Y-97240706D01*
X151948966Y-97378599D01*
X152228889Y-97463513D01*
X152447050Y-97485000D01*
X152592950Y-97485000D01*
X152811111Y-97463513D01*
X153091034Y-97378599D01*
X153349014Y-97240706D01*
X153575134Y-97055134D01*
X153760706Y-96829014D01*
X153790000Y-96774209D01*
X153819294Y-96829014D01*
X154004866Y-97055134D01*
X154230986Y-97240706D01*
X154488966Y-97378599D01*
X154768889Y-97463513D01*
X154987050Y-97485000D01*
X155132950Y-97485000D01*
X155351111Y-97463513D01*
X155631034Y-97378599D01*
X155889014Y-97240706D01*
X156115134Y-97055134D01*
X156300706Y-96829014D01*
X156330000Y-96774209D01*
X156359294Y-96829014D01*
X156544866Y-97055134D01*
X156770986Y-97240706D01*
X157028966Y-97378599D01*
X157308889Y-97463513D01*
X157527050Y-97485000D01*
X157672950Y-97485000D01*
X157891111Y-97463513D01*
X158171034Y-97378599D01*
X158429014Y-97240706D01*
X158655134Y-97055134D01*
X158679607Y-97025313D01*
X158700498Y-97094180D01*
X158759463Y-97204494D01*
X158838815Y-97301185D01*
X158935506Y-97380537D01*
X159045820Y-97439502D01*
X159165518Y-97475812D01*
X159290000Y-97488072D01*
X160990000Y-97488072D01*
X161114482Y-97475812D01*
X161234180Y-97439502D01*
X161344494Y-97380537D01*
X161441185Y-97301185D01*
X161520537Y-97204494D01*
X161579502Y-97094180D01*
X161615812Y-96974482D01*
X161628072Y-96850000D01*
X161628072Y-96356891D01*
X163208519Y-96356891D01*
X163305843Y-96631252D01*
X163454822Y-96881355D01*
X163649731Y-97097588D01*
X163883080Y-97271641D01*
X164145901Y-97396825D01*
X164293110Y-97441476D01*
X164523000Y-97320155D01*
X164523000Y-96127000D01*
X163329186Y-96127000D01*
X163208519Y-96356891D01*
X161628072Y-96356891D01*
X161628072Y-95643109D01*
X163208519Y-95643109D01*
X163329186Y-95873000D01*
X164523000Y-95873000D01*
X164523000Y-94679845D01*
X164777000Y-94679845D01*
X164777000Y-95873000D01*
X164797000Y-95873000D01*
X164797000Y-96127000D01*
X164777000Y-96127000D01*
X164777000Y-97320155D01*
X165006890Y-97441476D01*
X165154099Y-97396825D01*
X165416920Y-97271641D01*
X165650269Y-97097588D01*
X165845178Y-96881355D01*
X165914799Y-96764477D01*
X165949294Y-96829014D01*
X166134866Y-97055134D01*
X166360986Y-97240706D01*
X166618966Y-97378599D01*
X166898889Y-97463513D01*
X167117050Y-97485000D01*
X167262950Y-97485000D01*
X167481111Y-97463513D01*
X167761034Y-97378599D01*
X168019014Y-97240706D01*
X168245134Y-97055134D01*
X168269607Y-97025313D01*
X168290498Y-97094180D01*
X168349463Y-97204494D01*
X168428815Y-97301185D01*
X168525506Y-97380537D01*
X168635820Y-97439502D01*
X168755518Y-97475812D01*
X168880000Y-97488072D01*
X170580000Y-97488072D01*
X170704482Y-97475812D01*
X170824180Y-97439502D01*
X170934494Y-97380537D01*
X171031185Y-97301185D01*
X171110537Y-97204494D01*
X171169502Y-97094180D01*
X171205812Y-96974482D01*
X171218072Y-96850000D01*
X171218072Y-95779872D01*
X179765000Y-95779872D01*
X179765000Y-96220128D01*
X179850890Y-96651925D01*
X180019369Y-97058669D01*
X180263962Y-97424729D01*
X180575271Y-97736038D01*
X180941331Y-97980631D01*
X181348075Y-98149110D01*
X181779872Y-98235000D01*
X182220128Y-98235000D01*
X182651925Y-98149110D01*
X183058669Y-97980631D01*
X183424729Y-97736038D01*
X183736038Y-97424729D01*
X183980631Y-97058669D01*
X184149110Y-96651925D01*
X184235000Y-96220128D01*
X184235000Y-95779872D01*
X184149110Y-95348075D01*
X183980631Y-94941331D01*
X183736038Y-94575271D01*
X183424729Y-94263962D01*
X183058669Y-94019369D01*
X182651925Y-93850890D01*
X182220128Y-93765000D01*
X181779872Y-93765000D01*
X181348075Y-93850890D01*
X180941331Y-94019369D01*
X180575271Y-94263962D01*
X180263962Y-94575271D01*
X180019369Y-94941331D01*
X179850890Y-95348075D01*
X179765000Y-95779872D01*
X171218072Y-95779872D01*
X171218072Y-95150000D01*
X171205812Y-95025518D01*
X171169502Y-94905820D01*
X171110537Y-94795506D01*
X171031185Y-94698815D01*
X170934494Y-94619463D01*
X170824180Y-94560498D01*
X170704482Y-94524188D01*
X170580000Y-94511928D01*
X168880000Y-94511928D01*
X168755518Y-94524188D01*
X168635820Y-94560498D01*
X168525506Y-94619463D01*
X168428815Y-94698815D01*
X168349463Y-94795506D01*
X168290498Y-94905820D01*
X168269607Y-94974687D01*
X168245134Y-94944866D01*
X168019014Y-94759294D01*
X167761034Y-94621401D01*
X167481111Y-94536487D01*
X167262950Y-94515000D01*
X167117050Y-94515000D01*
X166898889Y-94536487D01*
X166618966Y-94621401D01*
X166360986Y-94759294D01*
X166134866Y-94944866D01*
X165949294Y-95170986D01*
X165914799Y-95235523D01*
X165845178Y-95118645D01*
X165650269Y-94902412D01*
X165416920Y-94728359D01*
X165154099Y-94603175D01*
X165006890Y-94558524D01*
X164777000Y-94679845D01*
X164523000Y-94679845D01*
X164293110Y-94558524D01*
X164145901Y-94603175D01*
X163883080Y-94728359D01*
X163649731Y-94902412D01*
X163454822Y-95118645D01*
X163305843Y-95368748D01*
X163208519Y-95643109D01*
X161628072Y-95643109D01*
X161628072Y-95150000D01*
X161615812Y-95025518D01*
X161579502Y-94905820D01*
X161520537Y-94795506D01*
X161441185Y-94698815D01*
X161344494Y-94619463D01*
X161234180Y-94560498D01*
X161114482Y-94524188D01*
X160990000Y-94511928D01*
X159290000Y-94511928D01*
X159165518Y-94524188D01*
X159045820Y-94560498D01*
X158935506Y-94619463D01*
X158838815Y-94698815D01*
X158759463Y-94795506D01*
X158700498Y-94905820D01*
X158679607Y-94974687D01*
X158655134Y-94944866D01*
X158429014Y-94759294D01*
X158171034Y-94621401D01*
X157891111Y-94536487D01*
X157672950Y-94515000D01*
X157527050Y-94515000D01*
X157308889Y-94536487D01*
X157028966Y-94621401D01*
X156770986Y-94759294D01*
X156544866Y-94944866D01*
X156359294Y-95170986D01*
X156330000Y-95225791D01*
X156300706Y-95170986D01*
X156115134Y-94944866D01*
X155889014Y-94759294D01*
X155631034Y-94621401D01*
X155351111Y-94536487D01*
X155132950Y-94515000D01*
X154987050Y-94515000D01*
X154768889Y-94536487D01*
X154488966Y-94621401D01*
X154230986Y-94759294D01*
X154004866Y-94944866D01*
X153819294Y-95170986D01*
X153790000Y-95225791D01*
X153760706Y-95170986D01*
X153575134Y-94944866D01*
X153349014Y-94759294D01*
X153091034Y-94621401D01*
X152811111Y-94536487D01*
X152592950Y-94515000D01*
X152447050Y-94515000D01*
X152228889Y-94536487D01*
X151948966Y-94621401D01*
X151690986Y-94759294D01*
X151464866Y-94944866D01*
X151279294Y-95170986D01*
X151250000Y-95225791D01*
X151220706Y-95170986D01*
X151035134Y-94944866D01*
X150809014Y-94759294D01*
X150551034Y-94621401D01*
X150271111Y-94536487D01*
X150052950Y-94515000D01*
X149907050Y-94515000D01*
X149688889Y-94536487D01*
X149408966Y-94621401D01*
X149150986Y-94759294D01*
X148924866Y-94944866D01*
X148739294Y-95170986D01*
X148704799Y-95235523D01*
X148635178Y-95118645D01*
X148440269Y-94902412D01*
X148206920Y-94728359D01*
X147944099Y-94603175D01*
X147796890Y-94558524D01*
X147567000Y-94679845D01*
X147313000Y-94679845D01*
X147083110Y-94558524D01*
X146935901Y-94603175D01*
X146673080Y-94728359D01*
X146439731Y-94902412D01*
X146244822Y-95118645D01*
X146175201Y-95235523D01*
X146140706Y-95170986D01*
X145955134Y-94944866D01*
X145729014Y-94759294D01*
X145471034Y-94621401D01*
X145191111Y-94536487D01*
X144972950Y-94515000D01*
X144827050Y-94515000D01*
X144608889Y-94536487D01*
X144328966Y-94621401D01*
X144070986Y-94759294D01*
X143844866Y-94944866D01*
X143659294Y-95170986D01*
X143630000Y-95225791D01*
X143600706Y-95170986D01*
X143415134Y-94944866D01*
X143189014Y-94759294D01*
X142931034Y-94621401D01*
X142651111Y-94536487D01*
X142432950Y-94515000D01*
X142287050Y-94515000D01*
X142068889Y-94536487D01*
X141788966Y-94621401D01*
X141530986Y-94759294D01*
X141304866Y-94944866D01*
X141119294Y-95170986D01*
X140981401Y-95428966D01*
X140896487Y-95708889D01*
X140867815Y-96000000D01*
X139478072Y-96000000D01*
X139478072Y-95150000D01*
X139465812Y-95025518D01*
X139429502Y-94905820D01*
X139370537Y-94795506D01*
X139291185Y-94698815D01*
X139194494Y-94619463D01*
X139084180Y-94560498D01*
X138964482Y-94524188D01*
X138840000Y-94511928D01*
X137140000Y-94511928D01*
X137015518Y-94524188D01*
X136895820Y-94560498D01*
X136785506Y-94619463D01*
X136688815Y-94698815D01*
X136609463Y-94795506D01*
X136550498Y-94905820D01*
X136529607Y-94974687D01*
X136505134Y-94944866D01*
X136279014Y-94759294D01*
X136021034Y-94621401D01*
X135741111Y-94536487D01*
X135522950Y-94515000D01*
X135377050Y-94515000D01*
X135158889Y-94536487D01*
X134878966Y-94621401D01*
X134620986Y-94759294D01*
X134394866Y-94944866D01*
X134209294Y-95170986D01*
X134174799Y-95235523D01*
X134105178Y-95118645D01*
X133910269Y-94902412D01*
X133676920Y-94728359D01*
X133414099Y-94603175D01*
X133266890Y-94558524D01*
X133037000Y-94679845D01*
X132783000Y-94679845D01*
X132553110Y-94558524D01*
X132405901Y-94603175D01*
X132143080Y-94728359D01*
X131909731Y-94902412D01*
X131714822Y-95118645D01*
X131645201Y-95235523D01*
X131610706Y-95170986D01*
X131425134Y-94944866D01*
X131199014Y-94759294D01*
X130941034Y-94621401D01*
X130661111Y-94536487D01*
X130442950Y-94515000D01*
X130297050Y-94515000D01*
X130078889Y-94536487D01*
X129798966Y-94621401D01*
X129540986Y-94759294D01*
X129314866Y-94944866D01*
X129129294Y-95170986D01*
X128991401Y-95428966D01*
X128906487Y-95708889D01*
X128877815Y-96000000D01*
X127428072Y-96000000D01*
X127428072Y-95150000D01*
X127415812Y-95025518D01*
X127379502Y-94905820D01*
X127320537Y-94795506D01*
X127241185Y-94698815D01*
X127144494Y-94619463D01*
X127034180Y-94560498D01*
X126914482Y-94524188D01*
X126790000Y-94511928D01*
X125090000Y-94511928D01*
X124965518Y-94524188D01*
X124845820Y-94560498D01*
X124735506Y-94619463D01*
X124638815Y-94698815D01*
X124559463Y-94795506D01*
X124500498Y-94905820D01*
X124479607Y-94974687D01*
X124455134Y-94944866D01*
X124229014Y-94759294D01*
X123971034Y-94621401D01*
X123691111Y-94536487D01*
X123472950Y-94515000D01*
X123327050Y-94515000D01*
X123108889Y-94536487D01*
X122828966Y-94621401D01*
X122570986Y-94759294D01*
X122344866Y-94944866D01*
X122159294Y-95170986D01*
X122124799Y-95235523D01*
X122055178Y-95118645D01*
X121860269Y-94902412D01*
X121626920Y-94728359D01*
X121364099Y-94603175D01*
X121216890Y-94558524D01*
X120987000Y-94679845D01*
X120733000Y-94679845D01*
X120503110Y-94558524D01*
X120355901Y-94603175D01*
X120093080Y-94728359D01*
X119859731Y-94902412D01*
X119664822Y-95118645D01*
X119595201Y-95235523D01*
X119560706Y-95170986D01*
X119375134Y-94944866D01*
X119149014Y-94759294D01*
X118891034Y-94621401D01*
X118611111Y-94536487D01*
X118392950Y-94515000D01*
X118247050Y-94515000D01*
X118028889Y-94536487D01*
X117748966Y-94621401D01*
X117490986Y-94759294D01*
X117264866Y-94944866D01*
X117079294Y-95170986D01*
X116941401Y-95428966D01*
X116856487Y-95708889D01*
X116840155Y-95874714D01*
X114686860Y-98028009D01*
X114643552Y-98063551D01*
X114501717Y-98236377D01*
X114445384Y-98341770D01*
X114396324Y-98433554D01*
X114331423Y-98647502D01*
X114309509Y-98870000D01*
X114315001Y-98925761D01*
X114315000Y-106560997D01*
X114251068Y-106638899D01*
X114117818Y-106888192D01*
X114035764Y-107158691D01*
X114025886Y-107258982D01*
X113419868Y-107865000D01*
X110967683Y-107865000D01*
X110930537Y-107795506D01*
X110851185Y-107698815D01*
X110754494Y-107619463D01*
X110644180Y-107560498D01*
X110524482Y-107524188D01*
X110400000Y-107511928D01*
X108700000Y-107511928D01*
X108575518Y-107524188D01*
X108455820Y-107560498D01*
X108345506Y-107619463D01*
X108248815Y-107698815D01*
X108169463Y-107795506D01*
X108110498Y-107905820D01*
X108074188Y-108025518D01*
X108061928Y-108150000D01*
X108061928Y-109850000D01*
X108074188Y-109974482D01*
X108110498Y-110094180D01*
X108169463Y-110204494D01*
X108248815Y-110301185D01*
X108345506Y-110380537D01*
X108455820Y-110439502D01*
X108524687Y-110460393D01*
X108494866Y-110484866D01*
X108309294Y-110710986D01*
X108171401Y-110968966D01*
X108086487Y-111248889D01*
X108057815Y-111540000D01*
X90660000Y-111540000D01*
X90660000Y-95779872D01*
X93765000Y-95779872D01*
X93765000Y-96220128D01*
X93850890Y-96651925D01*
X94019369Y-97058669D01*
X94263962Y-97424729D01*
X94575271Y-97736038D01*
X94941331Y-97980631D01*
X95348075Y-98149110D01*
X95779872Y-98235000D01*
X96220128Y-98235000D01*
X96651925Y-98149110D01*
X97058669Y-97980631D01*
X97424729Y-97736038D01*
X97736038Y-97424729D01*
X97980631Y-97058669D01*
X98149110Y-96651925D01*
X98235000Y-96220128D01*
X98235000Y-96000000D01*
X109257815Y-96000000D01*
X109286487Y-96291111D01*
X109371401Y-96571034D01*
X109509294Y-96829014D01*
X109694866Y-97055134D01*
X109920986Y-97240706D01*
X110178966Y-97378599D01*
X110458889Y-97463513D01*
X110677050Y-97485000D01*
X110822950Y-97485000D01*
X111041111Y-97463513D01*
X111321034Y-97378599D01*
X111579014Y-97240706D01*
X111805134Y-97055134D01*
X111829607Y-97025313D01*
X111850498Y-97094180D01*
X111909463Y-97204494D01*
X111988815Y-97301185D01*
X112085506Y-97380537D01*
X112195820Y-97439502D01*
X112315518Y-97475812D01*
X112440000Y-97488072D01*
X114140000Y-97488072D01*
X114264482Y-97475812D01*
X114384180Y-97439502D01*
X114494494Y-97380537D01*
X114591185Y-97301185D01*
X114670537Y-97204494D01*
X114729502Y-97094180D01*
X114765812Y-96974482D01*
X114778072Y-96850000D01*
X114778072Y-95150000D01*
X114765812Y-95025518D01*
X114729502Y-94905820D01*
X114670537Y-94795506D01*
X114591185Y-94698815D01*
X114494494Y-94619463D01*
X114384180Y-94560498D01*
X114264482Y-94524188D01*
X114140000Y-94511928D01*
X112440000Y-94511928D01*
X112315518Y-94524188D01*
X112195820Y-94560498D01*
X112085506Y-94619463D01*
X111988815Y-94698815D01*
X111909463Y-94795506D01*
X111850498Y-94905820D01*
X111829607Y-94974687D01*
X111805134Y-94944866D01*
X111579014Y-94759294D01*
X111321034Y-94621401D01*
X111041111Y-94536487D01*
X110822950Y-94515000D01*
X110677050Y-94515000D01*
X110458889Y-94536487D01*
X110178966Y-94621401D01*
X109920986Y-94759294D01*
X109694866Y-94944866D01*
X109509294Y-95170986D01*
X109371401Y-95428966D01*
X109286487Y-95708889D01*
X109257815Y-96000000D01*
X98235000Y-96000000D01*
X98235000Y-95779872D01*
X98149110Y-95348075D01*
X97980631Y-94941331D01*
X97736038Y-94575271D01*
X97424729Y-94263962D01*
X97058669Y-94019369D01*
X96651925Y-93850890D01*
X96220128Y-93765000D01*
X95779872Y-93765000D01*
X95348075Y-93850890D01*
X94941331Y-94019369D01*
X94575271Y-94263962D01*
X94263962Y-94575271D01*
X94019369Y-94941331D01*
X93850890Y-95348075D01*
X93765000Y-95779872D01*
X90660000Y-95779872D01*
X90660000Y-90660000D01*
X189340001Y-90660000D01*
X189340000Y-139340000D01*
X189340000Y-139340000D01*
G37*
X189340000Y-139340000D02*
X90660000Y-139340000D01*
X90660000Y-133779872D01*
X93765000Y-133779872D01*
X93765000Y-134220128D01*
X93850890Y-134651925D01*
X94019369Y-135058669D01*
X94263962Y-135424729D01*
X94575271Y-135736038D01*
X94941331Y-135980631D01*
X95348075Y-136149110D01*
X95779872Y-136235000D01*
X96220128Y-136235000D01*
X96651925Y-136149110D01*
X97058669Y-135980631D01*
X97424729Y-135736038D01*
X97736038Y-135424729D01*
X97980631Y-135058669D01*
X98149110Y-134651925D01*
X98235000Y-134220128D01*
X98235000Y-133900000D01*
X104271928Y-133900000D01*
X104284188Y-134024482D01*
X104320498Y-134144180D01*
X104379463Y-134254494D01*
X104458815Y-134351185D01*
X104555506Y-134430537D01*
X104665820Y-134489502D01*
X104785518Y-134525812D01*
X104910000Y-134538072D01*
X105874250Y-134535000D01*
X106033000Y-134376250D01*
X106033000Y-132777000D01*
X106287000Y-132777000D01*
X106287000Y-134376250D01*
X106445750Y-134535000D01*
X107410000Y-134538072D01*
X107534482Y-134525812D01*
X107654180Y-134489502D01*
X107764494Y-134430537D01*
X107861185Y-134351185D01*
X107940537Y-134254494D01*
X107999502Y-134144180D01*
X108035812Y-134024482D01*
X108048072Y-133900000D01*
X108045000Y-132935750D01*
X107886250Y-132777000D01*
X106287000Y-132777000D01*
X106033000Y-132777000D01*
X104433750Y-132777000D01*
X104275000Y-132935750D01*
X104271928Y-133900000D01*
X98235000Y-133900000D01*
X98235000Y-133779872D01*
X98149110Y-133348075D01*
X97980631Y-132941331D01*
X97736038Y-132575271D01*
X97424729Y-132263962D01*
X97058669Y-132019369D01*
X96651925Y-131850890D01*
X96220128Y-131765000D01*
X95779872Y-131765000D01*
X95348075Y-131850890D01*
X94941331Y-132019369D01*
X94575271Y-132263962D01*
X94263962Y-132575271D01*
X94019369Y-132941331D01*
X93850890Y-133348075D01*
X93765000Y-133779872D01*
X90660000Y-133779872D01*
X90660000Y-131400000D01*
X104271928Y-131400000D01*
X104275000Y-132364250D01*
X104433750Y-132523000D01*
X106033000Y-132523000D01*
X106033000Y-130923750D01*
X106287000Y-130923750D01*
X106287000Y-132523000D01*
X107886250Y-132523000D01*
X107944906Y-132464344D01*
X109355000Y-132464344D01*
X109355000Y-132835656D01*
X109427439Y-133199834D01*
X109569534Y-133542882D01*
X109775825Y-133851618D01*
X110038382Y-134114175D01*
X110347118Y-134320466D01*
X110690166Y-134462561D01*
X111054344Y-134535000D01*
X111425656Y-134535000D01*
X111789834Y-134462561D01*
X112132882Y-134320466D01*
X112441618Y-134114175D01*
X112704175Y-133851618D01*
X112910466Y-133542882D01*
X113052561Y-133199834D01*
X113125000Y-132835656D01*
X113125000Y-132464344D01*
X113052561Y-132100166D01*
X112910466Y-131757118D01*
X112704175Y-131448382D01*
X112441618Y-131185825D01*
X112132882Y-130979534D01*
X111789834Y-130837439D01*
X111425656Y-130765000D01*
X111054344Y-130765000D01*
X110690166Y-130837439D01*
X110347118Y-130979534D01*
X110038382Y-131185825D01*
X109775825Y-131448382D01*
X109569534Y-131757118D01*
X109427439Y-132100166D01*
X109355000Y-132464344D01*
X107944906Y-132464344D01*
X108045000Y-132364250D01*
X108048072Y-131400000D01*
X108035812Y-131275518D01*
X107999502Y-131155820D01*
X107940537Y-131045506D01*
X107861185Y-130948815D01*
X107764494Y-130869463D01*
X107654180Y-130810498D01*
X107534482Y-130774188D01*
X107410000Y-130761928D01*
X106445750Y-130765000D01*
X106287000Y-130923750D01*
X106033000Y-130923750D01*
X105874250Y-130765000D01*
X104910000Y-130761928D01*
X104785518Y-130774188D01*
X104665820Y-130810498D01*
X104555506Y-130869463D01*
X104458815Y-130948815D01*
X104379463Y-131045506D01*
X104320498Y-131155820D01*
X104284188Y-131275518D01*
X104271928Y-131400000D01*
X90660000Y-131400000D01*
X90660000Y-116976890D01*
X108108524Y-116976890D01*
X108153175Y-117124099D01*
X108278359Y-117386920D01*
X108452412Y-117620269D01*
X108668645Y-117815178D01*
X108918748Y-117964157D01*
X109193109Y-118061481D01*
X109423000Y-117940814D01*
X109423000Y-116747000D01*
X109677000Y-116747000D01*
X109677000Y-117940814D01*
X109906891Y-118061481D01*
X110181252Y-117964157D01*
X110431355Y-117815178D01*
X110647588Y-117620269D01*
X110821641Y-117386920D01*
X110946825Y-117124099D01*
X110991476Y-116976890D01*
X110870155Y-116747000D01*
X109677000Y-116747000D01*
X109423000Y-116747000D01*
X108229845Y-116747000D01*
X108108524Y-116976890D01*
X90660000Y-116976890D01*
X90660000Y-111540000D01*
X108057815Y-111540000D01*
X108086487Y-111831111D01*
X108171401Y-112111034D01*
X108309294Y-112369014D01*
X108494866Y-112595134D01*
X108720986Y-112780706D01*
X108775791Y-112810000D01*
X108720986Y-112839294D01*
X108494866Y-113024866D01*
X108309294Y-113250986D01*
X108171401Y-113508966D01*
X108086487Y-113788889D01*
X108057815Y-114080000D01*
X108086487Y-114371111D01*
X108171401Y-114651034D01*
X108309294Y-114909014D01*
X108494866Y-115135134D01*
X108720986Y-115320706D01*
X108785523Y-115355201D01*
X108668645Y-115424822D01*
X108452412Y-115619731D01*
X108278359Y-115853080D01*
X108153175Y-116115901D01*
X108108524Y-116263110D01*
X108229845Y-116493000D01*
X109423000Y-116493000D01*
X109423000Y-116473000D01*
X109677000Y-116473000D01*
X109677000Y-116493000D01*
X110870155Y-116493000D01*
X110991476Y-116263110D01*
X110946825Y-116115901D01*
X110821641Y-115853080D01*
X110647588Y-115619731D01*
X110431355Y-115424822D01*
X110314477Y-115355201D01*
X110379014Y-115320706D01*
X110605134Y-115135134D01*
X110790706Y-114909014D01*
X110928599Y-114651034D01*
X111013513Y-114371111D01*
X111042185Y-114080000D01*
X111013513Y-113788889D01*
X110928599Y-113508966D01*
X110790706Y-113250986D01*
X110605134Y-113024866D01*
X110379014Y-112839294D01*
X110324209Y-112810000D01*
X110379014Y-112780706D01*
X110605134Y-112595134D01*
X110790706Y-112369014D01*
X110928599Y-112111034D01*
X111013513Y-111831111D01*
X111042185Y-111540000D01*
X111013513Y-111248889D01*
X110928599Y-110968966D01*
X110790706Y-110710986D01*
X110605134Y-110484866D01*
X110575313Y-110460393D01*
X110644180Y-110439502D01*
X110754494Y-110380537D01*
X110851185Y-110301185D01*
X110930537Y-110204494D01*
X110967683Y-110135000D01*
X111286785Y-110135000D01*
X111231423Y-110317502D01*
X111209509Y-110540000D01*
X111215001Y-110595762D01*
X111215000Y-127407849D01*
X111209509Y-127463600D01*
X111215000Y-127519351D01*
X111231423Y-127686098D01*
X111296324Y-127900046D01*
X111401716Y-128097223D01*
X111543551Y-128270049D01*
X111586865Y-128305596D01*
X118184409Y-134903141D01*
X118219951Y-134946449D01*
X118392777Y-135088284D01*
X118589953Y-135193676D01*
X118803901Y-135258577D01*
X118970648Y-135275000D01*
X118970657Y-135275000D01*
X119026399Y-135280490D01*
X119082141Y-135275000D01*
X119451448Y-135275000D01*
X119495863Y-135358094D01*
X119575215Y-135454785D01*
X119671906Y-135534137D01*
X119782220Y-135593102D01*
X119901918Y-135629412D01*
X120026400Y-135641672D01*
X121753600Y-135641672D01*
X121878082Y-135629412D01*
X121997780Y-135593102D01*
X122108094Y-135534137D01*
X122204785Y-135454785D01*
X122284137Y-135358094D01*
X122343102Y-135247780D01*
X122358586Y-135196735D01*
X122365203Y-135204797D01*
X122593394Y-135392069D01*
X122853736Y-135531225D01*
X123136223Y-135616916D01*
X123356381Y-135638600D01*
X123503619Y-135638600D01*
X123723777Y-135616916D01*
X124006264Y-135531225D01*
X124266606Y-135392069D01*
X124494797Y-135204797D01*
X124682069Y-134976606D01*
X124700000Y-134943060D01*
X124717931Y-134976606D01*
X124905203Y-135204797D01*
X125133394Y-135392069D01*
X125393736Y-135531225D01*
X125676223Y-135616916D01*
X125896381Y-135638600D01*
X126043619Y-135638600D01*
X126263777Y-135616916D01*
X126546264Y-135531225D01*
X126806606Y-135392069D01*
X127034797Y-135204797D01*
X127222069Y-134976606D01*
X127240000Y-134943060D01*
X127257931Y-134976606D01*
X127445203Y-135204797D01*
X127673394Y-135392069D01*
X127933736Y-135531225D01*
X128216223Y-135616916D01*
X128436381Y-135638600D01*
X128583619Y-135638600D01*
X128803777Y-135616916D01*
X129086264Y-135531225D01*
X129346606Y-135392069D01*
X129574797Y-135204797D01*
X129762069Y-134976606D01*
X129785863Y-134932090D01*
X129843183Y-135028488D01*
X130039707Y-135246854D01*
X130275056Y-135422684D01*
X130540186Y-135549222D01*
X130690974Y-135594958D01*
X130923000Y-135473817D01*
X130923000Y-134267000D01*
X130903000Y-134267000D01*
X130903000Y-134013000D01*
X130923000Y-134013000D01*
X130923000Y-133993000D01*
X131177000Y-133993000D01*
X131177000Y-134013000D01*
X131197000Y-134013000D01*
X131197000Y-134267000D01*
X131177000Y-134267000D01*
X131177000Y-135473817D01*
X131409026Y-135594958D01*
X131559814Y-135549222D01*
X131824944Y-135422684D01*
X132060293Y-135246854D01*
X132256817Y-135028488D01*
X132314137Y-134932090D01*
X132337931Y-134976606D01*
X132525203Y-135204797D01*
X132753394Y-135392069D01*
X133013736Y-135531225D01*
X133296223Y-135616916D01*
X133516381Y-135638600D01*
X133663619Y-135638600D01*
X133883777Y-135616916D01*
X134166264Y-135531225D01*
X134426606Y-135392069D01*
X134654797Y-135204797D01*
X134842069Y-134976606D01*
X134860000Y-134943060D01*
X134877931Y-134976606D01*
X135065203Y-135204797D01*
X135293394Y-135392069D01*
X135553736Y-135531225D01*
X135836223Y-135616916D01*
X136056381Y-135638600D01*
X136203619Y-135638600D01*
X136423777Y-135616916D01*
X136706264Y-135531225D01*
X136966606Y-135392069D01*
X137194797Y-135204797D01*
X137382069Y-134976606D01*
X137400000Y-134943060D01*
X137417931Y-134976606D01*
X137605203Y-135204797D01*
X137833394Y-135392069D01*
X138093736Y-135531225D01*
X138376223Y-135616916D01*
X138596381Y-135638600D01*
X138743619Y-135638600D01*
X138963777Y-135616916D01*
X139246264Y-135531225D01*
X139506606Y-135392069D01*
X139734797Y-135204797D01*
X139922069Y-134976606D01*
X139940000Y-134943060D01*
X139957931Y-134976606D01*
X140145203Y-135204797D01*
X140373394Y-135392069D01*
X140633736Y-135531225D01*
X140916223Y-135616916D01*
X141136381Y-135638600D01*
X141283619Y-135638600D01*
X141503777Y-135616916D01*
X141786264Y-135531225D01*
X142046606Y-135392069D01*
X142274797Y-135204797D01*
X142462069Y-134976606D01*
X142480000Y-134943060D01*
X142497931Y-134976606D01*
X142685203Y-135204797D01*
X142913394Y-135392069D01*
X143173736Y-135531225D01*
X143456223Y-135616916D01*
X143676381Y-135638600D01*
X143823619Y-135638600D01*
X144043777Y-135616916D01*
X144326264Y-135531225D01*
X144586606Y-135392069D01*
X144814797Y-135204797D01*
X145002069Y-134976606D01*
X145020000Y-134943060D01*
X145037931Y-134976606D01*
X145225203Y-135204797D01*
X145453394Y-135392069D01*
X145713736Y-135531225D01*
X145996223Y-135616916D01*
X146216381Y-135638600D01*
X146363619Y-135638600D01*
X146583777Y-135616916D01*
X146866264Y-135531225D01*
X147126606Y-135392069D01*
X147354797Y-135204797D01*
X147542069Y-134976606D01*
X147560000Y-134943060D01*
X147577931Y-134976606D01*
X147765203Y-135204797D01*
X147993394Y-135392069D01*
X148253736Y-135531225D01*
X148536223Y-135616916D01*
X148756381Y-135638600D01*
X148903619Y-135638600D01*
X149123777Y-135616916D01*
X149406264Y-135531225D01*
X149666606Y-135392069D01*
X149894797Y-135204797D01*
X150082069Y-134976606D01*
X150105863Y-134932090D01*
X150163183Y-135028488D01*
X150359707Y-135246854D01*
X150595056Y-135422684D01*
X150860186Y-135549222D01*
X151010974Y-135594958D01*
X151243000Y-135473817D01*
X151243000Y-134267000D01*
X151223000Y-134267000D01*
X151223000Y-134013000D01*
X151243000Y-134013000D01*
X151243000Y-133993000D01*
X151497000Y-133993000D01*
X151497000Y-134013000D01*
X151517000Y-134013000D01*
X151517000Y-134267000D01*
X151497000Y-134267000D01*
X151497000Y-135473817D01*
X151729026Y-135594958D01*
X151879814Y-135549222D01*
X152144944Y-135422684D01*
X152380293Y-135246854D01*
X152576817Y-135028488D01*
X152634137Y-134932090D01*
X152657931Y-134976606D01*
X152845203Y-135204797D01*
X153073394Y-135392069D01*
X153333736Y-135531225D01*
X153616223Y-135616916D01*
X153836381Y-135638600D01*
X153983619Y-135638600D01*
X154203777Y-135616916D01*
X154486264Y-135531225D01*
X154746606Y-135392069D01*
X154974797Y-135204797D01*
X155162069Y-134976606D01*
X155180000Y-134943060D01*
X155197931Y-134976606D01*
X155385203Y-135204797D01*
X155613394Y-135392069D01*
X155873736Y-135531225D01*
X156156223Y-135616916D01*
X156376381Y-135638600D01*
X156523619Y-135638600D01*
X156743777Y-135616916D01*
X157026264Y-135531225D01*
X157286606Y-135392069D01*
X157514797Y-135204797D01*
X157702069Y-134976606D01*
X157720000Y-134943060D01*
X157737931Y-134976606D01*
X157925203Y-135204797D01*
X158153394Y-135392069D01*
X158413736Y-135531225D01*
X158696223Y-135616916D01*
X158916381Y-135638600D01*
X159063619Y-135638600D01*
X159283777Y-135616916D01*
X159566264Y-135531225D01*
X159826606Y-135392069D01*
X160054797Y-135204797D01*
X160242069Y-134976606D01*
X160260000Y-134943060D01*
X160277931Y-134976606D01*
X160465203Y-135204797D01*
X160693394Y-135392069D01*
X160953736Y-135531225D01*
X161236223Y-135616916D01*
X161456381Y-135638600D01*
X161603619Y-135638600D01*
X161823777Y-135616916D01*
X162106264Y-135531225D01*
X162366606Y-135392069D01*
X162594797Y-135204797D01*
X162782069Y-134976606D01*
X162800000Y-134943060D01*
X162817931Y-134976606D01*
X163005203Y-135204797D01*
X163233394Y-135392069D01*
X163493736Y-135531225D01*
X163776223Y-135616916D01*
X163996381Y-135638600D01*
X164143619Y-135638600D01*
X164363777Y-135616916D01*
X164646264Y-135531225D01*
X164906606Y-135392069D01*
X165134797Y-135204797D01*
X165322069Y-134976606D01*
X165340000Y-134943060D01*
X165357931Y-134976606D01*
X165545203Y-135204797D01*
X165773394Y-135392069D01*
X166033736Y-135531225D01*
X166316223Y-135616916D01*
X166536381Y-135638600D01*
X166683619Y-135638600D01*
X166903777Y-135616916D01*
X167186264Y-135531225D01*
X167446606Y-135392069D01*
X167674797Y-135204797D01*
X167862069Y-134976606D01*
X167885863Y-134932090D01*
X167943183Y-135028488D01*
X168139707Y-135246854D01*
X168375056Y-135422684D01*
X168640186Y-135549222D01*
X168790974Y-135594958D01*
X169023000Y-135473817D01*
X169023000Y-134267000D01*
X169277000Y-134267000D01*
X169277000Y-135473817D01*
X169509026Y-135594958D01*
X169659814Y-135549222D01*
X169924944Y-135422684D01*
X170160293Y-135246854D01*
X170356817Y-135028488D01*
X170506964Y-134775978D01*
X170604963Y-134499027D01*
X170484464Y-134267000D01*
X169277000Y-134267000D01*
X169023000Y-134267000D01*
X169003000Y-134267000D01*
X169003000Y-134013000D01*
X169023000Y-134013000D01*
X169023000Y-133993000D01*
X169277000Y-133993000D01*
X169277000Y-134013000D01*
X170484464Y-134013000D01*
X170604963Y-133780973D01*
X170604574Y-133779872D01*
X181765000Y-133779872D01*
X181765000Y-134220128D01*
X181850890Y-134651925D01*
X182019369Y-135058669D01*
X182263962Y-135424729D01*
X182575271Y-135736038D01*
X182941331Y-135980631D01*
X183348075Y-136149110D01*
X183779872Y-136235000D01*
X184220128Y-136235000D01*
X184651925Y-136149110D01*
X185058669Y-135980631D01*
X185424729Y-135736038D01*
X185736038Y-135424729D01*
X185980631Y-135058669D01*
X186149110Y-134651925D01*
X186235000Y-134220128D01*
X186235000Y-133779872D01*
X186149110Y-133348075D01*
X185980631Y-132941331D01*
X185736038Y-132575271D01*
X185424729Y-132263962D01*
X185058669Y-132019369D01*
X184651925Y-131850890D01*
X184220128Y-131765000D01*
X183779872Y-131765000D01*
X183348075Y-131850890D01*
X182941331Y-132019369D01*
X182575271Y-132263962D01*
X182263962Y-132575271D01*
X182019369Y-132941331D01*
X181850890Y-133348075D01*
X181765000Y-133779872D01*
X170604574Y-133779872D01*
X170506964Y-133504022D01*
X170356817Y-133251512D01*
X170160293Y-133033146D01*
X169946567Y-132873470D01*
X169986606Y-132852069D01*
X170214797Y-132664797D01*
X170402069Y-132436606D01*
X170541225Y-132176264D01*
X170626916Y-131893777D01*
X170655851Y-131600000D01*
X170626916Y-131306223D01*
X170541225Y-131023736D01*
X170402069Y-130763394D01*
X170214797Y-130535203D01*
X169986606Y-130347931D01*
X169726264Y-130208775D01*
X169443777Y-130123084D01*
X169223619Y-130101400D01*
X169076381Y-130101400D01*
X168856223Y-130123084D01*
X168573736Y-130208775D01*
X168313394Y-130347931D01*
X168085203Y-130535203D01*
X167897931Y-130763394D01*
X167880000Y-130796940D01*
X167862069Y-130763394D01*
X167674797Y-130535203D01*
X167446606Y-130347931D01*
X167186264Y-130208775D01*
X166903777Y-130123084D01*
X166683619Y-130101400D01*
X166536381Y-130101400D01*
X166316223Y-130123084D01*
X166033736Y-130208775D01*
X165773394Y-130347931D01*
X165545203Y-130535203D01*
X165357931Y-130763394D01*
X165340000Y-130796940D01*
X165322069Y-130763394D01*
X165134797Y-130535203D01*
X164906606Y-130347931D01*
X164646264Y-130208775D01*
X164363777Y-130123084D01*
X164143619Y-130101400D01*
X163996381Y-130101400D01*
X163776223Y-130123084D01*
X163493736Y-130208775D01*
X163233394Y-130347931D01*
X163005203Y-130535203D01*
X162817931Y-130763394D01*
X162794137Y-130807910D01*
X162736817Y-130711512D01*
X162540293Y-130493146D01*
X162304944Y-130317316D01*
X162039814Y-130190778D01*
X161889026Y-130145042D01*
X161657000Y-130266183D01*
X161657000Y-131473000D01*
X161677000Y-131473000D01*
X161677000Y-131727000D01*
X161657000Y-131727000D01*
X161657000Y-131747000D01*
X161403000Y-131747000D01*
X161403000Y-131727000D01*
X161383000Y-131727000D01*
X161383000Y-131473000D01*
X161403000Y-131473000D01*
X161403000Y-130266183D01*
X161170974Y-130145042D01*
X161020186Y-130190778D01*
X160755056Y-130317316D01*
X160519707Y-130493146D01*
X160323183Y-130711512D01*
X160265863Y-130807910D01*
X160242069Y-130763394D01*
X160054797Y-130535203D01*
X159826606Y-130347931D01*
X159566264Y-130208775D01*
X159283777Y-130123084D01*
X159063619Y-130101400D01*
X158916381Y-130101400D01*
X158696223Y-130123084D01*
X158413736Y-130208775D01*
X158153394Y-130347931D01*
X157925203Y-130535203D01*
X157737931Y-130763394D01*
X157714137Y-130807910D01*
X157656817Y-130711512D01*
X157460293Y-130493146D01*
X157224944Y-130317316D01*
X156959814Y-130190778D01*
X156809026Y-130145042D01*
X156577000Y-130266183D01*
X156577000Y-131473000D01*
X156597000Y-131473000D01*
X156597000Y-131727000D01*
X156577000Y-131727000D01*
X156577000Y-131747000D01*
X156323000Y-131747000D01*
X156323000Y-131727000D01*
X156303000Y-131727000D01*
X156303000Y-131473000D01*
X156323000Y-131473000D01*
X156323000Y-130266183D01*
X156090974Y-130145042D01*
X155940186Y-130190778D01*
X155675056Y-130317316D01*
X155439707Y-130493146D01*
X155243183Y-130711512D01*
X155185863Y-130807910D01*
X155162069Y-130763394D01*
X154974797Y-130535203D01*
X154746606Y-130347931D01*
X154486264Y-130208775D01*
X154203777Y-130123084D01*
X153983619Y-130101400D01*
X153836381Y-130101400D01*
X153616223Y-130123084D01*
X153333736Y-130208775D01*
X153073394Y-130347931D01*
X152845203Y-130535203D01*
X152657931Y-130763394D01*
X152640000Y-130796940D01*
X152622069Y-130763394D01*
X152434797Y-130535203D01*
X152206606Y-130347931D01*
X151946264Y-130208775D01*
X151663777Y-130123084D01*
X151443619Y-130101400D01*
X151296381Y-130101400D01*
X151281984Y-130102818D01*
X151829802Y-129555000D01*
X151891939Y-129555000D01*
X152091898Y-129515226D01*
X152280256Y-129437205D01*
X152449774Y-129323937D01*
X152593937Y-129179774D01*
X152707205Y-129010256D01*
X152785226Y-128821898D01*
X152825000Y-128621939D01*
X152825000Y-128418061D01*
X152785226Y-128218102D01*
X152707205Y-128029744D01*
X152593937Y-127860226D01*
X152449774Y-127716063D01*
X152280256Y-127602795D01*
X152091898Y-127524774D01*
X151891939Y-127485000D01*
X151688061Y-127485000D01*
X151488102Y-127524774D01*
X151299744Y-127602795D01*
X151130226Y-127716063D01*
X150986063Y-127860226D01*
X150872795Y-128029744D01*
X150794774Y-128218102D01*
X150755000Y-128418061D01*
X150755000Y-128480198D01*
X149113160Y-130122038D01*
X148903619Y-130101400D01*
X148756381Y-130101400D01*
X148536223Y-130123084D01*
X148253736Y-130208775D01*
X147993394Y-130347931D01*
X147765203Y-130535203D01*
X147577931Y-130763394D01*
X147560000Y-130796940D01*
X147542069Y-130763394D01*
X147354797Y-130535203D01*
X147126606Y-130347931D01*
X146866264Y-130208775D01*
X146583777Y-130123084D01*
X146363619Y-130101400D01*
X146216381Y-130101400D01*
X145996223Y-130123084D01*
X145713736Y-130208775D01*
X145688235Y-130222406D01*
X145687604Y-130216001D01*
X145644147Y-130072740D01*
X145573575Y-129940711D01*
X145478602Y-129824986D01*
X145449603Y-129801188D01*
X144845000Y-129196585D01*
X144845000Y-129134447D01*
X144805226Y-128934488D01*
X144727205Y-128746130D01*
X144613937Y-128576612D01*
X144469774Y-128432449D01*
X144300256Y-128319181D01*
X144111898Y-128241160D01*
X143911939Y-128201386D01*
X143708061Y-128201386D01*
X143508102Y-128241160D01*
X143319744Y-128319181D01*
X143150226Y-128432449D01*
X143006063Y-128576612D01*
X142892795Y-128746130D01*
X142814774Y-128934488D01*
X142775000Y-129134447D01*
X142775000Y-129338325D01*
X142814774Y-129538284D01*
X142892795Y-129726642D01*
X143006063Y-129896160D01*
X143150226Y-130040323D01*
X143319744Y-130153591D01*
X143337940Y-130161128D01*
X143240186Y-130190778D01*
X142975056Y-130317316D01*
X142739707Y-130493146D01*
X142543183Y-130711512D01*
X142485863Y-130807910D01*
X142462069Y-130763394D01*
X142274797Y-130535203D01*
X142046606Y-130347931D01*
X141786264Y-130208775D01*
X141503777Y-130123084D01*
X141283619Y-130101400D01*
X141136381Y-130101400D01*
X141033243Y-130111558D01*
X144794802Y-126350000D01*
X149781957Y-126350000D01*
X149885363Y-126504759D01*
X150085241Y-126704637D01*
X150320273Y-126861680D01*
X150581426Y-126969853D01*
X150858665Y-127025000D01*
X151141335Y-127025000D01*
X151418574Y-126969853D01*
X151679727Y-126861680D01*
X151914759Y-126704637D01*
X152114637Y-126504759D01*
X152271680Y-126269727D01*
X152379853Y-126008574D01*
X152435000Y-125731335D01*
X152435000Y-125448665D01*
X152379853Y-125171426D01*
X152271680Y-124910273D01*
X152114637Y-124675241D01*
X151914759Y-124475363D01*
X151679727Y-124318320D01*
X151418574Y-124210147D01*
X151141335Y-124155000D01*
X150858665Y-124155000D01*
X150581426Y-124210147D01*
X150320273Y-124318320D01*
X150085241Y-124475363D01*
X149885363Y-124675241D01*
X149781957Y-124830000D01*
X144694802Y-124830000D01*
X146701004Y-122823798D01*
X146730001Y-122800001D01*
X146824974Y-122684276D01*
X146895546Y-122552247D01*
X146939003Y-122408986D01*
X146945929Y-122338665D01*
X149565000Y-122338665D01*
X149565000Y-122621335D01*
X149620147Y-122898574D01*
X149728320Y-123159727D01*
X149885363Y-123394759D01*
X150085241Y-123594637D01*
X150320273Y-123751680D01*
X150581426Y-123859853D01*
X150858665Y-123915000D01*
X151141335Y-123915000D01*
X151418574Y-123859853D01*
X151679727Y-123751680D01*
X151914759Y-123594637D01*
X152114637Y-123394759D01*
X152271680Y-123159727D01*
X152379853Y-122898574D01*
X152435000Y-122621335D01*
X152435000Y-122338665D01*
X152379853Y-122061426D01*
X152271680Y-121800273D01*
X152114637Y-121565241D01*
X151914759Y-121365363D01*
X151679727Y-121208320D01*
X151418574Y-121100147D01*
X151141335Y-121045000D01*
X150858665Y-121045000D01*
X150581426Y-121100147D01*
X150320273Y-121208320D01*
X150085241Y-121365363D01*
X149885363Y-121565241D01*
X149728320Y-121800273D01*
X149620147Y-122061426D01*
X149565000Y-122338665D01*
X146945929Y-122338665D01*
X146950000Y-122297333D01*
X146950000Y-122297325D01*
X146953676Y-122260000D01*
X146950000Y-122222675D01*
X146950000Y-121494801D01*
X149716859Y-118727943D01*
X149620147Y-118961426D01*
X149565000Y-119238665D01*
X149565000Y-119521335D01*
X149620147Y-119798574D01*
X149728320Y-120059727D01*
X149885363Y-120294759D01*
X150085241Y-120494637D01*
X150320273Y-120651680D01*
X150581426Y-120759853D01*
X150858665Y-120815000D01*
X151141335Y-120815000D01*
X151418574Y-120759853D01*
X151679727Y-120651680D01*
X151914759Y-120494637D01*
X152114637Y-120294759D01*
X152271680Y-120059727D01*
X152379853Y-119798574D01*
X152435000Y-119521335D01*
X152435000Y-119238665D01*
X152379853Y-118961426D01*
X152271680Y-118700273D01*
X152114637Y-118465241D01*
X151914759Y-118265363D01*
X151679727Y-118108320D01*
X151418574Y-118000147D01*
X151141335Y-117945000D01*
X150858665Y-117945000D01*
X150581426Y-118000147D01*
X150347943Y-118096859D01*
X150676114Y-117768688D01*
X150858665Y-117805000D01*
X151141335Y-117805000D01*
X151418574Y-117749853D01*
X151679727Y-117641680D01*
X151914759Y-117484637D01*
X152114637Y-117284759D01*
X152218043Y-117130000D01*
X152712678Y-117130000D01*
X152750000Y-117133676D01*
X152787322Y-117130000D01*
X152787333Y-117130000D01*
X152898986Y-117119003D01*
X153042247Y-117075546D01*
X153174276Y-117004974D01*
X153290001Y-116910001D01*
X153313804Y-116880997D01*
X161489388Y-108705413D01*
X165094192Y-108705413D01*
X165189956Y-108969814D01*
X165479571Y-109110704D01*
X165791108Y-109192384D01*
X166112595Y-109211718D01*
X166431675Y-109167961D01*
X166736088Y-109062795D01*
X166910044Y-108969814D01*
X167005808Y-108705413D01*
X171594192Y-108705413D01*
X171689956Y-108969814D01*
X171979571Y-109110704D01*
X172291108Y-109192384D01*
X172612595Y-109211718D01*
X172931675Y-109167961D01*
X173236088Y-109062795D01*
X173410044Y-108969814D01*
X173505808Y-108705413D01*
X172550000Y-107749605D01*
X171594192Y-108705413D01*
X167005808Y-108705413D01*
X166050000Y-107749605D01*
X165094192Y-108705413D01*
X161489388Y-108705413D01*
X162562206Y-107632595D01*
X164408282Y-107632595D01*
X164452039Y-107951675D01*
X164557205Y-108256088D01*
X164650186Y-108430044D01*
X164914587Y-108525808D01*
X165870395Y-107570000D01*
X166229605Y-107570000D01*
X167185413Y-108525808D01*
X167449814Y-108430044D01*
X167590704Y-108140429D01*
X167672384Y-107828892D01*
X167684189Y-107632595D01*
X170908282Y-107632595D01*
X170952039Y-107951675D01*
X171057205Y-108256088D01*
X171150186Y-108430044D01*
X171414587Y-108525808D01*
X172370395Y-107570000D01*
X172729605Y-107570000D01*
X173685413Y-108525808D01*
X173949814Y-108430044D01*
X174090704Y-108140429D01*
X174172384Y-107828892D01*
X174191718Y-107507405D01*
X174147961Y-107188325D01*
X174042795Y-106883912D01*
X173949814Y-106709956D01*
X173685413Y-106614192D01*
X172729605Y-107570000D01*
X172370395Y-107570000D01*
X171414587Y-106614192D01*
X171150186Y-106709956D01*
X171009296Y-106999571D01*
X170927616Y-107311108D01*
X170908282Y-107632595D01*
X167684189Y-107632595D01*
X167691718Y-107507405D01*
X167647961Y-107188325D01*
X167542795Y-106883912D01*
X167449814Y-106709956D01*
X167185413Y-106614192D01*
X166229605Y-107570000D01*
X165870395Y-107570000D01*
X164914587Y-106614192D01*
X164650186Y-106709956D01*
X164509296Y-106999571D01*
X164427616Y-107311108D01*
X164408282Y-107632595D01*
X162562206Y-107632595D01*
X163760214Y-106434587D01*
X165094192Y-106434587D01*
X166050000Y-107390395D01*
X167005808Y-106434587D01*
X171594192Y-106434587D01*
X172550000Y-107390395D01*
X173505808Y-106434587D01*
X173410044Y-106170186D01*
X173120429Y-106029296D01*
X172808892Y-105947616D01*
X172487405Y-105928282D01*
X172168325Y-105972039D01*
X171863912Y-106077205D01*
X171689956Y-106170186D01*
X171594192Y-106434587D01*
X167005808Y-106434587D01*
X166910044Y-106170186D01*
X166620429Y-106029296D01*
X166308892Y-105947616D01*
X165987405Y-105928282D01*
X165668325Y-105972039D01*
X165363912Y-106077205D01*
X165189956Y-106170186D01*
X165094192Y-106434587D01*
X163760214Y-106434587D01*
X165558625Y-104636177D01*
X165573088Y-104642168D01*
X165888967Y-104705000D01*
X166211033Y-104705000D01*
X166526912Y-104642168D01*
X166824463Y-104518918D01*
X167092252Y-104339987D01*
X167319987Y-104112252D01*
X167498918Y-103844463D01*
X167504909Y-103830000D01*
X171095091Y-103830000D01*
X171101082Y-103844463D01*
X171280013Y-104112252D01*
X171507748Y-104339987D01*
X171775537Y-104518918D01*
X172073088Y-104642168D01*
X172388967Y-104705000D01*
X172711033Y-104705000D01*
X173026912Y-104642168D01*
X173324463Y-104518918D01*
X173592252Y-104339987D01*
X173819987Y-104112252D01*
X173998918Y-103844463D01*
X174122168Y-103546912D01*
X174185000Y-103231033D01*
X174185000Y-102908967D01*
X174122168Y-102593088D01*
X173998918Y-102295537D01*
X173819987Y-102027748D01*
X173592252Y-101800013D01*
X173324463Y-101621082D01*
X173026912Y-101497832D01*
X172711033Y-101435000D01*
X172388967Y-101435000D01*
X172073088Y-101497832D01*
X171775537Y-101621082D01*
X171507748Y-101800013D01*
X171280013Y-102027748D01*
X171101082Y-102295537D01*
X171095091Y-102310000D01*
X167504909Y-102310000D01*
X167498918Y-102295537D01*
X167319987Y-102027748D01*
X167092252Y-101800013D01*
X166824463Y-101621082D01*
X166526912Y-101497832D01*
X166211033Y-101435000D01*
X165888967Y-101435000D01*
X165573088Y-101497832D01*
X165275537Y-101621082D01*
X165007748Y-101800013D01*
X164780013Y-102027748D01*
X164601082Y-102295537D01*
X164477832Y-102593088D01*
X164415000Y-102908967D01*
X164415000Y-103231033D01*
X164477832Y-103546912D01*
X164483823Y-103561375D01*
X152435199Y-115610000D01*
X152218043Y-115610000D01*
X152114637Y-115455241D01*
X151914759Y-115255363D01*
X151679727Y-115098320D01*
X151418574Y-114990147D01*
X151141335Y-114935000D01*
X150858665Y-114935000D01*
X150581426Y-114990147D01*
X150320273Y-115098320D01*
X150085241Y-115255363D01*
X149885363Y-115455241D01*
X149728320Y-115690273D01*
X149620147Y-115951426D01*
X149565000Y-116228665D01*
X149565000Y-116511335D01*
X149601312Y-116693886D01*
X146130000Y-120165199D01*
X146130000Y-114844801D01*
X152474802Y-108500000D01*
X157632678Y-108500000D01*
X157670000Y-108503676D01*
X157707322Y-108500000D01*
X157707333Y-108500000D01*
X157818986Y-108489003D01*
X157962247Y-108445546D01*
X158094276Y-108374974D01*
X158210001Y-108280001D01*
X158233804Y-108250997D01*
X159681070Y-106803731D01*
X159938816Y-106855000D01*
X160241184Y-106855000D01*
X160537743Y-106796011D01*
X160817095Y-106680299D01*
X161068505Y-106512312D01*
X161282312Y-106298505D01*
X161450299Y-106047095D01*
X161566011Y-105767743D01*
X161625000Y-105471184D01*
X161625000Y-105168816D01*
X161566011Y-104872257D01*
X161450299Y-104592905D01*
X161282312Y-104341495D01*
X161068505Y-104127688D01*
X160817095Y-103959701D01*
X160537743Y-103843989D01*
X160241184Y-103785000D01*
X159938816Y-103785000D01*
X159642257Y-103843989D01*
X159362905Y-103959701D01*
X159111495Y-104127688D01*
X159045056Y-104194127D01*
X159039502Y-104175820D01*
X158980537Y-104065506D01*
X158901185Y-103968815D01*
X158804494Y-103889463D01*
X158694180Y-103830498D01*
X158574482Y-103794188D01*
X158450000Y-103781928D01*
X156650000Y-103781928D01*
X156525518Y-103794188D01*
X156405820Y-103830498D01*
X156295506Y-103889463D01*
X156198815Y-103968815D01*
X156119463Y-104065506D01*
X156060498Y-104175820D01*
X156024188Y-104295518D01*
X156011928Y-104420000D01*
X156011928Y-106220000D01*
X156024188Y-106344482D01*
X156060498Y-106464180D01*
X156119463Y-106574494D01*
X156198815Y-106671185D01*
X156295506Y-106750537D01*
X156405820Y-106809502D01*
X156525518Y-106845812D01*
X156650000Y-106858072D01*
X157477127Y-106858072D01*
X157355199Y-106980000D01*
X152197322Y-106980000D01*
X152159999Y-106976324D01*
X152122676Y-106980000D01*
X152122667Y-106980000D01*
X152011014Y-106990997D01*
X151867753Y-107034454D01*
X151735723Y-107105026D01*
X151670333Y-107158691D01*
X151619999Y-107199999D01*
X151596201Y-107228997D01*
X145679989Y-113145210D01*
X145679989Y-112854812D01*
X151731071Y-106803732D01*
X151988816Y-106855000D01*
X152291184Y-106855000D01*
X152587743Y-106796011D01*
X152867095Y-106680299D01*
X153118505Y-106512312D01*
X153332312Y-106298505D01*
X153500299Y-106047095D01*
X153616011Y-105767743D01*
X153675000Y-105471184D01*
X153675000Y-105168816D01*
X153616011Y-104872257D01*
X153500299Y-104592905D01*
X153332312Y-104341495D01*
X153118505Y-104127688D01*
X152867095Y-103959701D01*
X152587743Y-103843989D01*
X152291184Y-103785000D01*
X151988816Y-103785000D01*
X151692257Y-103843989D01*
X151412905Y-103959701D01*
X151161495Y-104127688D01*
X151095056Y-104194127D01*
X151089502Y-104175820D01*
X151030537Y-104065506D01*
X150951185Y-103968815D01*
X150854494Y-103889463D01*
X150744180Y-103830498D01*
X150624482Y-103794188D01*
X150500000Y-103781928D01*
X148700000Y-103781928D01*
X148575518Y-103794188D01*
X148455820Y-103830498D01*
X148345506Y-103889463D01*
X148248815Y-103968815D01*
X148169463Y-104065506D01*
X148110498Y-104175820D01*
X148074188Y-104295518D01*
X148061928Y-104420000D01*
X148061928Y-106220000D01*
X148074188Y-106344482D01*
X148110498Y-106464180D01*
X148169463Y-106574494D01*
X148248815Y-106671185D01*
X148345506Y-106750537D01*
X148455820Y-106809502D01*
X148575518Y-106845812D01*
X148700000Y-106858072D01*
X149527126Y-106858072D01*
X145100000Y-111285199D01*
X145100000Y-106658313D01*
X145318505Y-106512312D01*
X145532312Y-106298505D01*
X145700299Y-106047095D01*
X145816011Y-105767743D01*
X145875000Y-105471184D01*
X145875000Y-105168816D01*
X145816011Y-104872257D01*
X145700299Y-104592905D01*
X145532312Y-104341495D01*
X145318505Y-104127688D01*
X145067095Y-103959701D01*
X144787743Y-103843989D01*
X144491184Y-103785000D01*
X144188816Y-103785000D01*
X143892257Y-103843989D01*
X143612905Y-103959701D01*
X143361495Y-104127688D01*
X143295056Y-104194127D01*
X143289502Y-104175820D01*
X143230537Y-104065506D01*
X143151185Y-103968815D01*
X143054494Y-103889463D01*
X142944180Y-103830498D01*
X142824482Y-103794188D01*
X142700000Y-103781928D01*
X140900000Y-103781928D01*
X140775518Y-103794188D01*
X140655820Y-103830498D01*
X140545506Y-103889463D01*
X140448815Y-103968815D01*
X140369463Y-104065506D01*
X140310498Y-104175820D01*
X140274188Y-104295518D01*
X140261928Y-104420000D01*
X140261928Y-106220000D01*
X140274188Y-106344482D01*
X140310498Y-106464180D01*
X140369463Y-106574494D01*
X140448815Y-106671185D01*
X140545506Y-106750537D01*
X140655820Y-106809502D01*
X140775518Y-106845812D01*
X140900000Y-106858072D01*
X142700000Y-106858072D01*
X142824482Y-106845812D01*
X142944180Y-106809502D01*
X143054494Y-106750537D01*
X143151185Y-106671185D01*
X143230537Y-106574494D01*
X143289502Y-106464180D01*
X143295056Y-106445873D01*
X143361495Y-106512312D01*
X143580000Y-106658313D01*
X143580001Y-115565196D01*
X142113381Y-117031817D01*
X142172182Y-116921808D01*
X142254236Y-116651309D01*
X142281943Y-116370000D01*
X142254236Y-116088691D01*
X142172182Y-115818192D01*
X142038932Y-115568899D01*
X141859608Y-115350392D01*
X141641101Y-115171068D01*
X141391808Y-115037818D01*
X141121309Y-114955764D01*
X140910492Y-114935000D01*
X140769508Y-114935000D01*
X140558691Y-114955764D01*
X140288192Y-115037818D01*
X140038899Y-115171068D01*
X139820392Y-115350392D01*
X139641068Y-115568899D01*
X139507818Y-115818192D01*
X139425764Y-116088691D01*
X139398057Y-116370000D01*
X139425764Y-116651309D01*
X139507818Y-116921808D01*
X139641068Y-117171101D01*
X139820392Y-117389608D01*
X140038899Y-117568932D01*
X140288192Y-117702182D01*
X140558691Y-117784236D01*
X140769508Y-117805000D01*
X140910492Y-117805000D01*
X141121309Y-117784236D01*
X141391808Y-117702182D01*
X141501818Y-117643380D01*
X141165906Y-117979292D01*
X141121309Y-117965764D01*
X140910492Y-117945000D01*
X140769508Y-117945000D01*
X140558691Y-117965764D01*
X140288192Y-118047818D01*
X140038899Y-118181068D01*
X139820392Y-118360392D01*
X139641068Y-118578899D01*
X139507818Y-118828192D01*
X139425764Y-119098691D01*
X139398057Y-119380000D01*
X139425764Y-119661309D01*
X139507818Y-119931808D01*
X139641068Y-120181101D01*
X139820392Y-120399608D01*
X140038899Y-120578932D01*
X140288192Y-120712182D01*
X140558691Y-120794236D01*
X140769508Y-120815000D01*
X140910492Y-120815000D01*
X141121309Y-120794236D01*
X141391808Y-120712182D01*
X141641101Y-120578932D01*
X141781440Y-120463759D01*
X141165907Y-121079292D01*
X141121309Y-121065764D01*
X140910492Y-121045000D01*
X140769508Y-121045000D01*
X140558691Y-121065764D01*
X140288192Y-121147818D01*
X140038899Y-121281068D01*
X139820392Y-121460392D01*
X139641068Y-121678899D01*
X139507818Y-121928192D01*
X139425764Y-122198691D01*
X139398057Y-122480000D01*
X139425764Y-122761309D01*
X139507818Y-123031808D01*
X139641068Y-123281101D01*
X139820392Y-123499608D01*
X140038899Y-123678932D01*
X140288192Y-123812182D01*
X140558691Y-123894236D01*
X140769508Y-123915000D01*
X140910492Y-123915000D01*
X141121309Y-123894236D01*
X141391808Y-123812182D01*
X141641101Y-123678932D01*
X141837203Y-123517995D01*
X141165906Y-124189292D01*
X141121309Y-124175764D01*
X140910492Y-124155000D01*
X140769508Y-124155000D01*
X140558691Y-124175764D01*
X140288192Y-124257818D01*
X140038899Y-124391068D01*
X139820392Y-124570392D01*
X139641068Y-124788899D01*
X139507818Y-125038192D01*
X139425764Y-125308691D01*
X139398057Y-125590000D01*
X139425764Y-125871309D01*
X139507818Y-126141808D01*
X139641068Y-126391101D01*
X139820392Y-126609608D01*
X140038899Y-126788932D01*
X140288192Y-126922182D01*
X140414655Y-126960544D01*
X136992483Y-130382716D01*
X136904944Y-130317316D01*
X136639814Y-130190778D01*
X136489026Y-130145042D01*
X136257000Y-130266183D01*
X136257000Y-131473000D01*
X136277000Y-131473000D01*
X136277000Y-131727000D01*
X136257000Y-131727000D01*
X136257000Y-131747000D01*
X136003000Y-131747000D01*
X136003000Y-131727000D01*
X135983000Y-131727000D01*
X135983000Y-131473000D01*
X136003000Y-131473000D01*
X136003000Y-130266183D01*
X135770974Y-130145042D01*
X135620186Y-130190778D01*
X135355056Y-130317316D01*
X135119707Y-130493146D01*
X134923183Y-130711512D01*
X134865863Y-130807910D01*
X134842069Y-130763394D01*
X134654797Y-130535203D01*
X134426606Y-130347931D01*
X134166264Y-130208775D01*
X133883777Y-130123084D01*
X133663619Y-130101400D01*
X133516381Y-130101400D01*
X133296223Y-130123084D01*
X133013736Y-130208775D01*
X132753394Y-130347931D01*
X132525203Y-130535203D01*
X132337931Y-130763394D01*
X132320000Y-130796940D01*
X132302069Y-130763394D01*
X132114797Y-130535203D01*
X131886606Y-130347931D01*
X131626264Y-130208775D01*
X131343777Y-130123084D01*
X131123619Y-130101400D01*
X130976381Y-130101400D01*
X130756223Y-130123084D01*
X130473736Y-130208775D01*
X130213394Y-130347931D01*
X129985203Y-130535203D01*
X129797931Y-130763394D01*
X129780000Y-130796940D01*
X129762069Y-130763394D01*
X129574797Y-130535203D01*
X129346606Y-130347931D01*
X129086264Y-130208775D01*
X128803777Y-130123084D01*
X128583619Y-130101400D01*
X128436381Y-130101400D01*
X128216223Y-130123084D01*
X127933736Y-130208775D01*
X127673394Y-130347931D01*
X127445203Y-130535203D01*
X127257931Y-130763394D01*
X127234137Y-130807910D01*
X127176817Y-130711512D01*
X126980293Y-130493146D01*
X126744944Y-130317316D01*
X126479814Y-130190778D01*
X126329026Y-130145042D01*
X126097000Y-130266183D01*
X126097000Y-131473000D01*
X126117000Y-131473000D01*
X126117000Y-131727000D01*
X126097000Y-131727000D01*
X126097000Y-131747000D01*
X125843000Y-131747000D01*
X125843000Y-131727000D01*
X125823000Y-131727000D01*
X125823000Y-131473000D01*
X125843000Y-131473000D01*
X125843000Y-130266183D01*
X125610974Y-130145042D01*
X125460186Y-130190778D01*
X125195056Y-130317316D01*
X124959707Y-130493146D01*
X124763183Y-130711512D01*
X124705863Y-130807910D01*
X124682069Y-130763394D01*
X124494797Y-130535203D01*
X124266606Y-130347931D01*
X124006264Y-130208775D01*
X123723777Y-130123084D01*
X123503619Y-130101400D01*
X123356381Y-130101400D01*
X123136223Y-130123084D01*
X122853736Y-130208775D01*
X122593394Y-130347931D01*
X122365203Y-130535203D01*
X122177931Y-130763394D01*
X122160000Y-130796940D01*
X122142069Y-130763394D01*
X121954797Y-130535203D01*
X121726606Y-130347931D01*
X121466264Y-130208775D01*
X121183777Y-130123084D01*
X120963619Y-130101400D01*
X120816381Y-130101400D01*
X120596223Y-130123084D01*
X120313736Y-130208775D01*
X120053394Y-130347931D01*
X119825203Y-130535203D01*
X119637931Y-130763394D01*
X119498775Y-131023736D01*
X119413084Y-131306223D01*
X119384149Y-131600000D01*
X119413084Y-131893777D01*
X119498775Y-132176264D01*
X119637931Y-132436606D01*
X119825203Y-132664797D01*
X119833265Y-132671414D01*
X119782220Y-132686898D01*
X119671906Y-132745863D01*
X119575215Y-132825215D01*
X119495863Y-132921906D01*
X119467152Y-132975620D01*
X113485000Y-126993469D01*
X113485000Y-120000000D01*
X118911928Y-120000000D01*
X118911928Y-121700000D01*
X118924188Y-121824482D01*
X118960498Y-121944180D01*
X119019463Y-122054494D01*
X119098815Y-122151185D01*
X119195506Y-122230537D01*
X119305820Y-122289502D01*
X119425518Y-122325812D01*
X119550000Y-122338072D01*
X121250000Y-122338072D01*
X121374482Y-122325812D01*
X121494180Y-122289502D01*
X121604494Y-122230537D01*
X121701185Y-122151185D01*
X121780537Y-122054494D01*
X121839502Y-121944180D01*
X121860393Y-121875313D01*
X121884866Y-121905134D01*
X122110986Y-122090706D01*
X122368966Y-122228599D01*
X122648889Y-122313513D01*
X122867050Y-122335000D01*
X123012950Y-122335000D01*
X123231111Y-122313513D01*
X123511034Y-122228599D01*
X123769014Y-122090706D01*
X123995134Y-121905134D01*
X124180706Y-121679014D01*
X124215201Y-121614477D01*
X124284822Y-121731355D01*
X124479731Y-121947588D01*
X124713080Y-122121641D01*
X124975901Y-122246825D01*
X125123110Y-122291476D01*
X125353000Y-122170155D01*
X125353000Y-120977000D01*
X125333000Y-120977000D01*
X125333000Y-120723000D01*
X125353000Y-120723000D01*
X125353000Y-119529845D01*
X125607000Y-119529845D01*
X125607000Y-120723000D01*
X125627000Y-120723000D01*
X125627000Y-120977000D01*
X125607000Y-120977000D01*
X125607000Y-122170155D01*
X125836890Y-122291476D01*
X125984099Y-122246825D01*
X126246920Y-122121641D01*
X126480269Y-121947588D01*
X126675178Y-121731355D01*
X126744799Y-121614477D01*
X126779294Y-121679014D01*
X126964866Y-121905134D01*
X127190986Y-122090706D01*
X127448966Y-122228599D01*
X127728889Y-122313513D01*
X127947050Y-122335000D01*
X128092950Y-122335000D01*
X128311111Y-122313513D01*
X128591034Y-122228599D01*
X128849014Y-122090706D01*
X129075134Y-121905134D01*
X129260706Y-121679014D01*
X129295201Y-121614477D01*
X129364822Y-121731355D01*
X129559731Y-121947588D01*
X129793080Y-122121641D01*
X130055901Y-122246825D01*
X130203110Y-122291476D01*
X130433000Y-122170155D01*
X130433000Y-120977000D01*
X130413000Y-120977000D01*
X130413000Y-120723000D01*
X130433000Y-120723000D01*
X130433000Y-119529845D01*
X130687000Y-119529845D01*
X130687000Y-120723000D01*
X130707000Y-120723000D01*
X130707000Y-120977000D01*
X130687000Y-120977000D01*
X130687000Y-122170155D01*
X130916890Y-122291476D01*
X131064099Y-122246825D01*
X131326920Y-122121641D01*
X131560269Y-121947588D01*
X131755178Y-121731355D01*
X131824799Y-121614477D01*
X131859294Y-121679014D01*
X132044866Y-121905134D01*
X132270986Y-122090706D01*
X132528966Y-122228599D01*
X132808889Y-122313513D01*
X133027050Y-122335000D01*
X133172950Y-122335000D01*
X133391111Y-122313513D01*
X133671034Y-122228599D01*
X133929014Y-122090706D01*
X134155134Y-121905134D01*
X134340706Y-121679014D01*
X134478599Y-121421034D01*
X134563513Y-121141111D01*
X134592185Y-120850000D01*
X134563513Y-120558889D01*
X134478599Y-120278966D01*
X134340706Y-120020986D01*
X134155134Y-119794866D01*
X133929014Y-119609294D01*
X133671034Y-119471401D01*
X133391111Y-119386487D01*
X133172950Y-119365000D01*
X133027050Y-119365000D01*
X132808889Y-119386487D01*
X132528966Y-119471401D01*
X132270986Y-119609294D01*
X132044866Y-119794866D01*
X131859294Y-120020986D01*
X131824799Y-120085523D01*
X131755178Y-119968645D01*
X131560269Y-119752412D01*
X131326920Y-119578359D01*
X131064099Y-119453175D01*
X130916890Y-119408524D01*
X130687000Y-119529845D01*
X130433000Y-119529845D01*
X130203110Y-119408524D01*
X130055901Y-119453175D01*
X129793080Y-119578359D01*
X129559731Y-119752412D01*
X129364822Y-119968645D01*
X129295201Y-120085523D01*
X129260706Y-120020986D01*
X129075134Y-119794866D01*
X128849014Y-119609294D01*
X128591034Y-119471401D01*
X128311111Y-119386487D01*
X128092950Y-119365000D01*
X127947050Y-119365000D01*
X127728889Y-119386487D01*
X127448966Y-119471401D01*
X127190986Y-119609294D01*
X126964866Y-119794866D01*
X126779294Y-120020986D01*
X126744799Y-120085523D01*
X126675178Y-119968645D01*
X126480269Y-119752412D01*
X126246920Y-119578359D01*
X125984099Y-119453175D01*
X125836890Y-119408524D01*
X125607000Y-119529845D01*
X125353000Y-119529845D01*
X125123110Y-119408524D01*
X124975901Y-119453175D01*
X124713080Y-119578359D01*
X124479731Y-119752412D01*
X124284822Y-119968645D01*
X124215201Y-120085523D01*
X124180706Y-120020986D01*
X123995134Y-119794866D01*
X123769014Y-119609294D01*
X123511034Y-119471401D01*
X123231111Y-119386487D01*
X123012950Y-119365000D01*
X122867050Y-119365000D01*
X122648889Y-119386487D01*
X122368966Y-119471401D01*
X122110986Y-119609294D01*
X121884866Y-119794866D01*
X121860393Y-119824687D01*
X121839502Y-119755820D01*
X121780537Y-119645506D01*
X121701185Y-119548815D01*
X121604494Y-119469463D01*
X121494180Y-119410498D01*
X121374482Y-119374188D01*
X121250000Y-119361928D01*
X119550000Y-119361928D01*
X119425518Y-119374188D01*
X119305820Y-119410498D01*
X119195506Y-119469463D01*
X119098815Y-119548815D01*
X119019463Y-119645506D01*
X118960498Y-119755820D01*
X118924188Y-119875518D01*
X118911928Y-120000000D01*
X113485000Y-120000000D01*
X113485000Y-117458665D01*
X114015000Y-117458665D01*
X114015000Y-117741335D01*
X114070147Y-118018574D01*
X114178320Y-118279727D01*
X114335363Y-118514759D01*
X114535241Y-118714637D01*
X114770273Y-118871680D01*
X115031426Y-118979853D01*
X115308665Y-119035000D01*
X115591335Y-119035000D01*
X115868574Y-118979853D01*
X116129727Y-118871680D01*
X116364759Y-118714637D01*
X116564637Y-118514759D01*
X116721680Y-118279727D01*
X116829853Y-118018574D01*
X116885000Y-117741335D01*
X116885000Y-117458665D01*
X116829853Y-117181426D01*
X116721680Y-116920273D01*
X116564637Y-116685241D01*
X116364759Y-116485363D01*
X116129727Y-116328320D01*
X115868574Y-116220147D01*
X115591335Y-116165000D01*
X115308665Y-116165000D01*
X115031426Y-116220147D01*
X114770273Y-116328320D01*
X114535241Y-116485363D01*
X114335363Y-116685241D01*
X114178320Y-116920273D01*
X114070147Y-117181426D01*
X114015000Y-117458665D01*
X113485000Y-117458665D01*
X113485000Y-111010131D01*
X114653138Y-109841994D01*
X114696449Y-109806449D01*
X114731994Y-109763138D01*
X115631018Y-108864114D01*
X115731309Y-108854236D01*
X116001808Y-108772182D01*
X116251101Y-108638932D01*
X116469608Y-108459608D01*
X116648932Y-108241101D01*
X116782182Y-107991808D01*
X116864236Y-107721309D01*
X116891943Y-107440000D01*
X116864236Y-107158691D01*
X116782182Y-106888192D01*
X116648932Y-106638899D01*
X116585000Y-106560998D01*
X116585000Y-105463740D01*
X118915000Y-105463740D01*
X118915000Y-105756260D01*
X118972068Y-106043158D01*
X119084010Y-106313411D01*
X119246525Y-106556632D01*
X119453368Y-106763475D01*
X119696589Y-106925990D01*
X119966842Y-107037932D01*
X120253740Y-107095000D01*
X120546260Y-107095000D01*
X120833158Y-107037932D01*
X121103411Y-106925990D01*
X121346632Y-106763475D01*
X121553475Y-106556632D01*
X121669415Y-106383115D01*
X121699294Y-106439014D01*
X121884866Y-106665134D01*
X122110986Y-106850706D01*
X122368966Y-106988599D01*
X122648889Y-107073513D01*
X122867050Y-107095000D01*
X123012950Y-107095000D01*
X123231111Y-107073513D01*
X123511034Y-106988599D01*
X123769014Y-106850706D01*
X123995134Y-106665134D01*
X124180706Y-106439014D01*
X124210000Y-106384209D01*
X124239294Y-106439014D01*
X124424866Y-106665134D01*
X124650986Y-106850706D01*
X124908966Y-106988599D01*
X125188889Y-107073513D01*
X125407050Y-107095000D01*
X125552950Y-107095000D01*
X125771111Y-107073513D01*
X126051034Y-106988599D01*
X126309014Y-106850706D01*
X126535134Y-106665134D01*
X126720706Y-106439014D01*
X126750000Y-106384209D01*
X126779294Y-106439014D01*
X126964866Y-106665134D01*
X127190986Y-106850706D01*
X127448966Y-106988599D01*
X127728889Y-107073513D01*
X127947050Y-107095000D01*
X128092950Y-107095000D01*
X128311111Y-107073513D01*
X128591034Y-106988599D01*
X128849014Y-106850706D01*
X129075134Y-106665134D01*
X129260706Y-106439014D01*
X129290000Y-106384209D01*
X129319294Y-106439014D01*
X129504866Y-106665134D01*
X129730986Y-106850706D01*
X129988966Y-106988599D01*
X130268889Y-107073513D01*
X130487050Y-107095000D01*
X130632950Y-107095000D01*
X130851111Y-107073513D01*
X131131034Y-106988599D01*
X131389014Y-106850706D01*
X131615134Y-106665134D01*
X131800706Y-106439014D01*
X131830000Y-106384209D01*
X131859294Y-106439014D01*
X132044866Y-106665134D01*
X132270986Y-106850706D01*
X132528966Y-106988599D01*
X132808889Y-107073513D01*
X133027050Y-107095000D01*
X133172950Y-107095000D01*
X133391111Y-107073513D01*
X133671034Y-106988599D01*
X133929014Y-106850706D01*
X134155134Y-106665134D01*
X134340706Y-106439014D01*
X134478599Y-106181034D01*
X134563513Y-105901111D01*
X134592185Y-105610000D01*
X134563513Y-105318889D01*
X134478599Y-105038966D01*
X134340706Y-104780986D01*
X134155134Y-104554866D01*
X133929014Y-104369294D01*
X133671034Y-104231401D01*
X133391111Y-104146487D01*
X133172950Y-104125000D01*
X133027050Y-104125000D01*
X132808889Y-104146487D01*
X132528966Y-104231401D01*
X132270986Y-104369294D01*
X132044866Y-104554866D01*
X131859294Y-104780986D01*
X131830000Y-104835791D01*
X131800706Y-104780986D01*
X131615134Y-104554866D01*
X131389014Y-104369294D01*
X131131034Y-104231401D01*
X130851111Y-104146487D01*
X130632950Y-104125000D01*
X130487050Y-104125000D01*
X130268889Y-104146487D01*
X129988966Y-104231401D01*
X129730986Y-104369294D01*
X129504866Y-104554866D01*
X129319294Y-104780986D01*
X129290000Y-104835791D01*
X129260706Y-104780986D01*
X129075134Y-104554866D01*
X128849014Y-104369294D01*
X128591034Y-104231401D01*
X128311111Y-104146487D01*
X128092950Y-104125000D01*
X127947050Y-104125000D01*
X127728889Y-104146487D01*
X127448966Y-104231401D01*
X127190986Y-104369294D01*
X126964866Y-104554866D01*
X126779294Y-104780986D01*
X126750000Y-104835791D01*
X126720706Y-104780986D01*
X126535134Y-104554866D01*
X126309014Y-104369294D01*
X126051034Y-104231401D01*
X125771111Y-104146487D01*
X125552950Y-104125000D01*
X125407050Y-104125000D01*
X125188889Y-104146487D01*
X124908966Y-104231401D01*
X124650986Y-104369294D01*
X124424866Y-104554866D01*
X124239294Y-104780986D01*
X124210000Y-104835791D01*
X124180706Y-104780986D01*
X123995134Y-104554866D01*
X123769014Y-104369294D01*
X123511034Y-104231401D01*
X123231111Y-104146487D01*
X123012950Y-104125000D01*
X122867050Y-104125000D01*
X122648889Y-104146487D01*
X122368966Y-104231401D01*
X122110986Y-104369294D01*
X121884866Y-104554866D01*
X121699294Y-104780986D01*
X121669415Y-104836885D01*
X121553475Y-104663368D01*
X121346632Y-104456525D01*
X121103411Y-104294010D01*
X120833158Y-104182068D01*
X120546260Y-104125000D01*
X120253740Y-104125000D01*
X119966842Y-104182068D01*
X119696589Y-104294010D01*
X119453368Y-104456525D01*
X119246525Y-104663368D01*
X119084010Y-104906589D01*
X118972068Y-105176842D01*
X118915000Y-105463740D01*
X116585000Y-105463740D01*
X116585000Y-99340131D01*
X118445286Y-97479845D01*
X118611111Y-97463513D01*
X118891034Y-97378599D01*
X119149014Y-97240706D01*
X119375134Y-97055134D01*
X119560706Y-96829014D01*
X119595201Y-96764477D01*
X119664822Y-96881355D01*
X119859731Y-97097588D01*
X120093080Y-97271641D01*
X120355901Y-97396825D01*
X120503110Y-97441476D01*
X120733000Y-97320155D01*
X120733000Y-96127000D01*
X120713000Y-96127000D01*
X120713000Y-95873000D01*
X120733000Y-95873000D01*
X120733000Y-94679845D01*
X120987000Y-94679845D01*
X120987000Y-95873000D01*
X121007000Y-95873000D01*
X121007000Y-96127000D01*
X120987000Y-96127000D01*
X120987000Y-97320155D01*
X121216890Y-97441476D01*
X121364099Y-97396825D01*
X121626920Y-97271641D01*
X121860269Y-97097588D01*
X122055178Y-96881355D01*
X122124799Y-96764477D01*
X122159294Y-96829014D01*
X122344866Y-97055134D01*
X122570986Y-97240706D01*
X122828966Y-97378599D01*
X123108889Y-97463513D01*
X123327050Y-97485000D01*
X123472950Y-97485000D01*
X123691111Y-97463513D01*
X123971034Y-97378599D01*
X124229014Y-97240706D01*
X124455134Y-97055134D01*
X124479607Y-97025313D01*
X124500498Y-97094180D01*
X124559463Y-97204494D01*
X124638815Y-97301185D01*
X124735506Y-97380537D01*
X124845820Y-97439502D01*
X124965518Y-97475812D01*
X125090000Y-97488072D01*
X126790000Y-97488072D01*
X126914482Y-97475812D01*
X127034180Y-97439502D01*
X127144494Y-97380537D01*
X127241185Y-97301185D01*
X127320537Y-97204494D01*
X127379502Y-97094180D01*
X127415812Y-96974482D01*
X127428072Y-96850000D01*
X127428072Y-96000000D01*
X128877815Y-96000000D01*
X128906487Y-96291111D01*
X128991401Y-96571034D01*
X129129294Y-96829014D01*
X129314866Y-97055134D01*
X129540986Y-97240706D01*
X129798966Y-97378599D01*
X130078889Y-97463513D01*
X130297050Y-97485000D01*
X130442950Y-97485000D01*
X130661111Y-97463513D01*
X130941034Y-97378599D01*
X131199014Y-97240706D01*
X131425134Y-97055134D01*
X131610706Y-96829014D01*
X131645201Y-96764477D01*
X131714822Y-96881355D01*
X131909731Y-97097588D01*
X132143080Y-97271641D01*
X132405901Y-97396825D01*
X132553110Y-97441476D01*
X132783000Y-97320155D01*
X132783000Y-96127000D01*
X132763000Y-96127000D01*
X132763000Y-95873000D01*
X132783000Y-95873000D01*
X132783000Y-94679845D01*
X133037000Y-94679845D01*
X133037000Y-95873000D01*
X133057000Y-95873000D01*
X133057000Y-96127000D01*
X133037000Y-96127000D01*
X133037000Y-97320155D01*
X133266890Y-97441476D01*
X133414099Y-97396825D01*
X133676920Y-97271641D01*
X133910269Y-97097588D01*
X134105178Y-96881355D01*
X134174799Y-96764477D01*
X134209294Y-96829014D01*
X134394866Y-97055134D01*
X134620986Y-97240706D01*
X134878966Y-97378599D01*
X135158889Y-97463513D01*
X135377050Y-97485000D01*
X135522950Y-97485000D01*
X135741111Y-97463513D01*
X136021034Y-97378599D01*
X136279014Y-97240706D01*
X136505134Y-97055134D01*
X136529607Y-97025313D01*
X136550498Y-97094180D01*
X136609463Y-97204494D01*
X136688815Y-97301185D01*
X136785506Y-97380537D01*
X136895820Y-97439502D01*
X137015518Y-97475812D01*
X137140000Y-97488072D01*
X138840000Y-97488072D01*
X138964482Y-97475812D01*
X139084180Y-97439502D01*
X139194494Y-97380537D01*
X139291185Y-97301185D01*
X139370537Y-97204494D01*
X139429502Y-97094180D01*
X139465812Y-96974482D01*
X139478072Y-96850000D01*
X139478072Y-96000000D01*
X140867815Y-96000000D01*
X140896487Y-96291111D01*
X140981401Y-96571034D01*
X141119294Y-96829014D01*
X141304866Y-97055134D01*
X141530986Y-97240706D01*
X141788966Y-97378599D01*
X142068889Y-97463513D01*
X142287050Y-97485000D01*
X142432950Y-97485000D01*
X142651111Y-97463513D01*
X142931034Y-97378599D01*
X143189014Y-97240706D01*
X143415134Y-97055134D01*
X143600706Y-96829014D01*
X143630000Y-96774209D01*
X143659294Y-96829014D01*
X143844866Y-97055134D01*
X144070986Y-97240706D01*
X144328966Y-97378599D01*
X144608889Y-97463513D01*
X144827050Y-97485000D01*
X144972950Y-97485000D01*
X145191111Y-97463513D01*
X145471034Y-97378599D01*
X145729014Y-97240706D01*
X145955134Y-97055134D01*
X146140706Y-96829014D01*
X146175201Y-96764477D01*
X146244822Y-96881355D01*
X146439731Y-97097588D01*
X146673080Y-97271641D01*
X146935901Y-97396825D01*
X147083110Y-97441476D01*
X147313000Y-97320155D01*
X147313000Y-96127000D01*
X147293000Y-96127000D01*
X147293000Y-95873000D01*
X147313000Y-95873000D01*
X147313000Y-94679845D01*
X147567000Y-94679845D01*
X147567000Y-95873000D01*
X147587000Y-95873000D01*
X147587000Y-96127000D01*
X147567000Y-96127000D01*
X147567000Y-97320155D01*
X147796890Y-97441476D01*
X147944099Y-97396825D01*
X148206920Y-97271641D01*
X148440269Y-97097588D01*
X148635178Y-96881355D01*
X148704799Y-96764477D01*
X148739294Y-96829014D01*
X148924866Y-97055134D01*
X149150986Y-97240706D01*
X149408966Y-97378599D01*
X149688889Y-97463513D01*
X149907050Y-97485000D01*
X150052950Y-97485000D01*
X150271111Y-97463513D01*
X150551034Y-97378599D01*
X150809014Y-97240706D01*
X151035134Y-97055134D01*
X151220706Y-96829014D01*
X151250000Y-96774209D01*
X151279294Y-96829014D01*
X151464866Y-97055134D01*
X151690986Y-97240706D01*
X151948966Y-97378599D01*
X152228889Y-97463513D01*
X152447050Y-97485000D01*
X152592950Y-97485000D01*
X152811111Y-97463513D01*
X153091034Y-97378599D01*
X153349014Y-97240706D01*
X153575134Y-97055134D01*
X153760706Y-96829014D01*
X153790000Y-96774209D01*
X153819294Y-96829014D01*
X154004866Y-97055134D01*
X154230986Y-97240706D01*
X154488966Y-97378599D01*
X154768889Y-97463513D01*
X154987050Y-97485000D01*
X155132950Y-97485000D01*
X155351111Y-97463513D01*
X155631034Y-97378599D01*
X155889014Y-97240706D01*
X156115134Y-97055134D01*
X156300706Y-96829014D01*
X156330000Y-96774209D01*
X156359294Y-96829014D01*
X156544866Y-97055134D01*
X156770986Y-97240706D01*
X157028966Y-97378599D01*
X157308889Y-97463513D01*
X157527050Y-97485000D01*
X157672950Y-97485000D01*
X157891111Y-97463513D01*
X158171034Y-97378599D01*
X158429014Y-97240706D01*
X158655134Y-97055134D01*
X158679607Y-97025313D01*
X158700498Y-97094180D01*
X158759463Y-97204494D01*
X158838815Y-97301185D01*
X158935506Y-97380537D01*
X159045820Y-97439502D01*
X159165518Y-97475812D01*
X159290000Y-97488072D01*
X160990000Y-97488072D01*
X161114482Y-97475812D01*
X161234180Y-97439502D01*
X161344494Y-97380537D01*
X161441185Y-97301185D01*
X161520537Y-97204494D01*
X161579502Y-97094180D01*
X161615812Y-96974482D01*
X161628072Y-96850000D01*
X161628072Y-96356891D01*
X163208519Y-96356891D01*
X163305843Y-96631252D01*
X163454822Y-96881355D01*
X163649731Y-97097588D01*
X163883080Y-97271641D01*
X164145901Y-97396825D01*
X164293110Y-97441476D01*
X164523000Y-97320155D01*
X164523000Y-96127000D01*
X163329186Y-96127000D01*
X163208519Y-96356891D01*
X161628072Y-96356891D01*
X161628072Y-95643109D01*
X163208519Y-95643109D01*
X163329186Y-95873000D01*
X164523000Y-95873000D01*
X164523000Y-94679845D01*
X164777000Y-94679845D01*
X164777000Y-95873000D01*
X164797000Y-95873000D01*
X164797000Y-96127000D01*
X164777000Y-96127000D01*
X164777000Y-97320155D01*
X165006890Y-97441476D01*
X165154099Y-97396825D01*
X165416920Y-97271641D01*
X165650269Y-97097588D01*
X165845178Y-96881355D01*
X165914799Y-96764477D01*
X165949294Y-96829014D01*
X166134866Y-97055134D01*
X166360986Y-97240706D01*
X166618966Y-97378599D01*
X166898889Y-97463513D01*
X167117050Y-97485000D01*
X167262950Y-97485000D01*
X167481111Y-97463513D01*
X167761034Y-97378599D01*
X168019014Y-97240706D01*
X168245134Y-97055134D01*
X168269607Y-97025313D01*
X168290498Y-97094180D01*
X168349463Y-97204494D01*
X168428815Y-97301185D01*
X168525506Y-97380537D01*
X168635820Y-97439502D01*
X168755518Y-97475812D01*
X168880000Y-97488072D01*
X170580000Y-97488072D01*
X170704482Y-97475812D01*
X170824180Y-97439502D01*
X170934494Y-97380537D01*
X171031185Y-97301185D01*
X171110537Y-97204494D01*
X171169502Y-97094180D01*
X171205812Y-96974482D01*
X171218072Y-96850000D01*
X171218072Y-95779872D01*
X179765000Y-95779872D01*
X179765000Y-96220128D01*
X179850890Y-96651925D01*
X180019369Y-97058669D01*
X180263962Y-97424729D01*
X180575271Y-97736038D01*
X180941331Y-97980631D01*
X181348075Y-98149110D01*
X181779872Y-98235000D01*
X182220128Y-98235000D01*
X182651925Y-98149110D01*
X183058669Y-97980631D01*
X183424729Y-97736038D01*
X183736038Y-97424729D01*
X183980631Y-97058669D01*
X184149110Y-96651925D01*
X184235000Y-96220128D01*
X184235000Y-95779872D01*
X184149110Y-95348075D01*
X183980631Y-94941331D01*
X183736038Y-94575271D01*
X183424729Y-94263962D01*
X183058669Y-94019369D01*
X182651925Y-93850890D01*
X182220128Y-93765000D01*
X181779872Y-93765000D01*
X181348075Y-93850890D01*
X180941331Y-94019369D01*
X180575271Y-94263962D01*
X180263962Y-94575271D01*
X180019369Y-94941331D01*
X179850890Y-95348075D01*
X179765000Y-95779872D01*
X171218072Y-95779872D01*
X171218072Y-95150000D01*
X171205812Y-95025518D01*
X171169502Y-94905820D01*
X171110537Y-94795506D01*
X171031185Y-94698815D01*
X170934494Y-94619463D01*
X170824180Y-94560498D01*
X170704482Y-94524188D01*
X170580000Y-94511928D01*
X168880000Y-94511928D01*
X168755518Y-94524188D01*
X168635820Y-94560498D01*
X168525506Y-94619463D01*
X168428815Y-94698815D01*
X168349463Y-94795506D01*
X168290498Y-94905820D01*
X168269607Y-94974687D01*
X168245134Y-94944866D01*
X168019014Y-94759294D01*
X167761034Y-94621401D01*
X167481111Y-94536487D01*
X167262950Y-94515000D01*
X167117050Y-94515000D01*
X166898889Y-94536487D01*
X166618966Y-94621401D01*
X166360986Y-94759294D01*
X166134866Y-94944866D01*
X165949294Y-95170986D01*
X165914799Y-95235523D01*
X165845178Y-95118645D01*
X165650269Y-94902412D01*
X165416920Y-94728359D01*
X165154099Y-94603175D01*
X165006890Y-94558524D01*
X164777000Y-94679845D01*
X164523000Y-94679845D01*
X164293110Y-94558524D01*
X164145901Y-94603175D01*
X163883080Y-94728359D01*
X163649731Y-94902412D01*
X163454822Y-95118645D01*
X163305843Y-95368748D01*
X163208519Y-95643109D01*
X161628072Y-95643109D01*
X161628072Y-95150000D01*
X161615812Y-95025518D01*
X161579502Y-94905820D01*
X161520537Y-94795506D01*
X161441185Y-94698815D01*
X161344494Y-94619463D01*
X161234180Y-94560498D01*
X161114482Y-94524188D01*
X160990000Y-94511928D01*
X159290000Y-94511928D01*
X159165518Y-94524188D01*
X159045820Y-94560498D01*
X158935506Y-94619463D01*
X158838815Y-94698815D01*
X158759463Y-94795506D01*
X158700498Y-94905820D01*
X158679607Y-94974687D01*
X158655134Y-94944866D01*
X158429014Y-94759294D01*
X158171034Y-94621401D01*
X157891111Y-94536487D01*
X157672950Y-94515000D01*
X157527050Y-94515000D01*
X157308889Y-94536487D01*
X157028966Y-94621401D01*
X156770986Y-94759294D01*
X156544866Y-94944866D01*
X156359294Y-95170986D01*
X156330000Y-95225791D01*
X156300706Y-95170986D01*
X156115134Y-94944866D01*
X155889014Y-94759294D01*
X155631034Y-94621401D01*
X155351111Y-94536487D01*
X155132950Y-94515000D01*
X154987050Y-94515000D01*
X154768889Y-94536487D01*
X154488966Y-94621401D01*
X154230986Y-94759294D01*
X154004866Y-94944866D01*
X153819294Y-95170986D01*
X153790000Y-95225791D01*
X153760706Y-95170986D01*
X153575134Y-94944866D01*
X153349014Y-94759294D01*
X153091034Y-94621401D01*
X152811111Y-94536487D01*
X152592950Y-94515000D01*
X152447050Y-94515000D01*
X152228889Y-94536487D01*
X151948966Y-94621401D01*
X151690986Y-94759294D01*
X151464866Y-94944866D01*
X151279294Y-95170986D01*
X151250000Y-95225791D01*
X151220706Y-95170986D01*
X151035134Y-94944866D01*
X150809014Y-94759294D01*
X150551034Y-94621401D01*
X150271111Y-94536487D01*
X150052950Y-94515000D01*
X149907050Y-94515000D01*
X149688889Y-94536487D01*
X149408966Y-94621401D01*
X149150986Y-94759294D01*
X148924866Y-94944866D01*
X148739294Y-95170986D01*
X148704799Y-95235523D01*
X148635178Y-95118645D01*
X148440269Y-94902412D01*
X148206920Y-94728359D01*
X147944099Y-94603175D01*
X147796890Y-94558524D01*
X147567000Y-94679845D01*
X147313000Y-94679845D01*
X147083110Y-94558524D01*
X146935901Y-94603175D01*
X146673080Y-94728359D01*
X146439731Y-94902412D01*
X146244822Y-95118645D01*
X146175201Y-95235523D01*
X146140706Y-95170986D01*
X145955134Y-94944866D01*
X145729014Y-94759294D01*
X145471034Y-94621401D01*
X145191111Y-94536487D01*
X144972950Y-94515000D01*
X144827050Y-94515000D01*
X144608889Y-94536487D01*
X144328966Y-94621401D01*
X144070986Y-94759294D01*
X143844866Y-94944866D01*
X143659294Y-95170986D01*
X143630000Y-95225791D01*
X143600706Y-95170986D01*
X143415134Y-94944866D01*
X143189014Y-94759294D01*
X142931034Y-94621401D01*
X142651111Y-94536487D01*
X142432950Y-94515000D01*
X142287050Y-94515000D01*
X142068889Y-94536487D01*
X141788966Y-94621401D01*
X141530986Y-94759294D01*
X141304866Y-94944866D01*
X141119294Y-95170986D01*
X140981401Y-95428966D01*
X140896487Y-95708889D01*
X140867815Y-96000000D01*
X139478072Y-96000000D01*
X139478072Y-95150000D01*
X139465812Y-95025518D01*
X139429502Y-94905820D01*
X139370537Y-94795506D01*
X139291185Y-94698815D01*
X139194494Y-94619463D01*
X139084180Y-94560498D01*
X138964482Y-94524188D01*
X138840000Y-94511928D01*
X137140000Y-94511928D01*
X137015518Y-94524188D01*
X136895820Y-94560498D01*
X136785506Y-94619463D01*
X136688815Y-94698815D01*
X136609463Y-94795506D01*
X136550498Y-94905820D01*
X136529607Y-94974687D01*
X136505134Y-94944866D01*
X136279014Y-94759294D01*
X136021034Y-94621401D01*
X135741111Y-94536487D01*
X135522950Y-94515000D01*
X135377050Y-94515000D01*
X135158889Y-94536487D01*
X134878966Y-94621401D01*
X134620986Y-94759294D01*
X134394866Y-94944866D01*
X134209294Y-95170986D01*
X134174799Y-95235523D01*
X134105178Y-95118645D01*
X133910269Y-94902412D01*
X133676920Y-94728359D01*
X133414099Y-94603175D01*
X133266890Y-94558524D01*
X133037000Y-94679845D01*
X132783000Y-94679845D01*
X132553110Y-94558524D01*
X132405901Y-94603175D01*
X132143080Y-94728359D01*
X131909731Y-94902412D01*
X131714822Y-95118645D01*
X131645201Y-95235523D01*
X131610706Y-95170986D01*
X131425134Y-94944866D01*
X131199014Y-94759294D01*
X130941034Y-94621401D01*
X130661111Y-94536487D01*
X130442950Y-94515000D01*
X130297050Y-94515000D01*
X130078889Y-94536487D01*
X129798966Y-94621401D01*
X129540986Y-94759294D01*
X129314866Y-94944866D01*
X129129294Y-95170986D01*
X128991401Y-95428966D01*
X128906487Y-95708889D01*
X128877815Y-96000000D01*
X127428072Y-96000000D01*
X127428072Y-95150000D01*
X127415812Y-95025518D01*
X127379502Y-94905820D01*
X127320537Y-94795506D01*
X127241185Y-94698815D01*
X127144494Y-94619463D01*
X127034180Y-94560498D01*
X126914482Y-94524188D01*
X126790000Y-94511928D01*
X125090000Y-94511928D01*
X124965518Y-94524188D01*
X124845820Y-94560498D01*
X124735506Y-94619463D01*
X124638815Y-94698815D01*
X124559463Y-94795506D01*
X124500498Y-94905820D01*
X124479607Y-94974687D01*
X124455134Y-94944866D01*
X124229014Y-94759294D01*
X123971034Y-94621401D01*
X123691111Y-94536487D01*
X123472950Y-94515000D01*
X123327050Y-94515000D01*
X123108889Y-94536487D01*
X122828966Y-94621401D01*
X122570986Y-94759294D01*
X122344866Y-94944866D01*
X122159294Y-95170986D01*
X122124799Y-95235523D01*
X122055178Y-95118645D01*
X121860269Y-94902412D01*
X121626920Y-94728359D01*
X121364099Y-94603175D01*
X121216890Y-94558524D01*
X120987000Y-94679845D01*
X120733000Y-94679845D01*
X120503110Y-94558524D01*
X120355901Y-94603175D01*
X120093080Y-94728359D01*
X119859731Y-94902412D01*
X119664822Y-95118645D01*
X119595201Y-95235523D01*
X119560706Y-95170986D01*
X119375134Y-94944866D01*
X119149014Y-94759294D01*
X118891034Y-94621401D01*
X118611111Y-94536487D01*
X118392950Y-94515000D01*
X118247050Y-94515000D01*
X118028889Y-94536487D01*
X117748966Y-94621401D01*
X117490986Y-94759294D01*
X117264866Y-94944866D01*
X117079294Y-95170986D01*
X116941401Y-95428966D01*
X116856487Y-95708889D01*
X116840155Y-95874714D01*
X114686860Y-98028009D01*
X114643552Y-98063551D01*
X114501717Y-98236377D01*
X114445384Y-98341770D01*
X114396324Y-98433554D01*
X114331423Y-98647502D01*
X114309509Y-98870000D01*
X114315001Y-98925761D01*
X114315000Y-106560997D01*
X114251068Y-106638899D01*
X114117818Y-106888192D01*
X114035764Y-107158691D01*
X114025886Y-107258982D01*
X113419868Y-107865000D01*
X110967683Y-107865000D01*
X110930537Y-107795506D01*
X110851185Y-107698815D01*
X110754494Y-107619463D01*
X110644180Y-107560498D01*
X110524482Y-107524188D01*
X110400000Y-107511928D01*
X108700000Y-107511928D01*
X108575518Y-107524188D01*
X108455820Y-107560498D01*
X108345506Y-107619463D01*
X108248815Y-107698815D01*
X108169463Y-107795506D01*
X108110498Y-107905820D01*
X108074188Y-108025518D01*
X108061928Y-108150000D01*
X108061928Y-109850000D01*
X108074188Y-109974482D01*
X108110498Y-110094180D01*
X108169463Y-110204494D01*
X108248815Y-110301185D01*
X108345506Y-110380537D01*
X108455820Y-110439502D01*
X108524687Y-110460393D01*
X108494866Y-110484866D01*
X108309294Y-110710986D01*
X108171401Y-110968966D01*
X108086487Y-111248889D01*
X108057815Y-111540000D01*
X90660000Y-111540000D01*
X90660000Y-95779872D01*
X93765000Y-95779872D01*
X93765000Y-96220128D01*
X93850890Y-96651925D01*
X94019369Y-97058669D01*
X94263962Y-97424729D01*
X94575271Y-97736038D01*
X94941331Y-97980631D01*
X95348075Y-98149110D01*
X95779872Y-98235000D01*
X96220128Y-98235000D01*
X96651925Y-98149110D01*
X97058669Y-97980631D01*
X97424729Y-97736038D01*
X97736038Y-97424729D01*
X97980631Y-97058669D01*
X98149110Y-96651925D01*
X98235000Y-96220128D01*
X98235000Y-96000000D01*
X109257815Y-96000000D01*
X109286487Y-96291111D01*
X109371401Y-96571034D01*
X109509294Y-96829014D01*
X109694866Y-97055134D01*
X109920986Y-97240706D01*
X110178966Y-97378599D01*
X110458889Y-97463513D01*
X110677050Y-97485000D01*
X110822950Y-97485000D01*
X111041111Y-97463513D01*
X111321034Y-97378599D01*
X111579014Y-97240706D01*
X111805134Y-97055134D01*
X111829607Y-97025313D01*
X111850498Y-97094180D01*
X111909463Y-97204494D01*
X111988815Y-97301185D01*
X112085506Y-97380537D01*
X112195820Y-97439502D01*
X112315518Y-97475812D01*
X112440000Y-97488072D01*
X114140000Y-97488072D01*
X114264482Y-97475812D01*
X114384180Y-97439502D01*
X114494494Y-97380537D01*
X114591185Y-97301185D01*
X114670537Y-97204494D01*
X114729502Y-97094180D01*
X114765812Y-96974482D01*
X114778072Y-96850000D01*
X114778072Y-95150000D01*
X114765812Y-95025518D01*
X114729502Y-94905820D01*
X114670537Y-94795506D01*
X114591185Y-94698815D01*
X114494494Y-94619463D01*
X114384180Y-94560498D01*
X114264482Y-94524188D01*
X114140000Y-94511928D01*
X112440000Y-94511928D01*
X112315518Y-94524188D01*
X112195820Y-94560498D01*
X112085506Y-94619463D01*
X111988815Y-94698815D01*
X111909463Y-94795506D01*
X111850498Y-94905820D01*
X111829607Y-94974687D01*
X111805134Y-94944866D01*
X111579014Y-94759294D01*
X111321034Y-94621401D01*
X111041111Y-94536487D01*
X110822950Y-94515000D01*
X110677050Y-94515000D01*
X110458889Y-94536487D01*
X110178966Y-94621401D01*
X109920986Y-94759294D01*
X109694866Y-94944866D01*
X109509294Y-95170986D01*
X109371401Y-95428966D01*
X109286487Y-95708889D01*
X109257815Y-96000000D01*
X98235000Y-96000000D01*
X98235000Y-95779872D01*
X98149110Y-95348075D01*
X97980631Y-94941331D01*
X97736038Y-94575271D01*
X97424729Y-94263962D01*
X97058669Y-94019369D01*
X96651925Y-93850890D01*
X96220128Y-93765000D01*
X95779872Y-93765000D01*
X95348075Y-93850890D01*
X94941331Y-94019369D01*
X94575271Y-94263962D01*
X94263962Y-94575271D01*
X94019369Y-94941331D01*
X93850890Y-95348075D01*
X93765000Y-95779872D01*
X90660000Y-95779872D01*
X90660000Y-90660000D01*
X189340001Y-90660000D01*
X189340000Y-139340000D01*
G36*
X143877000Y-131473000D02*
G01*
X143897000Y-131473000D01*
X143897000Y-131727000D01*
X143877000Y-131727000D01*
X143877000Y-131747000D01*
X143623000Y-131747000D01*
X143623000Y-131727000D01*
X143603000Y-131727000D01*
X143603000Y-131473000D01*
X143623000Y-131473000D01*
X143623000Y-131453000D01*
X143877000Y-131453000D01*
X143877000Y-131473000D01*
X143877000Y-131473000D01*
G37*
X143877000Y-131473000D02*
X143897000Y-131473000D01*
X143897000Y-131727000D01*
X143877000Y-131727000D01*
X143877000Y-131747000D01*
X143623000Y-131747000D01*
X143623000Y-131727000D01*
X143603000Y-131727000D01*
X143603000Y-131473000D01*
X143623000Y-131473000D01*
X143623000Y-131453000D01*
X143877000Y-131453000D01*
X143877000Y-131473000D01*
M02*
